SplineFontDB: 3.0
FontName: Jost-Heavy
FullName: Jost* 800 Heavy
FamilyName: Jost* Heavy
Weight: Heavy
Copyright: Copyright (c) 2018, Owen Earl,,,
UComments: "2018-6-8: Created with FontForge (http://fontforge.org)"
Version: 003.300
ItalicAngle: 0
UnderlinePosition: -100
UnderlineWidth: 50
Ascent: 800
Descent: 200
InvalidEm: 0
LayerCount: 2
Layer: 0 0 "Back" 1
Layer: 1 0 "Fore" 0
XUID: [1021 69 1495626776 4534362]
FSType: 0
OS2Version: 0
OS2_WeightWidthSlopeOnly: 0
OS2_UseTypoMetrics: 0
CreationTime: 1528479348
ModificationTime: 1563288369
PfmFamily: 17
TTFWeight: 800
TTFWidth: 5
LineGap: 100
VLineGap: 0
OS2TypoAscent: 825
OS2TypoAOffset: 0
OS2TypoDescent: -225
OS2TypoDOffset: 0
OS2TypoLinegap: 100
OS2WinAscent: 900
OS2WinAOffset: 0
OS2WinDescent: 300
OS2WinDOffset: 0
HheadAscent: 1030
HheadAOffset: 0
HheadDescent: -350
HheadDOffset: 0
OS2CapHeight: 700
OS2XHeight: 460
OS2Vendor: 'PfEd'
Lookup: 1 0 0 "alt a" { "alt a"  } ['ss01' ('DFLT' <'dflt' > 'latn' <'dflt' > ) ]
Lookup: 1 0 0 "Tabular Numbers lookup" { "Tabular Numbers lookup"  } ['tnum' ('DFLT' <'dflt' > 'grek' <'dflt' > 'latn' <'dflt' > ) ]
Lookup: 258 0 0 "Lets get our kern on" { "kernin like nobodys business" [150,0,0] } ['kern' ('DFLT' <'dflt' > 'latn' <'dflt' > ) ]
MarkAttachClasses: 1
DEI: 91125
KernClass2: 16 14 "kernin like nobodys business"
 43 slash seven V W Wcircumflex uni040E uni0423
 175 quotedbl quotesingle asterisk grave dieresis ordfeminine macron degree acute ordmasculine circumflex breve dotaccent ring tilde quoteleft quoteright quotedblleft quotedblright
 25 nine question F P uni0420
 131 A L backslash Agrave Aacute Acircumflex Atilde Adieresis Aring Amacron Abreve Aogonek Lacute uni013B Lslash uni0410 uni0414 uni041C
 58 three eight B C germandbls uni0411 uni0412 uni0417 uni0421
 29 K X Z uni0416 uni041A uni0425
 157 at D G O Ograve Oacute Ocircumflex Otilde Odieresis Oslash Dcaron Dcroat Gcircumflex Gbreve Gdotaccent uni0122 Omacron Obreve uni041E uni0424 uni042D uni042E

StartChar: H
Encoding: 72 72 0
Width: 762
VWidth: 0
Flags: HMW
LayerCount: 2
Fore
SplineSet
148 277 m 1
 210 454 l 1
 731 454 l 1
 670 277 l 1
 148 277 l 1
691 700 m 1
 886 700 l 1
 645 0 l 1
 452 0 l 1
 691 700 l 1
249 700 m 1
 443 700 l 1
 202 0 l 1
 10 0 l 1
 249 700 l 1
EndSplineSet
EndChar

StartChar: O
Encoding: 79 79 1
Width: 782
VWidth: 0
Flags: HMW
LayerCount: 2
Fore
SplineSet
295 350 m 0
 264 269 276 166 382 163 c 0
 490 160 582 255 619 350 c 0
 650 432 639 535 532 537 c 0
 424 539 331 445 295 350 c 0
92 350 m 0
 156 552 355 719 571 719 c 0
 779 719 881 539 822 350 c 0
 758 146 558 -28 339 -27 c 0
 127 -26 33 161 92 350 c 0
EndSplineSet
EndChar

StartChar: I
Encoding: 73 73 2
Width: 325
VWidth: 0
Flags: HMW
LayerCount: 2
Fore
SplineSet
249 700 m 1
 447 700 l 1
 206 0 l 1
 10 0 l 1
 249 700 l 1
EndSplineSet
EndChar

StartChar: C
Encoding: 67 67 3
Width: 663
VWidth: 0
Flags: HMW
LayerCount: 2
Fore
SplineSet
302 350 m 0
 268 259 306 173 409 170 c 0
 493 168 569 213 637 256 c 1
 576 50 l 1
 508 10 434 -19 354 -19 c 0
 144 -19 30 153 92 350 c 0
 157 559 362 719 583 719 c 0
 656 719 716 694 773 649 c 1
 710 442 l 1
 672 497 622 530 553 530 c 0
 444 529 340 450 302 350 c 0
EndSplineSet
EndChar

StartChar: E
Encoding: 69 69 4
Width: 583
VWidth: 0
Flags: HMW
LayerCount: 2
Fore
SplineSet
137 0 m 1
 193 160 l 1
 532 160 l 1
 475 0 l 1
 137 0 l 1
322 540 m 1
 378 700 l 1
 716 700 l 1
 660 540 l 1
 322 540 l 1
234 285 m 1
 289 441 l 1
 608 441 l 1
 554 285 l 1
 234 285 l 1
249 700 m 1
 435 700 l 1
 194 0 l 1
 10 0 l 1
 249 700 l 1
EndSplineSet
EndChar

StartChar: F
Encoding: 70 70 6
Width: 536
VWidth: 0
Flags: HMW
LayerCount: 2
Fore
SplineSet
318 532 m 1
 378 700 l 1
 678 700 l 1
 619 532 l 1
 318 532 l 1
226 260 m 1
 280 416 l 1
 572 416 l 1
 517 260 l 1
 226 260 l 1
249 700 m 1
 435 700 l 1
 194 0 l 1
 10 0 l 1
 249 700 l 1
EndSplineSet
EndChar

StartChar: G
Encoding: 71 71 7
Width: 778
VWidth: 0
Flags: HMW
LayerCount: 2
Fore
SplineSet
426 245 m 1
 478 392 l 1
 821 392 l 1
 763 175 611 -27 356 -27 c 0
 143 -27 31 156 92 350 c 0
 158 559 366 719 587 719 c 0
 710 719 795 652 848 544 c 1
 653 461 l 1
 637 512 609 548 551 548 c 0
 435 548 332 452 293 350 c 0
 258 259 274 143 391 143 c 0
 473 143 527 181 573 245 c 1
 426 245 l 1
EndSplineSet
EndChar

StartChar: T
Encoding: 84 84 8
Width: 559
VWidth: 0
Flags: HMW
LayerCount: 2
Fore
SplineSet
122 523 m 1
 184 700 l 1
 747 700 l 1
 686 523 l 1
 501 523 l 1
 322 0 l 1
 129 0 l 1
 308 523 l 1
 122 523 l 1
EndSplineSet
EndChar

StartChar: L
Encoding: 76 76 9
Width: 522
VWidth: 0
Flags: HMW
LayerCount: 2
Fore
SplineSet
250 700 m 1
 443 700 l 1
 261 168 l 1
 528 168 l 1
 469 0 l 1
 10 0 l 1
 250 700 l 1
EndSplineSet
EndChar

StartChar: D
Encoding: 68 68 10
Width: 705
VWidth: 0
Flags: HMW
LayerCount: 2
Fore
SplineSet
249 700 m 1
 450 700 l 1
 210 0 l 1
 10 0 l 1
 249 700 l 1
273 0 m 2
 136 0 l 1
 198 173 l 1
 303 173 l 2
 415 173 506 245 546 350 c 0
 583 446 551 527 444 527 c 2
 316 527 l 1
 377 700 l 1
 490 700 l 2
 694 700 808 548 746 350 c 0
 681 142 489 0 273 0 c 2
EndSplineSet
EndChar

StartChar: Q
Encoding: 81 81 11
Width: 836
VWidth: 0
Flags: HMW
LayerCount: 2
Fore
SplineSet
295 350 m 0
 261 261 282 148 396 146 c 0
 503 144 596 229 633 324 c 0
 668 413 653 534 535 537 c 0
 427 539 332 445 295 350 c 0
92 350 m 0
 156 553 359 720 575 719 c 0
 783 718 881 538 822 350 c 0
 758 147 563 -28 344 -27 c 0
 132 -26 33 160 92 350 c 0
382 300 m 1
 557 300 l 1
 778 -17 l 1
 597 -17 l 1
 382 300 l 1
EndSplineSet
EndChar

StartChar: A
Encoding: 65 65 12
Width: 715
VWidth: 0
Flags: HMW
LayerCount: 2
Fore
SplineSet
165 109 m 1
 221 254 l 1
 566 254 l 1
 519 109 l 1
 165 109 l 1
442 407 m 1
 291 200 l 1
 289 154 l 1
 162 0 l 1
 -66 0 l 1
 557 752 l 1
 663 0 l 1
 455 0 l 1
 438 150 l 1
 459 200 l 1
 442 407 l 1
EndSplineSet
EndChar

StartChar: R
Encoding: 82 82 13
Width: 636
VWidth: 0
Flags: HMW
LayerCount: 2
Fore
SplineSet
301 307 m 1
 488 307 l 1
 578 0 l 1
 367 0 l 1
 301 307 l 1
249 700 m 1
 443 700 l 1
 202 0 l 1
 10 0 l 1
 249 700 l 1
313 532 m 1
 369 700 l 1
 503 700 l 2
 642 700 739 613 704 464 c 0
 668 312 514 229 364 229 c 2
 207 229 l 1
 261 380 l 1
 379 380 l 2
 428 380 484 407 502 457 c 0
 518 502 492 531 449 532 c 2
 313 532 l 1
EndSplineSet
EndChar

StartChar: V
Encoding: 86 86 14
Width: 715
VWidth: 0
Flags: HMW
LayerCount: 2
Fore
SplineSet
421 333 m 1
 675 699 l 1
 908 699 l 1
 311 -52 l 1
 180 700 l 1
 397 700 l 1
 421 333 l 1
EndSplineSet
EndChar

StartChar: M
Encoding: 77 77 15
Width: 864
VWidth: 0
Flags: HMW
LayerCount: 2
Fore
SplineSet
323 314 m 1
 178 0 l 1
 -30 0 l 1
 338 735 l 1
 487 340 l 1
 921 746 l 1
 782 0 l 1
 579 0 l 1
 650 301 l 1
 406 62 l 1
 323 314 l 1
EndSplineSet
EndChar

StartChar: W
Encoding: 87 87 16
Width: 1026
VWidth: 0
Flags: HMW
LayerCount: 2
Fore
SplineSet
758 329 m 1
 977 700 l 1
 1213 699 l 1
 686 -47 l 1
 587 331 l 1
 249 -49 l 1
 184 700 l 1
 407 700 l 1
 395 334 l 1
 704 741 l 1
 758 329 l 1
EndSplineSet
EndChar

StartChar: N
Encoding: 78 78 17
Width: 752
VWidth: 0
Flags: HMW
LayerCount: 2
Fore
SplineSet
689 700 m 1
 874 700 l 1
 624 -31 l 1
 316 352 l 1
 195 0 l 1
 9 0 l 1
 260 731 l 1
 567 348 l 1
 689 700 l 1
EndSplineSet
EndChar

StartChar: a
Encoding: 97 97 18
Width: 530
VWidth: 0
Flags: HMW
LayerCount: 2
Fore
SplineSet
180 137 m 0
 175 114 193 102 212 100 c 0
 268 95 307 146 334 188 c 1
 332 128 l 1
 295 47 226 -8 134 -9 c 0
 51 -10 -17 43 8 131 c 0
 36 228 144 275 238 276 c 0
 292 277 339 262 382 230 c 1
 358 153 l 1
 331 174 306 188 270 187 c 0
 235 186 186 171 180 137 c 0
168 306 m 1
 146 425 l 1
 216 451 290 474 366 474 c 0
 458 474 567 431 540 321 c 1
 431 0 l 1
 266 0 l 1
 368 282 l 1
 377 317 361 336 324 341 c 0
 272 347 216 324 168 306 c 1
EndSplineSet
Substitution2: "alt a" a.alt
EndChar

StartChar: X
Encoding: 88 88 19
Width: 687
VWidth: 0
Flags: HMW
LayerCount: 2
Fore
SplineSet
615 699 m 1
 863 699 l 1
 537 348 l 1
 650 0 l 1
 422 0 l 1
 381 206 l 1
 207 0 l 1
 -41 0 l 1
 308 364 l 1
 209 700 l 1
 438 700 l 1
 468 523 l 1
 615 699 l 1
EndSplineSet
EndChar

StartChar: K
Encoding: 75 75 20
Width: 701
VWidth: 0
Flags: HMW
LayerCount: 2
Fore
SplineSet
249 700 m 1
 451 700 l 1
 211 0 l 1
 10 0 l 1
 249 700 l 1
650 699 m 1
 887 699 l 1
 502 364 l 1
 648 0 l 1
 430 0 l 1
 280 375 l 1
 650 699 l 1
EndSplineSet
EndChar

StartChar: Y
Encoding: 89 89 21
Width: 653
VWidth: 0
Flags: HMW
LayerCount: 2
Fore
SplineSet
619 699 m 1
 850 699 l 1
 464 270 l 1
 372 0 l 1
 174 0 l 1
 274 289 l 1
 184 700 l 1
 396 700 l 1
 425 465 l 1
 619 699 l 1
EndSplineSet
EndChar

StartChar: B
Encoding: 66 66 22
Width: 658
VWidth: 0
Flags: HMW
LayerCount: 2
Fore
SplineSet
264 341 m 1
 294 424 l 1
 393 424 l 2
 434 424 485 447 500 490 c 0
 513 529 489 548 453 549 c 2
 394 549 l 1
 252 150 l 1
 317 150 l 2
 366 152 431 171 448 225 c 0
 463 273 423 287 383 289 c 2
 246 290 l 1
 285 398 l 1
 424 399 l 2
 543 399 675 333 635 193 c 0
 594 49 446 0 311 0 c 2
 10 0 l 1
 250 700 l 1
 509 700 l 2
 614 700 747 650 709 520 c 0
 672 392 529 341 409 341 c 2
 264 341 l 1
EndSplineSet
EndChar

StartChar: Z
Encoding: 90 90 23
Width: 607
VWidth: 0
Flags: HMW
LayerCount: 2
Fore
SplineSet
181 523 m 1
 243 700 l 1
 790 699 l 1
 310 169 l 1
 566 168 l 1
 506 0 l 1
 -57 0 l 1
 416 522 l 1
 181 523 l 1
EndSplineSet
EndChar

StartChar: o
Encoding: 111 111 24
Width: 568
VWidth: 0
Flags: HMW
LayerCount: 2
Fore
SplineSet
63 231 m 0
 101 371 241 471 385 471 c 0
 522 471 617 365 580 229 c 0
 542 89 402 -10 258 -10 c 0
 122 -10 26 95 63 231 c 0
238 229 m 0
 224 189 232 136 283 133 c 0
 336 130 389 184 405 231 c 0
 419 271 410 325 359 328 c 0
 306 331 254 276 238 229 c 0
EndSplineSet
EndChar

StartChar: J
Encoding: 74 74 25
Width: 340
VWidth: 0
Flags: HMW
LayerCount: 2
Fore
SplineSet
-150 -50 m 1
 -131 -65 -110 -83 -85 -82 c 0
 -42 -81 -6 -40 7 -3 c 2
 250 700 l 1
 462 700 l 1
 206 -52 l 2
 161 -181 35 -245 -97 -245 c 0
 -169 -245 -232 -220 -292 -183 c 1
 -150 -50 l 1
EndSplineSet
EndChar

StartChar: t
Encoding: 116 116 26
Width: 324
VWidth: 0
Flags: HMW
LayerCount: 2
Fore
SplineSet
106 460 m 1
 428 460 l 1
 377 318 l 1
 55 318 l 1
 106 460 l 1
238 620 m 1
 403 620 l 1
 189 0 l 1
 26 0 l 1
 238 620 l 1
EndSplineSet
EndChar

StartChar: d
Encoding: 100 100 27
Width: 594
VWidth: 0
Flags: HMW
LayerCount: 2
Fore
SplineSet
589 780 m 1
 762 780 l 1
 494 0 l 1
 322 0 l 1
 589 780 l 1
50 231 m 0
 85 349 196 470 327 470 c 0
 459 470 477 331 446 229 c 0
 411 114 315 -9 185 -9 c 0
 53 -9 18 124 50 231 c 0
229 229 m 0
 214 189 222 132 274 129 c 0
 329 126 383 184 401 231 c 0
 416 270 412 328 360 331 c 0
 305 334 247 276 229 229 c 0
EndSplineSet
EndChar

StartChar: l
Encoding: 108 108 28
Width: 267
VWidth: 0
Flags: HMW
LayerCount: 2
Fore
SplineSet
260 780 m 1
 434 780 l 1
 165 0 l 1
 -6 0 l 1
 260 780 l 1
EndSplineSet
EndChar

StartChar: i
Encoding: 105 105 29
Width: 264
VWidth: 0
Flags: HMW
LayerCount: 2
Fore
SplineSet
193 626 m 0
 193 680 237 717 293 717 c 0
 349 717 392 680 392 626 c 0
 392 572 349 534 293 534 c 0
 237 534 193 572 193 626 c 0
152 460 m 1
 319 460 l 1
 161 0 l 1
 -5 0 l 1
 152 460 l 1
EndSplineSet
EndChar

StartChar: r
Encoding: 114 114 30
Width: 417
VWidth: 0
Flags: HMW
LayerCount: 2
Fore
SplineSet
320 460 m 1
 161 0 l 1
 -7 0 l 1
 151 460 l 1
 320 460 l 1
394 280 m 1
 382 293 370 306 350 307 c 0
 297 309 247 247 233 208 c 1
 234 282 l 1
 268 364 357 472 435 472 c 0
 469 472 488 451 508 427 c 1
 394 280 l 1
EndSplineSet
EndChar

StartChar: c
Encoding: 99 99 31
Width: 468
VWidth: 0
Flags: HMW
LayerCount: 2
Fore
SplineSet
237 229 m 0
 219 177 244 131 300 128 c 0
 354 125 403 158 444 188 c 1
 402 25 l 1
 357 4 310 -10 260 -10 c 0
 123 -10 24 92 62 231 c 0
 101 374 244 470 389 470 c 0
 437 470 480 458 522 436 c 1
 478 271 l 1
 455 307 427 333 381 333 c 0
 313 333 256 285 237 229 c 0
EndSplineSet
EndChar

StartChar: b
Encoding: 98 98 32
Width: 594
VWidth: 0
Flags: HMW
LayerCount: 2
Fore
SplineSet
433 780 m 1
 165 0 l 1
 -8 0 l 1
 259 780 l 1
 433 780 l 1
594 229 m 0
 559 111 449 -10 318 -10 c 0
 186 -10 167 129 198 231 c 0
 233 346 330 469 460 469 c 0
 592 469 626 336 594 229 c 0
416 231 m 0
 431 271 422 328 370 331 c 0
 315 334 262 276 244 229 c 0
 229 190 233 132 285 129 c 0
 340 126 398 184 416 231 c 0
EndSplineSet
EndChar

StartChar: p
Encoding: 112 112 33
Width: 594
VWidth: 0
Flags: HMW
LayerCount: 2
Fore
SplineSet
90 -220 m 1
 -83 -220 l 1
 151 460 l 1
 322 460 l 1
 90 -220 l 1
594 229 m 0
 558 110 450 -20 315 -19 c 0
 177 -18 176 129 207 230 c 0
 242 345 328 477 462 478 c 0
 599 479 626 336 594 229 c 0
416 232 m 0
 431 275 418 318 368 322 c 0
 316 326 260 274 244 228 c 0
 229 186 238 142 287 138 c 0
 340 134 399 185 416 232 c 0
EndSplineSet
EndChar

StartChar: q
Encoding: 113 113 34
Width: 594
VWidth: 0
Flags: HMW
LayerCount: 2
Fore
SplineSet
246 -220 m 1
 479 460 l 1
 653 460 l 1
 419 -220 l 1
 246 -220 l 1
50 231 m 0
 86 350 195 480 330 479 c 0
 468 478 469 331 438 230 c 0
 403 115 317 -17 183 -18 c 0
 46 -19 18 124 50 231 c 0
229 228 m 0
 214 185 227 142 277 138 c 0
 329 134 385 186 401 232 c 0
 416 274 405 318 356 322 c 0
 303 326 246 275 229 228 c 0
EndSplineSet
EndChar

StartChar: h
Encoding: 104 104 35
Width: 548
VWidth: 0
Flags: HMW
LayerCount: 2
Fore
SplineSet
434 780 m 1
 166 0 l 1
 -7 0 l 1
 260 780 l 1
 434 780 l 1
375 280 m 2
 384 306 392 345 355 352 c 0
 314 359 281 308 262 280 c 1
 232 282 l 1
 268 379 334 477 449 479 c 0
 558 481 580 396 551 307 c 1
 447 0 l 1
 275 0 l 1
 375 280 l 2
EndSplineSet
EndChar

StartChar: n
Encoding: 110 110 36
Width: 556
VWidth: 0
Flags: HMW
LayerCount: 2
Fore
SplineSet
324 460 m 1
 166 0 l 1
 -7 0 l 1
 151 460 l 1
 324 460 l 1
375 280 m 2
 384 306 391 345 354 352 c 0
 313 359 281 309 262 281 c 1
 231 273 l 1
 266 370 331 469 446 471 c 0
 554 473 586 390 556 299 c 1
 455 0 l 1
 275 0 l 1
 375 280 l 2
EndSplineSet
EndChar

StartChar: m
Encoding: 109 109 37
Width: 785
VWidth: 0
Flags: HMW
LayerCount: 2
Fore
SplineSet
348 281 m 2
 354 303 367 345 334 352 c 0
 298 360 267 305 253 281 c 1
 223 273 l 1
 258 367 321 469 433 471 c 0
 537 473 548 390 524 307 c 2
 420 0 l 1
 247 0 l 1
 348 281 l 2
316 460 m 1
 158 0 l 1
 -7 0 l 1
 151 460 l 1
 316 460 l 1
784 299 m 2
 684 0 l 1
 510 0 l 1
 611 280 l 2
 617 302 630 345 597 352 c 0
 561 360 529 305 515 281 c 1
 460 273 l 1
 500 371 580 470 696 471 c 0
 803 472 809 382 784 299 c 2
EndSplineSet
EndChar

StartChar: k
Encoding: 107 107 38
Width: 587
VWidth: 0
Flags: HMW
LayerCount: 2
Fore
SplineSet
259 780 m 1
 424 780 l 1
 157 0 l 1
 -7 0 l 1
 259 780 l 1
459 459 m 1
 675 459 l 1
 413 262 l 1
 521 0 l 1
 338 0 l 1
 219 279 l 1
 459 459 l 1
EndSplineSet
EndChar

StartChar: u
Encoding: 117 117 39
Width: 556
VWidth: 0
Flags: HMW
LayerCount: 2
Fore
SplineSet
282 0 m 1
 441 460 l 1
 613 460 l 1
 455 0 l 1
 282 0 l 1
232 180 m 1
 225 154 215 115 252 108 c 0
 293 101 326 151 345 179 c 1
 375 187 l 1
 340 90 274 -9 159 -11 c 0
 51 -13 24 69 50 161 c 1
 151 460 l 1
 331 460 l 1
 232 180 l 1
EndSplineSet
EndChar

StartChar: e
Encoding: 101 101 40
Width: 558
VWidth: 0
Flags: HMW
LayerCount: 2
Fore
SplineSet
147 194 m 1
 173 282 l 1
 408 282 l 1
 412 315 403 357 361 357 c 0
 301 357 264 297 243 251 c 2
 234 229 l 1
 219 184 213 119 274 113 c 0
 317 108 356 137 387 162 c 1
 538 130 l 1
 468 47 375 -10 263 -10 c 0
 122 -10 26 87 63 230 c 0
 67 247 73 263 80 279 c 0
 133 398 254 470 383 470 c 0
 523 470 603 376 570 238 c 0
 566 223 561 209 556 194 c 1
 147 194 l 1
EndSplineSet
EndChar

StartChar: g
Encoding: 103 103 41
Width: 587
VWidth: 0
Flags: HMW
LayerCount: 2
Fore
SplineSet
-33 -34 m 1
 126 -35 l 1
 128 -75 135 -102 182 -103 c 0
 249 -105 304 -47 324 11 c 2
 479 460 l 1
 644 460 l 1
 491 9 l 2
 440 -135 328 -241 168 -242 c 0
 33 -243 -44 -169 -33 -34 c 1
53 239 m 0
 88 357 197 470 327 470 c 0
 457 470 481 342 449 238 c 0
 415 124 319 7 191 7 c 0
 61 7 21 131 53 239 c 0
232 237 m 0
 217 194 230 150 280 146 c 0
 332 142 388 194 404 240 c 0
 419 282 409 331 360 331 c 0
 299 331 249 284 232 237 c 0
EndSplineSet
EndChar

StartChar: f
Encoding: 102 102 42
Width: 342
VWidth: 0
Flags: HMW
LayerCount: 2
Fore
SplineSet
110 460 m 1
 440 460 l 1
 390 318 l 1
 60 318 l 1
 110 460 l 1
480 619 m 1
 472 630 462 643 446 644 c 0
 414 645 386 607 377 581 c 2
 174 0 l 1
 10 0 l 1
 224 631 l 2
 261 728 346 799 453 798 c 0
 505 798 542 775 579 741 c 1
 480 619 l 1
EndSplineSet
EndChar

StartChar: s
Encoding: 115 115 43
Width: 445
VWidth: 0
Flags: HMW
LayerCount: 2
Fore
SplineSet
88 179 m 1
 121 145 166 96 220 103 c 0
 236 105 263 117 267 134 c 0
 275 169 223 180 201 189 c 0
 138 215 97 268 116 338 c 0
 140 427 232 468 320 469 c 0
 390 470 452 442 508 407 c 1
 429 293 l 1
 400 323 367 354 321 354 c 0
 305 354 276 346 270 329 c 0
 257 293 329 280 350 271 c 0
 410 246 451 196 435 128 c 0
 411 31 324 -20 227 -22 c 0
 140 -24 64 13 -2 61 c 1
 88 179 l 1
EndSplineSet
EndChar

StartChar: y
Encoding: 121 121 44
Width: 516
VWidth: 0
Flags: HMW
LayerCount: 2
Fore
SplineSet
640 459 m 1
 124 -219 l 1
 -54 -219 l 1
 140 37 l 1
 93 460 l 1
 269 460 l 1
 283 87 l 1
 189 89 l 1
 458 459 l 1
 640 459 l 1
EndSplineSet
EndChar

StartChar: w
Encoding: 119 119 45
Width: 742
VWidth: 0
Flags: HMW
LayerCount: 2
Fore
SplineSet
95 460 m 1
 263 460 l 1
 271 254 l 1
 483 500 l 1
 523 252 l 1
 679 459 l 1
 865 459 l 1
 459 -30 l 1
 399 220 l 1
 163 -31 l 1
 95 460 l 1
EndSplineSet
EndChar

StartChar: v
Encoding: 118 118 46
Width: 523
VWidth: 0
Flags: HMW
LayerCount: 2
Fore
SplineSet
105 460 m 1
 282 460 l 1
 299 237 l 1
 458 459 l 1
 644 459 l 1
 213 -65 l 1
 105 460 l 1
EndSplineSet
EndChar

StartChar: x
Encoding: 120 120 47
Width: 537
VWidth: 0
Flags: HMW
LayerCount: 2
Fore
SplineSet
445 460 m 1
 645 460 l 1
 394 228 l 1
 500 0 l 1
 323 0 l 1
 272 125 l 1
 164 0 l 1
 -44 0 l 1
 216 253 l 1
 121 460 l 1
 304 460 l 1
 342 356 l 1
 445 460 l 1
EndSplineSet
EndChar

StartChar: z
Encoding: 122 122 48
Width: 510
VWidth: 0
Flags: HMW
LayerCount: 2
Fore
SplineSet
267 302 m 1
 103 302 l 1
 158 459 l 1
 610 459 l 1
 309 158 l 1
 467 158 l 1
 412 0 l 1
 -49 0 l 1
 267 302 l 1
EndSplineSet
EndChar

StartChar: j
Encoding: 106 106 49
Width: 262
VWidth: 0
Flags: HMW
LayerCount: 2
Fore
SplineSet
191 626 m 0
 191 680 235 717 291 717 c 0
 347 717 391 680 391 626 c 0
 391 572 347 534 291 534 c 0
 235 534 191 572 191 626 c 0
-122 -65 m 1
 -114 -76 -99 -90 -80 -90 c 0
 -49 -90 -25 -52 -17 -28 c 2
 152 460 l 1
 317 460 l 1
 135 -78 l 2
 98 -175 15 -245 -92 -244 c 0
 -144 -244 -183 -222 -220 -188 c 1
 -122 -65 l 1
EndSplineSet
EndChar

StartChar: P
Encoding: 80 80 50
Width: 610
VWidth: 0
Flags: HMW
LayerCount: 2
Fore
SplineSet
249 700 m 1
 443 700 l 1
 202 0 l 1
 10 0 l 1
 249 700 l 1
315 541 m 1
 369 700 l 1
 487 700 l 1
 629 696 717 615 688 464 c 0
 658 308 501 233 349 229 c 1
 207 229 l 1
 264 390 l 1
 382 390 l 1
 430 390 487 416 505 466 c 0
 521 511 495 539 452 540 c 2
 315 541 l 1
EndSplineSet
EndChar

StartChar: U
Encoding: 85 85 51
Width: 683
VWidth: 0
Flags: HMW
LayerCount: 2
Fore
SplineSet
245 700 m 1
 438 700 l 1
 280 247 l 2
 266 201 266 145 326 142 c 0
 391 139 439 195 460 248 c 1
 617 700 l 1
 810 700 l 1
 650 230 l 2
 594 73 461 -35 287 -35 c 0
 128 -35 39 76 85 230 c 1
 245 700 l 1
EndSplineSet
EndChar

StartChar: S
Encoding: 83 83 52
Width: 613
VWidth: 0
Flags: HMW
LayerCount: 2
Fore
SplineSet
184 260 m 1
 203 203 229 144 299 145 c 0
 334 145 379 163 394 198 c 0
 415 250 340 272 306 289 c 0
 216 332 157 412 187 514 c 0
 226 646 374 719 504 718 c 0
 610 717 680 659 711 561 c 1
 550 481 l 1
 533 519 514 552 467 552 c 0
 438 552 394 535 381 506 c 0
 359 456 462 433 492 419 c 0
 584 379 625 295 596 198 c 0
 553 57 407 -28 265 -27 c 0
 144 -26 55 50 28 165 c 1
 184 260 l 1
EndSplineSet
EndChar

StartChar: at
Encoding: 64 64 53
Width: 724
VWidth: 0
Flags: HMW
LayerCount: 2
Fore
SplineSet
368 319 m 0
 363 305 353 269 373 261 c 0
 409 247 459 336 469 362 c 0
 474 376 485 414 464 421 c 0
 427 435 378 345 368 319 c 0
236 312 m 0
 261 401 341 533 448 530 c 0
 531 528 539 431 522 369 c 0
 498 280 421 153 316 152 c 0
 225 151 216 243 236 312 c 0
65 320 m 0
 132 532 342 727 573 727 c 0
 766 727 844 556 793 390 c 0
 758 278 665 136 532 141 c 0
 454 144 446 198 450 262 c 1
 448 305 l 1
 538 520 l 1
 661 520 l 1
 573 314 l 2
 569 305 566 298 562 288 c 0
 559 279 552 257 565 251 c 0
 609 230 661 363 671 391 c 0
 708 494 694 614 557 614 c 0
 387 614 242 469 188 320 c 0
 143 198 178 85 322 82 c 0
 387 81 450 102 510 122 c 1
 519 18 l 1
 447 -13 368 -32 289 -31 c 0
 88 -28 8 140 65 320 c 0
EndSplineSet
EndChar

StartChar: period
Encoding: 46 46 54
Width: 310
VWidth: 0
Flags: HMW
LayerCount: 2
Fore
SplineSet
28 78 m 0
 28 136 72 183 136 183 c 0
 200 183 244 136 244 78 c 0
 244 20 200 -27 136 -27 c 0
 72 -27 28 20 28 78 c 0
EndSplineSet
EndChar

StartChar: comma
Encoding: 44 44 55
Width: 308
VWidth: 0
Flags: HMW
LayerCount: 2
Fore
SplineSet
81 108 m 1
 248 72 l 1
 41 -172 l 1
 -90 -145 l 1
 81 108 l 1
EndSplineSet
EndChar

StartChar: colon
Encoding: 58 58 56
Width: 310
VWidth: 0
Flags: HMW
LayerCount: 2
Fore
SplineSet
20 78 m 0
 20 136 64 183 128 183 c 0
 192 183 236 136 236 78 c 0
 236 20 192 -27 128 -27 c 0
 64 -27 20 20 20 78 c 0
146 449 m 0
 146 507 190 554 254 554 c 0
 318 554 363 507 363 449 c 0
 363 391 318 343 254 343 c 0
 190 343 146 391 146 449 c 0
EndSplineSet
EndChar

StartChar: semicolon
Encoding: 59 59 57
Width: 389
VWidth: 0
Flags: HMW
LayerCount: 2
Fore
SplineSet
200 440 m 0
 200 498 244 546 308 546 c 0
 372 546 416 498 416 440 c 0
 416 382 372 335 308 335 c 0
 244 335 200 382 200 440 c 0
109 108 m 1
 275 72 l 1
 68 -172 l 1
 -62 -145 l 1
 109 108 l 1
EndSplineSet
EndChar

StartChar: quotedbl
Encoding: 34 34 58
Width: 503
VWidth: 0
Flags: HMW
LayerCount: 2
Fore
SplineSet
268 700 m 1
 451 699 l 1
 245 376 l 1
 128 375 l 1
 268 700 l 1
478 700 m 1
 660 699 l 1
 453 376 l 1
 337 375 l 1
 478 700 l 1
EndSplineSet
EndChar

StartChar: exclam
Encoding: 33 33 59
Width: 337
VWidth: 0
Flags: HMW
LayerCount: 2
Fore
SplineSet
250 700 m 1
 459 700 l 1
 270 242 l 1
 125 242 l 1
 250 700 l 1
33 70 m 0
 33 128 77 166 141 166 c 0
 205 166 249 128 249 70 c 0
 249 12 205 -28 141 -28 c 0
 77 -28 33 12 33 70 c 0
EndSplineSet
EndChar

StartChar: quotesingle
Encoding: 39 39 60
Width: 295
VWidth: 0
Flags: HMW
LayerCount: 2
Fore
SplineSet
268 700 m 1
 451 699 l 1
 245 376 l 1
 128 375 l 1
 268 700 l 1
EndSplineSet
EndChar

StartChar: numbersign
Encoding: 35 35 61
Width: 647
VWidth: 0
Flags: HMW
LayerCount: 2
Fore
SplineSet
156 403 m 1
 200 543 l 1
 750 543 l 1
 701 402 l 1
 558 402 l 1
 529 410 l 1
 333 410 l 1
 301 402 l 1
 156 403 l 1
30 162 m 1
 80 303 l 1
 207 303 l 1
 240 295 l 1
 466 295 l 1
 500 303 l 1
 631 303 l 1
 581 162 l 1
 30 162 l 1
628 699 m 1
 786 699 l 1
 385 0 l 1
 231 0 l 1
 359 223 l 1
 383 250 l 1
 500 453 l 1
 511 491 l 1
 628 699 l 1
394 700 m 1
 548 699 l 1
 427 491 l 1
 398 453 l 1
 284 253 l 1
 276 225 l 1
 147 0 l 1
 -5 0 l 1
 394 700 l 1
EndSplineSet
EndChar

StartChar: hyphen
Encoding: 45 45 62
Width: 212
VWidth: 0
Flags: HMW
LayerCount: 2
Fore
SplineSet
2 162 m 1
 55 313 l 1
 266 313 l 1
 213 162 l 1
 2 162 l 1
EndSplineSet
EndChar

StartChar: dollar
Encoding: 36 36 63
Width: 597
VWidth: 0
Flags: HMW
LayerCount: 2
Fore
SplineSet
464 818 m 1
 603 818 l 1
 533 626 l 1
 410 626 l 1
 464 818 l 1
240 66 m 1
 361 66 l 1
 312 -112 l 1
 175 -112 l 1
 240 66 l 1
546 481 m 1
 533 521 517 569 467 569 c 0
 435 569 394 546 382 516 c 0
 358 456 456 436 493 420 c 0
 584 380 630 295 603 198 c 0
 564 56 413 -12 276 -10 c 0
 161 -8 76 60 38 165 c 1
 190 260 l 1
 211 203 239 144 309 145 c 0
 344 145 390 163 402 200 c 0
 420 252 343 274 309 290 c 0
 220 333 157 414 185 516 c 0
 219 641 364 709 485 710 c 0
 592 711 664 658 706 561 c 1
 546 481 l 1
EndSplineSet
EndChar

StartChar: bar
Encoding: 124 124 64
Width: 357
VWidth: 0
Flags: HMW
LayerCount: 2
Fore
SplineSet
299 785 m 1
 474 785 l 1
 166 -215 l 1
 -10 -215 l 1
 299 785 l 1
EndSplineSet
EndChar

StartChar: zero
Encoding: 48 48 65
Width: 642
VWidth: 0
Flags: HMW
LayerCount: 2
Fore
SplineSet
284 350 m 0
 266 301 221 160 310 155 c 0
 403 150 464 279 490 350 c 0
 508 399 553 540 464 545 c 0
 371 550 310 421 284 350 c 0
100 350 m 0
 156 526 298 714 500 714 c 0
 707 714 725 506 675 350 c 0
 619 172 477 -15 274 -14 c 0
 70 -13 50 195 100 350 c 0
EndSplineSet
Substitution2: "Tabular Numbers lookup" uniFF10
EndChar

StartChar: one
Encoding: 49 49 66
Width: 497
VWidth: 0
Flags: HMW
LayerCount: 2
Fore
SplineSet
162 473 m 1
 223 645 l 1
 602 717 l 1
 357 0 l 1
 171 0 l 1
 348 513 l 1
 162 473 l 1
EndSplineSet
Substitution2: "Tabular Numbers lookup" uniFF11
EndChar

StartChar: two
Encoding: 50 50 67
Width: 645
VWidth: 0
Flags: HMW
LayerCount: 2
Fore
SplineSet
-24 0 m 1
 360 313 l 2
 412 355 489 404 507 472 c 0
 517 509 503 544 462 546 c 0
 399 550 361 483 338 435 c 1
 149 436 l 1
 200 591 332 716 502 715 c 0
 630 715 745 621 708 484 c 0
 687 405 624 344 559 298 c 2
 390 182 l 1
 635 181 l 1
 579 0 l 1
 -24 0 l 1
EndSplineSet
Substitution2: "Tabular Numbers lookup" uniFF12
EndChar

StartChar: four
Encoding: 52 52 68
Width: 694
VWidth: 0
Flags: HMW
LayerCount: 2
Fore
SplineSet
-10 120 m 1
 576 699 l 1
 736 700 l 1
 496 0 l 1
 294 0 l 1
 354 175 l 1
 381 186 l 1
 463 417 l 1
 292 258 l 1
 523 258 l 1
 550 286 l 1
 699 286 l 1
 640 119 l 1
 -10 120 l 1
EndSplineSet
Substitution2: "Tabular Numbers lookup" uniFF14
EndChar

StartChar: slash
Encoding: 47 47 69
Width: 602
VWidth: 0
Flags: HMW
LayerCount: 2
Fore
SplineSet
608 699 m 1
 782 699 l 1
 82 -149 l 1
 -99 -149 l 1
 608 699 l 1
EndSplineSet
EndChar

StartChar: backslash
Encoding: 92 92 70
Width: 523
VWidth: 0
Flags: HMW
LayerCount: 2
Fore
SplineSet
201 700 m 1
 357 700 l 1
 454 0 l 1
 299 0 l 1
 201 700 l 1
EndSplineSet
EndChar

StartChar: eight
Encoding: 56 56 71
Width: 616
VWidth: 0
Flags: HMW
LayerCount: 2
Fore
SplineSet
196 532 m 0
 232 655 368 718 488 718 c 0
 597 718 711 654 675 530 c 0
 640 407 501 338 381 338 c 0
 271 338 161 410 196 532 c 0
368 511 m 0
 359 483 365 445 399 445 c 0
 443 445 480 482 491 514 c 0
 501 542 493 579 459 579 c 0
 414 579 379 543 368 511 c 0
56 191 m 0
 95 326 247 398 379 398 c 0
 498 398 622 324 583 189 c 0
 544 55 390 -18 259 -18 c 0
 140 -18 17 57 56 191 c 0
257 219 m 0
 244 185 253 142 295 142 c 0
 347 142 390 183 404 223 c 0
 415 256 402 296 363 296 c 0
 313 296 272 256 257 219 c 0
EndSplineSet
Substitution2: "Tabular Numbers lookup" uniFF18
EndChar

StartChar: nine
Encoding: 57 57 72
Width: 660
VWidth: 0
Flags: HMW
LayerCount: 2
Fore
SplineSet
532 450 m 0
 548 498 528 547 473 549 c 0
 415 551 356 501 338 448 c 0
 322 401 340 348 395 346 c 0
 453 344 514 397 532 450 c 0
322 5 m 1
 68 5 l 1
 359 242 l 1
 414 263 l 1
 378 240 341 222 297 222 c 0
 174 222 120 341 148 449 c 0
 189 608 345 718 507 718 c 0
 662 718 764 603 721 449 c 0
 697 364 634 296 572 237 c 2
 322 5 l 1
EndSplineSet
Substitution2: "Tabular Numbers lookup" uniFF19
EndChar

StartChar: three
Encoding: 51 51 73
Width: 608
VWidth: 0
Flags: HMW
LayerCount: 2
Fore
SplineSet
336 337 m 1
 358 419 l 1
 406 427 494 446 506 505 c 0
 512 535 494 557 464 558 c 0
 416 561 384 520 362 484 c 1
 184 486 l 1
 232 619 349 713 494 714 c 0
 608 715 731 647 696 516 c 0
 655 362 468 340 336 337 c 1
280 -18 m 0
 130 -16 52 93 74 236 c 1
 259 235 l 1
 254 187 258 142 317 138 c 0
 364 135 417 167 432 213 c 0
 456 285 376 295 325 300 c 1
 351 395 l 1
 474 391 657 358 614 193 c 0
 577 50 416 -20 280 -18 c 0
EndSplineSet
Substitution2: "Tabular Numbers lookup" uniFF13
EndChar

StartChar: five
Encoding: 53 53 74
Width: 632
VWidth: 0
Flags: HMW
LayerCount: 2
Fore
SplineSet
633 221 m 0
 592 72 437 -12 290 -14 c 0
 194 -15 105 14 26 59 c 1
 132 227 l 1
 175 194 221 168 279 167 c 0
 334 167 414 186 432 248 c 0
 448 305 388 321 344 322 c 0
 272 324 202 306 134 287 c 1
 349 700 l 1
 763 700 l 1
 709 528 l 1
 443 529 l 1
 366 424 l 1
 405 439 446 448 488 447 c 0
 612 443 663 331 633 221 c 0
EndSplineSet
Substitution2: "Tabular Numbers lookup" uniFF15
EndChar

StartChar: six
Encoding: 54 54 75
Width: 660
VWidth: 0
Flags: HMW
LayerCount: 2
Fore
SplineSet
276 250 m 0
 260 202 280 153 335 151 c 0
 393 149 453 199 471 252 c 0
 487 299 468 352 413 354 c 0
 355 356 294 303 276 250 c 0
486 695 m 1
 741 695 l 1
 449 458 l 1
 394 437 l 1
 430 460 467 478 511 478 c 0
 634 478 688 359 660 251 c 0
 619 92 463 -18 301 -18 c 0
 146 -18 44 97 87 251 c 0
 111 336 174 404 236 463 c 2
 486 695 l 1
EndSplineSet
Substitution2: "Tabular Numbers lookup" uniFF16
EndChar

StartChar: seven
Encoding: 55 55 76
Width: 592
VWidth: 0
Flags: HMW
LayerCount: 2
Fore
SplineSet
148 515 m 1
 207 699 l 1
 781 699 l 1
 245 0 l 1
 28 0 l 1
 436 514 l 1
 148 515 l 1
EndSplineSet
Substitution2: "Tabular Numbers lookup" uniFF17
EndChar

StartChar: plus
Encoding: 43 43 77
Width: 653
VWidth: 0
Flags: HMW
LayerCount: 2
Fore
SplineSet
68 190 m 1
 127 358 l 1
 665 358 l 1
 606 190 l 1
 68 190 l 1
374 555 m 1
 552 555 l 1
 358 -7 l 1
 181 -7 l 1
 374 555 l 1
EndSplineSet
EndChar

StartChar: equal
Encoding: 61 61 78
Width: 591
VWidth: 0
Flags: HMW
LayerCount: 2
Fore
SplineSet
14 64 m 1
 67 215 l 1
 567 215 l 1
 514 64 l 1
 14 64 l 1
90 290 m 1
 144 441 l 1
 644 441 l 1
 592 290 l 1
 90 290 l 1
EndSplineSet
EndChar

StartChar: percent
Encoding: 37 37 79
Width: 919
VWidth: 0
Flags: HMW
LayerCount: 2
Fore
SplineSet
140 530 m 0
 170 632 279 722 387 722 c 0
 493 722 551 625 523 528 c 0
 493 426 384 336 276 336 c 0
 170 336 112 433 140 530 c 0
278 526 m 0
 272 504 281 474 315 474 c 0
 343 474 378 506 385 532 c 0
 391 554 383 584 349 584 c 0
 321 584 285 552 278 526 c 0
529 173 m 0
 559 275 667 365 775 365 c 0
 881 365 938 268 910 171 c 0
 880 69 772 -21 664 -21 c 0
 558 -21 501 76 529 173 c 0
666 169 m 0
 659 147 673 117 699 117 c 0
 727 117 762 140 774 174 c 0
 781 196 767 227 741 227 c 0
 713 227 678 203 666 169 c 0
817 699 m 1
 1008 699 l 1
 234 0 l 1
 43 0 l 1
 817 699 l 1
EndSplineSet
EndChar

StartChar: ampersand
Encoding: 38 38 80
Width: 732
VWidth: 0
Flags: HMW
LayerCount: 2
Fore
SplineSet
292 367 m 2
 261 420 234 477 251 540 c 0
 280 651 409 719 517 719 c 0
 615 719 703 648 677 544 c 0
 651 439 536 380 448 335 c 0
 384 303 266 284 242 205 c 0
 229 162 257 137 297 133 c 0
 431 120 556 263 639 349 c 1
 730 256 l 1
 607 123 436 -16 245 -14 c 0
 129 -13 25 64 59 190 c 0
 98 334 252 371 373 421 c 0
 418 440 509 472 520 528 c 0
 524 551 513 580 479 580 c 0
 449 580 419 560 409 526 c 0
 394 477 430 428 452 391 c 2
 680 0 l 1
 501 0 l 1
 292 367 l 2
EndSplineSet
EndChar

StartChar: question
Encoding: 63 63 81
Width: 611
VWidth: 0
Flags: HMW
LayerCount: 2
Fore
SplineSet
513 501 m 0
 528 547 498 573 454 575 c 0
 385 579 320 530 270 488 c 1
 185 592 l 1
 273 663 377 723 493 722 c 0
 618 721 723 631 684 499 c 0
 648 377 528 313 414 283 c 1
 384 212 l 1
 238 212 l 1
 277 391 l 1
 307 391 l 1
 377 394 488 425 513 501 c 0
146 67 m 0
 146 119 194 157 250 157 c 0
 306 157 354 120 354 67 c 0
 354 13 306 -27 250 -27 c 0
 194 -27 146 12 146 67 c 0
EndSplineSet
EndChar

StartChar: parenleft
Encoding: 40 40 82
Width: 330
VWidth: 0
Flags: HMW
LayerCount: 2
Fore
SplineSet
370 779 m 1
 529 778 l 1
 426 625 331 467 275 290 c 0
 224 132 205 -36 231 -201 c 1
 82 -201 l 1
 50 -37 62 130 109 290 c 0
 162 469 255 633 370 779 c 1
EndSplineSet
EndChar

StartChar: parenright
Encoding: 41 41 83
Width: 330
VWidth: 0
Flags: HMW
LayerCount: 2
Fore
SplineSet
70 -199 m 1
 -87 -198 l 1
 16 -45 111 113 167 290 c 0
 218 448 236 616 210 781 c 1
 360 781 l 1
 392 617 379 450 332 290 c 0
 279 111 185 -53 70 -199 c 1
EndSplineSet
EndChar

StartChar: asterisk
Encoding: 42 42 84
Width: 557
VWidth: 0
Flags: HMW
LayerCount: 2
Fore
SplineSet
625 605 m 1
 624 448 l 1
 375 410 l 1
 376 492 l 1
 625 605 l 1
528 292 m 1
 371 196 l 1
 339 434 l 1
 408 475 l 1
 528 292 l 1
225 202 m 1
 124 305 l 1
 348 473 l 1
 403 423 l 1
 225 202 l 1
131 452 m 1
 225 603 l 1
 407 483 l 1
 360 412 l 1
 131 452 l 1
381 700 m 1
 546 699 l 1
 419 451 l 1
 341 450 l 1
 381 700 l 1
EndSplineSet
EndChar

StartChar: less
Encoding: 60 60 85
Width: 602
VWidth: 0
Flags: HMW
LayerCount: 2
Fore
SplineSet
329 261 m 1
 546 157 l 1
 488 -3 l 1
 75 210 l 1
 117 330 l 1
 677 543 l 1
 613 358 l 1
 329 261 l 1
EndSplineSet
EndChar

StartChar: greater
Encoding: 62 62 86
Width: 602
VWidth: 0
Flags: HMW
LayerCount: 2
Fore
SplineSet
347 271 m 1
 130 375 l 1
 187 535 l 1
 600 321 l 1
 558 202 l 1
 -1 -12 l 1
 62 174 l 1
 347 271 l 1
EndSplineSet
EndChar

StartChar: bracketleft
Encoding: 91 91 87
Width: 360
VWidth: 0
Flags: HMW
LayerCount: 2
Fore
SplineSet
411 629 m 1
 196 -69 l 1
 291 -69 l 1
 243 -220 l 1
 -23 -220 l 1
 286 780 l 1
 552 780 l 1
 505 629 l 1
 411 629 l 1
EndSplineSet
EndChar

StartChar: bracketright
Encoding: 93 93 88
Width: 360
VWidth: 0
Flags: HMW
LayerCount: 2
Fore
SplineSet
56 -69 m 1
 270 629 l 1
 174 629 l 1
 222 780 l 1
 489 780 l 1
 180 -220 l 1
 -87 -220 l 1
 -40 -69 l 1
 56 -69 l 1
EndSplineSet
EndChar

StartChar: asciicircum
Encoding: 94 94 89
Width: 479
VWidth: 0
Flags: HMW
LayerCount: 2
Fore
SplineSet
384 560 m 1
 280 444 l 1
 118 444 l 1
 370 709 l 1
 475 710 l 1
 544 443 l 1
 404 443 l 1
 384 560 l 1
EndSplineSet
EndChar

StartChar: underscore
Encoding: 95 95 90
Width: 509
VWidth: 0
Flags: HMW
LayerCount: 2
Fore
SplineSet
-113 -161 m 1
 -74 -50 l 1
 442 -50 l 1
 403 -161 l 1
 -113 -161 l 1
EndSplineSet
EndChar

StartChar: grave
Encoding: 96 96 91
Width: 352
VWidth: 0
Flags: HMW
LayerCount: 2
Fore
SplineSet
210 657 m 1
 342 709 l 1
 440 543 l 1
 340 502 l 1
 210 657 l 1
EndSplineSet
EndChar

StartChar: braceleft
Encoding: 123 123 92
Width: 402
VWidth: 0
Flags: HMW
LayerCount: 2
Fore
SplineSet
431 592 m 2
 400 489 l 2
 363 374 308 299 184 281 c 1
 189 301 l 1
 306 279 302 188 272 89 c 2
 240 -13 l 2
 231 -41 237 -61 266 -62 c 2
 304 -63 l 1
 263 -199 l 1
 175 -200 l 2
 92 -197 11 -151 39 -60 c 2
 93 116 l 2
 108 167 111 197 65 226 c 1
 101 353 l 1
 153 376 178 411 197 465 c 2
 250 641 l 2
 279 732 366 776 457 780 c 1
 566 780 l 1
 525 644 l 1
 494 644 l 2
 464 644 440 622 431 592 c 2
EndSplineSet
EndChar

StartChar: braceright
Encoding: 125 125 93
Width: 402
VWidth: 0
Flags: HMW
LayerCount: 2
Fore
SplineSet
84 -13 m 2
 116 91 l 2
 153 206 207 281 331 299 c 1
 327 279 l 1
 210 301 212 392 242 491 c 2
 275 594 l 2
 284 621 276 641 248 642 c 2
 212 642 l 1
 252 780 l 1
 341 780 l 2
 424 777 504 731 476 640 c 2
 422 464 l 2
 407 413 404 383 450 354 c 1
 414 227 l 1
 362 204 337 169 318 115 c 2
 265 -61 l 2
 237 -153 149 -196 58 -200 c 1
 -51 -200 l 1
 -11 -64 l 1
 20 -64 l 2
 50 -64 75 -43 84 -13 c 2
EndSplineSet
EndChar

StartChar: asciitilde
Encoding: 126 126 94
Width: 541
VWidth: 0
Flags: HMW
LayerCount: 2
Fore
SplineSet
172 158 m 1
 42 164 l 1
 42 172 42 181 44 189 c 0
 52 227 75 264 102 292 c 0
 140 330 193 354 247 352 c 0
 288 351 323 328 353 302 c 0
 366 291 386 268 406 268 c 0
 423 268 442 291 448 305 c 0
 453 317 453 329 453 341 c 1
 583 335 l 1
 583 325 583 315 581 306 c 0
 573 268 552 229 525 201 c 0
 493 168 445 146 399 147 c 0
 357 148 324 172 292 198 c 0
 275 212 253 234 229 232 c 0
 206 230 183 209 175 189 c 0
 170 179 172 169 172 158 c 1
EndSplineSet
EndChar

StartChar: exclamdown
Encoding: 161 161 95
Width: 337
VWidth: 0
Flags: HMW
LayerCount: 2
Fore
SplineSet
142 -224 m 1
 -69 -224 l 1
 123 234 l 1
 265 234 l 1
 142 -224 l 1
357 404 m 0
 342 350 283 310 228 310 c 0
 173 310 135 352 150 408 c 0
 165 462 224 503 279 503 c 0
 334 503 372 460 357 404 c 0
EndSplineSet
EndChar

StartChar: cent
Encoding: 162 162 96
Width: 545
VWidth: 0
Flags: HMW
LayerCount: 2
Fore
SplineSet
164 38 m 1
 290 38 l 1
 248 -112 l 1
 98 -112 l 1
 164 38 l 1
233 229 m 0
 214 178 236 131 293 128 c 0
 347 125 397 160 439 189 c 1
 390 24 l 1
 345 3 299 -10 249 -10 c 0
 112 -9 17 93 58 231 c 0
 101 374 246 469 392 470 c 0
 440 470 482 458 524 436 c 1
 475 269 l 1
 453 306 427 333 381 333 c 0
 321 333 254 285 233 229 c 0
338 578 m 1
 487 578 l 1
 423 428 l 1
 297 428 l 1
 338 578 l 1
EndSplineSet
EndChar

StartChar: sterling
Encoding: 163 163 97
Width: 584
VWidth: 0
Flags: HMW
LayerCount: 2
Fore
SplineSet
133 370 m 1
 502 370 l 1
 462 261 l 1
 94 261 l 1
 133 370 l 1
512 463 m 1
 518 506 520 556 464 558 c 0
 419 560 374 525 357 485 c 0
 327 415 391 345 370 272 c 0
 336 154 199 85 91 54 c 1
 186 159 l 1
 519 160 l 1
 463 0 l 1
 -10 0 l 1
 76 89 181 177 216 300 c 0
 239 379 169 444 190 523 c 0
 223 645 370 709 487 709 c 0
 603 709 690 638 681 520 c 1
 512 463 l 1
EndSplineSet
EndChar

StartChar: currency
Encoding: 164 164 98
Width: 541
VWidth: 0
Flags: HMW
LayerCount: 2
Fore
SplineSet
133 507 m 1
 216 570 l 1
 281 458 l 1
 205 402 l 1
 133 507 l 1
44 30 m 1
 -3 107 l 1
 122 199 l 1
 169 128 l 1
 44 30 l 1
520 402 m 1
 471 477 l 1
 598 570 l 1
 644 498 l 1
 520 402 l 1
355 136 m 1
 437 199 l 1
 503 87 l 1
 427 31 l 1
 355 136 l 1
92 301 m 0
 129 427 254 540 390 540 c 0
 523 540 581 417 546 299 c 0
 509 173 385 60 249 60 c 0
 116 60 57 183 92 301 c 0
243 298 m 0
 229 262 241 222 284 220 c 0
 330 217 381 261 396 302 c 0
 410 338 397 378 354 380 c 0
 308 383 258 339 243 298 c 0
EndSplineSet
EndChar

StartChar: yen
Encoding: 165 165 99
Width: 658
VWidth: 0
Flags: HMW
LayerCount: 2
Fore
SplineSet
72 256 m 1
 110 365 l 1
 688 365 l 1
 650 256 l 1
 72 256 l 1
21 106 m 1
 59 215 l 1
 637 215 l 1
 599 106 l 1
 21 106 l 1
621 699 m 1
 852 699 l 1
 467 271 l 1
 374 0 l 1
 175 0 l 1
 275 289 l 1
 186 700 l 1
 397 700 l 1
 427 465 l 1
 621 699 l 1
EndSplineSet
EndChar

StartChar: brokenbar
Encoding: 166 166 100
Width: 357
VWidth: 0
Flags: HMW
LayerCount: 2
Fore
SplineSet
275 695 m 1
 451 695 l 1
 355 421 l 1
 180 421 l 1
 275 695 l 1
309 279 m 1
 213 5 l 1
 37 5 l 1
 133 279 l 1
 309 279 l 1
EndSplineSet
EndChar

StartChar: section
Encoding: 167 167 101
Width: 597
VWidth: 0
Flags: HMW
LayerCount: 2
Fore
SplineSet
545 540 m 1
 521 563 494 587 459 586 c 0
 444 586 404 576 401 558 c 0
 397 533 457 529 472 524 c 0
 537 505 584 449 564 379 c 0
 531 264 398 233 294 227 c 1
 308 269 l 1
 343 282 388 299 401 338 c 0
 421 393 355 410 318 428 c 0
 260 457 228 511 246 576 c 0
 274 674 382 726 477 727 c 0
 546 728 604 704 648 654 c 1
 545 540 l 1
128 176 m 1
 164 144 206 113 259 116 c 0
 276 117 315 124 320 144 c 0
 328 173 270 179 253 186 c 0
 189 205 123 251 143 327 c 0
 174 443 317 472 419 478 c 1
 406 437 l 1
 372 424 325 407 312 368 c 0
 293 311 370 301 406 284 c 0
 467 255 504 196 484 129 c 0
 455 28 339 -25 241 -27 c 0
 155 -29 83 5 25 62 c 1
 128 176 l 1
EndSplineSet
EndChar

StartChar: dieresis
Encoding: 168 168 102
Width: 494
VWidth: 0
Flags: HMW
LayerCount: 2
Fore
SplineSet
430 624 m 0
 442 672 498 712 548 712 c 0
 598 712 635 670 622 620 c 0
 610 572 555 532 505 532 c 0
 455 532 417 574 430 624 c 0
186 624 m 0
 198 672 254 712 304 712 c 0
 354 712 392 670 379 620 c 0
 367 572 312 532 262 532 c 0
 211 532 173 574 186 624 c 0
EndSplineSet
EndChar

StartChar: copyright
Encoding: 169 169 103
Width: 752
VWidth: 0
Flags: HMW
LayerCount: 2
Fore
SplineSet
363 349 m 0
 344 294 370 246 430 243 c 0
 480 241 526 269 566 294 c 1
 534 170 l 1
 494 148 451 131 404 130 c 0
 278 129 203 231 236 351 c 0
 270 476 391 571 521 571 c 0
 566 571 603 555 640 529 c 1
 608 405 l 1
 583 436 556 458 513 458 c 0
 449 458 384 409 363 349 c 0
166 350 m 0
 118 207 175 43 345 41 c 0
 521 39 680 190 734 350 c 0
 782 493 725 657 555 659 c 0
 379 661 220 510 166 350 c 0
108 350 m 0
 161 541 346 711 550 710 c 0
 748 709 841 528 792 350 c 0
 739 159 553 -11 349 -10 c 0
 151 -9 59 172 108 350 c 0
EndSplineSet
EndChar

StartChar: registered
Encoding: 174 174 104
Width: 752
VWidth: 0
Flags: HMW
LayerCount: 2
Fore
SplineSet
428 318 m 1
 524 318 l 1
 575 150 l 1
 448 150 l 1
 428 318 l 1
371 570 m 1
 488 570 l 1
 358 150 l 1
 240 150 l 1
 371 570 l 1
414 470 m 1
 443 569 l 1
 521 570 l 1
 599 567 674 525 652 436 c 0
 630 346 542 301 455 297 c 1
 356 296 l 1
 386 386 l 1
 457 386 l 1
 482 388 522 403 530 431 c 0
 537 456 515 468 495 470 c 1
 414 470 l 1
166 350 m 0
 118 207 175 43 345 41 c 0
 521 39 680 190 734 350 c 0
 782 493 725 657 555 659 c 0
 379 661 220 510 166 350 c 0
108 350 m 0
 161 541 346 711 550 710 c 0
 748 709 841 528 792 350 c 0
 739 159 553 -11 349 -10 c 0
 151 -9 59 172 108 350 c 0
EndSplineSet
EndChar

StartChar: ordfeminine
Encoding: 170 170 105
Width: 263
VWidth: 0
Flags: HMW
LayerCount: 2
Fore
SplineSet
226 527 m 0
 224 518 231 510 240 510 c 0
 268 510 286 535 302 553 c 1
 300 522 l 1
 277 486 249 456 203 456 c 0
 162 456 127 485 139 529 c 0
 152 575 210 598 253 599 c 0
 282 600 304 590 328 576 c 1
 315 538 l 1
 302 546 289 556 272 555 c 0
 258 555 230 543 226 527 c 0
221 616 m 1
 212 682 l 1
 246 693 281 705 318 705 c 0
 365 705 416 684 407 628 c 1
 351 460 l 1
 266 461 l 1
 320 602 l 1
 318 618 320 629 301 634 c 0
 276 640 244 624 221 616 c 1
EndSplineSet
EndChar

StartChar: ordmasculine
Encoding: 186 186 106
Width: 261
VWidth: 0
Flags: HMW
LayerCount: 2
Fore
SplineSet
158 582 m 0
 177 650 250 699 320 699 c 0
 389 699 439 647 419 578 c 0
 400 509 326 461 256 461 c 0
 187 461 138 513 158 582 c 0
246 578 m 0
 240 561 244 535 266 533 c 0
 290 531 324 561 331 582 c 0
 337 599 333 626 311 628 c 0
 287 630 253 599 246 578 c 0
EndSplineSet
EndChar

StartChar: guillemotleft
Encoding: 171 171 107
Width: 518
VWidth: 0
Flags: HMW
LayerCount: 2
Fore
SplineSet
385 251 m 1
 460 58 l 1
 339 -8 l 1
 261 265 l 1
 505 514 l 1
 593 437 l 1
 385 251 l 1
179 251 m 1
 254 58 l 1
 133 -8 l 1
 55 265 l 1
 299 514 l 1
 386 437 l 1
 179 251 l 1
EndSplineSet
EndChar

StartChar: guillemotright
Encoding: 187 187 108
Width: 518
VWidth: 0
Flags: HMW
LayerCount: 2
Fore
SplineSet
200 259 m 1
 125 452 l 1
 246 518 l 1
 324 245 l 1
 81 -4 l 1
 -8 73 l 1
 200 259 l 1
407 259 m 1
 331 452 l 1
 452 518 l 1
 531 245 l 1
 286 -4 l 1
 198 73 l 1
 407 259 l 1
EndSplineSet
EndChar

StartChar: uni00AD
Encoding: 173 173 109
Width: 197
VWidth: 0
Flags: HMW
LayerCount: 2
Fore
SplineSet
21 201 m 1
 44 275 l 1
 238 275 l 1
 214 201 l 1
 21 201 l 1
EndSplineSet
EndChar

StartChar: logicalnot
Encoding: 172 172 110
Width: 621
VWidth: 0
Flags: HMW
LayerCount: 2
Fore
SplineSet
98 263 m 1
 146 413 l 1
 652 413 l 1
 569 175 l 1
 453 175 l 1
 490 263 l 1
 98 263 l 1
EndSplineSet
EndChar

StartChar: macron
Encoding: 175 175 111
Width: 506
VWidth: 0
Flags: HMW
LayerCount: 2
Fore
SplineSet
211 562 m 1
 258 713 l 1
 621 713 l 1
 574 562 l 1
 211 562 l 1
EndSplineSet
EndChar

StartChar: degree
Encoding: 176 176 112
Width: 284
VWidth: 0
Flags: HMW
LayerCount: 2
Fore
SplineSet
161 597 m 0
 180 665 254 719 324 719 c 0
 394 719 442 663 422 594 c 0
 403 525 329 472 258 472 c 0
 188 472 141 529 161 597 c 0
245 594 m 0
 239 576 245 549 268 547 c 0
 294 545 330 575 338 597 c 0
 344 615 337 644 314 646 c 0
 288 648 253 616 245 594 c 0
EndSplineSet
EndChar

StartChar: plusminus
Encoding: 177 177 113
Width: 601
VWidth: 0
Flags: HMW
LayerCount: 2
Fore
SplineSet
26 9 m 1
 73 156 l 1
 559 156 l 1
 512 9 l 1
 26 9 l 1
125 328 m 1
 174 484 l 1
 660 484 l 1
 610 328 l 1
 125 328 l 1
372 620 m 1
 546 620 l 1
 412 192 l 1
 239 192 l 1
 372 620 l 1
EndSplineSet
EndChar

StartChar: uni00B2
Encoding: 178 178 114
Width: 403
VWidth: 0
Flags: HMW
LayerCount: 2
Fore
SplineSet
56 283 m 1
 294 470 l 2
 326 494 378 524 389 566 c 0
 394 585 389 607 367 609 c 0
 330 613 305 569 289 543 c 1
 172 545 l 1
 209 635 283 711 386 711 c 0
 464 711 534 654 510 572 c 0
 497 525 458 489 420 462 c 2
 317 392 l 1
 461 390 l 1
 423 282 l 1
 56 283 l 1
EndSplineSet
EndChar

StartChar: uni00B3
Encoding: 179 179 115
Width: 359
VWidth: 0
Flags: HMW
LayerCount: 2
Fore
SplineSet
260 483 m 1
 275 531 l 1
 306 537 357 548 367 584 c 0
 371 600 361 614 345 614 c 0
 317 614 298 591 282 572 c 1
 171 574 l 1
 206 650 270 706 358 708 c 0
 426 709 503 668 480 589 c 0
 453 498 339 487 260 483 c 1
224 269 m 0
 131 271 89 334 99 421 c 1
 210 421 l 1
 210 395 207 367 241 363 c 0
 266 360 305 386 313 410 c 0
 327 452 276 456 248 461 c 1
 267 516 l 1
 340 512 454 494 426 394 c 0
 403 310 304 267 224 269 c 0
EndSplineSet
EndChar

StartChar: acute
Encoding: 180 180 116
Width: 352
VWidth: 0
Flags: HMW
LayerCount: 2
Fore
SplineSet
475 646 m 1
 265 503 l 1
 174 555 l 1
 359 708 l 1
 475 646 l 1
EndSplineSet
EndChar

StartChar: mu
Encoding: 181 181 117
Width: 556
VWidth: 0
Flags: HMW
LayerCount: 2
Fore
SplineSet
282 0 m 1
 441 460 l 1
 613 460 l 1
 455 0 l 1
 282 0 l 1
232 180 m 1
 225 154 215 115 252 108 c 0
 293 101 326 151 345 179 c 1
 377 187 l 1
 341 90 274 -9 159 -11 c 0
 51 -13 24 69 50 161 c 1
 151 460 l 1
 331 460 l 1
 232 180 l 1
151 460 m 1
 316 460 l 1
 48 -320 l 1
 -116 -320 l 1
 151 460 l 1
EndSplineSet
EndChar

StartChar: paragraph
Encoding: 182 182 118
Width: 661
VWidth: 0
Flags: HMW
LayerCount: 2
Fore
SplineSet
417 597 m 1
 453 700 l 1
 687 700 l 1
 651 597 l 1
 417 597 l 1
644 700 m 1
 794 700 l 1
 480 -220 l 1
 328 -220 l 1
 644 700 l 1
453 700 m 1
 605 700 l 1
 289 -220 l 1
 138 -220 l 1
 453 700 l 1
316 271 m 1
 197 284 128 366 165 486 c 0
 205 618 322 700 453 700 c 1
 316 271 l 1
EndSplineSet
EndChar

StartChar: periodcentered
Encoding: 183 183 119
Width: 310
VWidth: 0
Flags: HMW
LayerCount: 2
Fore
SplineSet
92 280 m 0
 107 334 167 382 224 382 c 0
 282 382 316 330 301 276 c 0
 286 222 225 173 168 173 c 0
 110 173 77 226 92 280 c 0
EndSplineSet
EndChar

StartChar: uni00B9
Encoding: 185 185 120
Width: 457
VWidth: 0
Flags: HMW
LayerCount: 2
Fore
SplineSet
252 556 m 1
 288 661 l 1
 519 705 l 1
 371 274 l 1
 256 274 l 1
 362 580 l 1
 252 556 l 1
EndSplineSet
EndChar

StartChar: cedilla
Encoding: 184 184 121
Width: 384
VWidth: 0
Flags: HMW
LayerCount: 2
Fore
SplineSet
132 74 m 1
 267 69 l 1
 125 -56 l 1
 137 -53 151 -50 163 -51 c 0
 219 -55 245 -106 230 -158 c 0
 210 -227 135 -267 68 -270 c 0
 13 -273 -36 -254 -83 -227 c 1
 -17 -154 l 1
 5 -167 28 -180 56 -179 c 0
 74 -178 124 -164 127 -141 c 0
 130 -120 98 -115 85 -114 c 0
 53 -112 20 -120 -12 -126 c 1
 132 74 l 1
EndSplineSet
EndChar

StartChar: questiondown
Encoding: 191 191 122
Width: 611
VWidth: 0
Flags: HMW
LayerCount: 2
Fore
SplineSet
230 199 m 0
 215 153 246 127 290 125 c 0
 359 121 423 170 473 212 c 1
 559 108 l 1
 471 37 366 -23 250 -22 c 0
 125 -21 21 69 60 201 c 0
 96 323 215 387 329 417 c 1
 359 488 l 1
 506 488 l 1
 466 309 l 1
 437 309 l 1
 367 306 255 275 230 199 c 0
589 632 m 0
 575 581 512 543 461 543 c 0
 409 543 367 583 381 636 c 0
 395 687 457 727 508 727 c 0
 560 727 603 685 589 632 c 0
EndSplineSet
EndChar

StartChar: multiply
Encoding: 215 215 123
Width: 560
VWidth: 0
Flags: HMW
LayerCount: 2
Fore
SplineSet
88 -4 m 1
 19 113 l 1
 218 263 l 1
 122 415 l 1
 252 515 l 1
 341 360 l 1
 538 514 l 1
 608 397 l 1
 408 247 l 1
 504 95 l 1
 374 -5 l 1
 286 150 l 1
 88 -4 l 1
EndSplineSet
EndChar

StartChar: Oslash
Encoding: 216 216 124
Width: 743
VWidth: 0
Flags: HMW
LayerCount: 2
Fore
SplineSet
295 350 m 0
 264 268 275 165 382 163 c 0
 491 160 582 255 619 350 c 0
 650 432 639 535 532 537 c 0
 423 540 332 445 295 350 c 0
92 350 m 0
 156 553 354 720 571 719 c 0
 779 718 881 539 822 350 c 0
 758 147 557 -28 339 -27 c 0
 128 -26 33 161 92 350 c 0
854 758 m 1
 916 693 l 1
 52 -58 l 1
 -8 -1 l 1
 854 758 l 1
EndSplineSet
EndChar

StartChar: Thorn
Encoding: 222 222 125
Width: 595
VWidth: 0
Flags: HMW
LayerCount: 2
Fore
SplineSet
257 700 m 1
 423 700 l 1
 183 0 l 1
 18 0 l 1
 257 700 l 1
268 434 m 1
 322 586 l 1
 440 586 l 0
 580 582 689 504 643 353 c 0
 597 201 455 127 305 123 c 0
 162 123 l 1
 217 275 l 1
 335 275 l 1
 392 277 454 297 476 355 c 0
 497 411 458 430 409 433 c 1
 268 434 l 1
EndSplineSet
EndChar

StartChar: divide
Encoding: 247 247 126
Width: 606
VWidth: 0
Flags: HMW
LayerCount: 2
Fore
SplineSet
347 591 m 0
 362 645 421 694 478 694 c 0
 536 694 569 641 554 587 c 0
 539 533 480 484 423 484 c 0
 365 484 332 537 347 591 c 0
182 110 m 0
 197 164 257 212 314 212 c 0
 372 212 405 160 390 106 c 0
 375 52 315 3 258 3 c 0
 200 3 167 56 182 110 c 0
48 271 m 1
 102 427 l 1
 690 427 l 1
 636 271 l 1
 48 271 l 1
EndSplineSet
EndChar

StartChar: oslash
Encoding: 248 248 127
Width: 513
VWidth: 0
Flags: HMW
LayerCount: 2
Fore
SplineSet
50 231 m 0
 93 372 234 470 380 470 c 0
 519 470 609 366 568 229 c 0
 525 88 384 -10 238 -10 c 0
 99 -10 9 94 50 231 c 0
210 229 m 0
 192 181 206 127 264 125 c 0
 325 122 389 176 409 231 c 0
 426 277 410 332 354 335 c 0
 295 338 231 282 210 229 c 0
543 507 m 1
 601 464 l 1
 60 -51 l 1
 6 -12 l 1
 543 507 l 1
EndSplineSet
EndChar

StartChar: circumflex
Encoding: 710 710 128
Width: 451
VWidth: 0
Flags: HMW
LayerCount: 2
Fore
SplineSet
392 621 m 1
 285 542 l 1
 186 630 l 1
 423 764 l 1
 582 618 l 1
 444 540 l 1
 392 621 l 1
EndSplineSet
EndChar

StartChar: ogonek
Encoding: 731 731 129
Width: 244
VWidth: 0
Flags: HMW
LayerCount: 2
Fore
SplineSet
114 -104 m 1
 126 -183 l 1
 94 -205 59 -221 20 -220 c 0
 -37 -218 -80 -177 -67 -118 c 0
 -50 -41 42 -5 105 25 c 1
 145 0 l 1
 111 -24 56 -49 44 -92 c 0
 41 -105 42 -120 58 -123 c 0
 75 -126 100 -111 114 -104 c 1
EndSplineSet
EndChar

StartChar: tilde
Encoding: 732 732 130
Width: 498
VWidth: 0
Flags: HMW
LayerCount: 2
Fore
SplineSet
223 645 m 1
 255 692 302 743 364 740 c 0
 409 738 436 686 481 689 c 0
 515 691 541 721 564 742 c 1
 622 653 l 1
 584 611 528 563 467 568 c 0
 422 572 392 627 346 620 c 0
 317 615 301 592 285 571 c 1
 223 645 l 1
EndSplineSet
EndChar

StartChar: ring
Encoding: 730 730 131
Width: 323
VWidth: 0
Flags: HMW
LayerCount: 2
Fore
SplineSet
241 766 m 0
 260 832 332 884 400 884 c 0
 468 884 516 829 497 762 c 0
 478 695 405 644 336 644 c 0
 268 644 222 699 241 766 c 0
326 762 m 0
 321 746 327 722 346 720 c 0
 368 718 404 747 411 766 c 0
 416 782 409 807 390 809 c 0
 368 811 333 781 326 762 c 0
EndSplineSet
EndChar

StartChar: dotaccent
Encoding: 729 729 132
Width: 282
VWidth: 0
Flags: HMW
LayerCount: 2
Fore
SplineSet
271 824 m 0
 285 872 341 911 391 911 c 0
 441 911 477 868 463 818 c 0
 449 770 394 731 344 731 c 0
 294 731 257 774 271 824 c 0
EndSplineSet
EndChar

StartChar: uni2010
Encoding: 8208 8208 133
Width: 212
VWidth: 0
Flags: HMW
LayerCount: 2
Fore
SplineSet
2 162 m 1
 55 313 l 1
 266 313 l 1
 213 162 l 1
 2 162 l 1
EndSplineSet
EndChar

StartChar: endash
Encoding: 8211 8211 134
Width: 751
VWidth: 0
Flags: HMW
LayerCount: 2
Fore
SplineSet
63 162 m 1
 116 313 l 1
 735 313 l 1
 682 162 l 1
 63 162 l 1
EndSplineSet
EndChar

StartChar: figuredash
Encoding: 8210 8210 135
Width: 602
VWidth: 0
Flags: HMW
LayerCount: 2
Fore
SplineSet
63 162 m 1
 116 313 l 1
 582 313 l 1
 529 162 l 1
 63 162 l 1
EndSplineSet
EndChar

StartChar: emdash
Encoding: 8212 8212 136
Width: 899
VWidth: 0
Flags: HMW
LayerCount: 2
Fore
SplineSet
63 162 m 1
 116 313 l 1
 888 313 l 1
 834 162 l 1
 63 162 l 1
EndSplineSet
EndChar

StartChar: minus
Encoding: 8722 8722 137
Width: 558
VWidth: 0
Flags: HMW
LayerCount: 2
Fore
SplineSet
47 162 m 1
 100 313 l 1
 566 313 l 1
 513 162 l 1
 47 162 l 1
EndSplineSet
EndChar

StartChar: quoteright
Encoding: 8217 8217 138
Width: 329
VWidth: 0
Flags: HMW
LayerCount: 2
Fore
SplineSet
276 700 m 1
 457 699 l 1
 267 437 l 1
 136 437 l 1
 276 700 l 1
EndSplineSet
EndChar

StartChar: quoteleft
Encoding: 8216 8216 139
Width: 329
VWidth: 0
Flags: HMW
LayerCount: 2
Fore
SplineSet
333 436 m 1
 153 437 l 1
 343 699 l 1
 474 699 l 1
 333 436 l 1
EndSplineSet
EndChar

StartChar: quotesinglbase
Encoding: 8218 8218 140
Width: 329
VWidth: 0
Flags: HMW
LayerCount: 2
Fore
SplineSet
74 80 m 1
 254 79 l 1
 64 -183 l 1
 -66 -183 l 1
 74 80 l 1
EndSplineSet
EndChar

StartChar: quotedblleft
Encoding: 8220 8220 141
Width: 556
VWidth: 0
Flags: HMW
LayerCount: 2
Fore
SplineSet
333 436 m 1
 153 437 l 1
 343 699 l 1
 474 699 l 1
 333 436 l 1
561 436 m 1
 380 437 l 1
 570 699 l 1
 701 699 l 1
 561 436 l 1
EndSplineSet
EndChar

StartChar: quotedblright
Encoding: 8221 8221 142
Width: 556
VWidth: 0
Flags: HMW
LayerCount: 2
Fore
SplineSet
276 700 m 1
 457 699 l 1
 267 437 l 1
 136 437 l 1
 276 700 l 1
504 700 m 1
 685 699 l 1
 495 437 l 1
 364 437 l 1
 504 700 l 1
EndSplineSet
EndChar

StartChar: perthousand
Encoding: 8240 8240 143
Width: 1372
VWidth: 0
Flags: HMW
LayerCount: 2
Fore
SplineSet
981 173 m 0
 1011 275 1120 365 1228 365 c 0
 1334 365 1392 268 1364 171 c 0
 1334 69 1225 -21 1117 -21 c 0
 1011 -21 953 76 981 173 c 0
1119 169 m 0
 1113 147 1121 120 1147 117 c 0
 1175 114 1219 148 1226 174 c 0
 1232 196 1224 224 1198 227 c 0
 1170 230 1126 195 1119 169 c 0
140 530 m 0
 170 632 279 722 387 722 c 0
 493 722 551 625 523 528 c 0
 493 426 384 336 276 336 c 0
 170 336 112 433 140 530 c 0
278 526 m 0
 272 504 281 477 307 474 c 0
 335 471 378 506 385 532 c 0
 391 554 383 581 357 584 c 0
 329 587 285 552 278 526 c 0
529 173 m 0
 559 275 667 365 775 365 c 0
 881 365 938 268 910 171 c 0
 880 69 772 -21 664 -21 c 0
 558 -21 501 76 529 173 c 0
666 169 m 0
 660 147 669 120 695 117 c 0
 723 114 767 148 774 174 c 0
 780 196 771 224 745 227 c 0
 717 230 673 195 666 169 c 0
817 699 m 1
 1008 699 l 1
 234 0 l 1
 43 0 l 1
 817 699 l 1
EndSplineSet
EndChar

StartChar: guilsinglleft
Encoding: 8249 8249 144
Width: 329
VWidth: 0
Flags: HMW
LayerCount: 2
Fore
SplineSet
179 251 m 1
 254 58 l 1
 133 -8 l 1
 55 265 l 1
 299 514 l 1
 386 437 l 1
 179 251 l 1
EndSplineSet
EndChar

StartChar: guilsinglright
Encoding: 8250 8250 145
Width: 329
VWidth: 0
Flags: HMW
LayerCount: 2
Fore
SplineSet
216 259 m 1
 141 452 l 1
 262 518 l 1
 340 245 l 1
 96 -4 l 1
 8 73 l 1
 216 259 l 1
EndSplineSet
EndChar

StartChar: uni2031
Encoding: 8241 8241 146
Width: 1825
VWidth: 0
Flags: HMW
LayerCount: 2
Fore
SplineSet
1434 173 m 0
 1464 275 1573 365 1681 365 c 0
 1787 365 1844 268 1816 171 c 0
 1786 69 1678 -21 1570 -21 c 0
 1464 -21 1406 76 1434 173 c 0
1572 169 m 0
 1566 147 1574 120 1600 117 c 0
 1628 114 1672 148 1679 174 c 0
 1685 196 1677 224 1651 227 c 0
 1623 230 1579 195 1572 169 c 0
981 173 m 0
 1011 275 1120 365 1228 365 c 0
 1334 365 1392 268 1364 171 c 0
 1334 69 1225 -21 1117 -21 c 0
 1011 -21 953 76 981 173 c 0
1119 169 m 0
 1113 147 1121 120 1147 117 c 0
 1175 114 1219 148 1226 174 c 0
 1232 196 1224 224 1198 227 c 0
 1170 230 1126 195 1119 169 c 0
140 530 m 0
 170 632 279 722 387 722 c 0
 493 722 551 625 523 528 c 0
 493 426 384 336 276 336 c 0
 170 336 112 433 140 530 c 0
278 526 m 0
 272 504 281 477 307 474 c 0
 335 471 378 506 385 532 c 0
 391 554 383 581 357 584 c 0
 329 587 285 552 278 526 c 0
529 173 m 0
 559 275 667 365 775 365 c 0
 881 365 938 268 910 171 c 0
 880 69 772 -21 664 -21 c 0
 558 -21 501 76 529 173 c 0
666 169 m 0
 660 147 669 120 695 117 c 0
 723 114 767 148 774 174 c 0
 780 196 771 224 745 227 c 0
 717 230 673 195 666 169 c 0
817 699 m 1
 1008 699 l 1
 234 0 l 1
 43 0 l 1
 817 699 l 1
EndSplineSet
EndChar

StartChar: uni203D
Encoding: 8253 8253 147
Width: 611
VWidth: 0
Flags: HMW
LayerCount: 2
Fore
SplineSet
521 476 m 0
 544 538 507 574 446 575 c 0
 376 577 318 536 270 489 c 1
 185 592 l 1
 266 669 376 722 490 721 c 0
 615 720 723 631 684 499 c 0
 638 346 469 283 324 274 c 1
 337 349 l 1
 411 362 493 400 521 476 c 0
323 501 m 1
 482 500 l 1
 352 212 l 1
 251 212 l 1
 323 501 l 1
155 72 m 0
 170 126 231 166 285 166 c 0
 339 166 381 123 366 68 c 0
 351 14 289 -27 235 -27 c 0
 181 -27 140 17 155 72 c 0
EndSplineSet
EndChar

StartChar: Euro
Encoding: 8364 8364 148
Width: 640
VWidth: 0
Flags: HMW
LayerCount: 2
Fore
SplineSet
133 373 m 1
 167 469 l 1
 632 469 l 1
 598 373 l 1
 133 373 l 1
69 237 m 1
 103 334 l 1
 570 334 l 1
 536 237 l 1
 69 237 l 1
332 350 m 0
 306 280 276 145 387 139 c 0
 447 135 506 169 556 197 c 1
 503 18 l 1
 456 -4 406 -22 353 -22 c 0
 147 -23 118 193 168 350 c 0
 225 530 381 724 586 723 c 0
 637 723 679 706 723 682 c 1
 668 501 l 1
 637 538 602 564 552 563 c 0
 439 561 367 443 332 350 c 0
EndSplineSet
EndChar

StartChar: fraction
Encoding: 8260 8260 149
Width: 693
VWidth: 0
Flags: HMW
LayerCount: 2
Fore
SplineSet
722 699 m 1
 871 699 l 1
 143 0 l 1
 -7 0 l 1
 722 699 l 1
EndSplineSet
EndChar

StartChar: onequarter
Encoding: 188 188 150
Width: 795
VWidth: 0
Flags: HMW
LayerCount: 2
Fore
SplineSet
774 699 m 1
 892 699 l 1
 163 0 l 1
 45 0 l 1
 774 699 l 1
153 556 m 1
 189 661 l 1
 420 705 l 1
 271 274 l 1
 158 274 l 1
 263 580 l 1
 153 556 l 1
345 73 m 1
 466 153 l 1
 641 154 l 1
 658 172 l 1
 778 172 l 1
 742 72 l 1
 345 73 l 1
489 112 m 1
 337 64 l 1
 700 419 l 1
 801 420 l 1
 655 0 l 1
 532 0 l 1
 564 93 l 1
 580 99 l 1
 632 244 l 1
 489 112 l 1
EndSplineSet
EndChar

StartChar: onehalf
Encoding: 189 189 151
Width: 865
VWidth: 0
Flags: HMW
LayerCount: 2
Fore
SplineSet
774 699 m 1
 892 699 l 1
 163 0 l 1
 45 0 l 1
 774 699 l 1
153 556 m 1
 189 661 l 1
 420 705 l 1
 271 274 l 1
 158 274 l 1
 263 580 l 1
 153 556 l 1
417 3 m 1
 655 190 l 2
 687 214 740 244 751 286 c 0
 756 305 749 327 727 329 c 0
 690 333 666 289 650 263 c 1
 533 265 l 1
 570 355 644 431 747 431 c 0
 825 431 894 374 870 292 c 0
 857 245 819 209 781 182 c 2
 678 112 l 1
 821 110 l 1
 783 2 l 1
 417 3 l 1
EndSplineSet
EndChar

StartChar: threequarters
Encoding: 190 190 152
Width: 845
VWidth: 0
Flags: HMW
LayerCount: 2
Fore
SplineSet
833 699 m 1
 951 699 l 1
 222 0 l 1
 104 0 l 1
 833 699 l 1
269 483 m 1
 284 531 l 1
 315 537 365 548 375 584 c 0
 379 600 369 614 353 614 c 0
 325 614 306 591 290 572 c 1
 180 574 l 1
 215 650 280 706 368 708 c 0
 436 709 511 668 488 589 c 0
 461 498 348 487 269 483 c 1
232 269 m 0
 139 271 99 334 109 421 c 1
 218 421 l 1
 218 395 216 367 250 363 c 0
 275 360 314 386 322 410 c 0
 336 452 285 456 257 461 c 1
 275 516 l 1
 348 512 462 494 434 394 c 0
 411 310 312 267 232 269 c 0
397 73 m 1
 518 153 l 1
 692 154 l 1
 709 172 l 1
 829 172 l 1
 793 72 l 1
 397 73 l 1
540 112 m 1
 388 64 l 1
 752 419 l 1
 852 420 l 1
 707 0 l 1
 583 0 l 1
 615 93 l 1
 631 99 l 1
 684 244 l 1
 540 112 l 1
EndSplineSet
EndChar

StartChar: uni2150
Encoding: 8528 8528 153
Width: 918
VWidth: 0
Flags: HMW
LayerCount: 2
Fore
SplineSet
759 699 m 1
 908 699 l 1
 179 0 l 1
 30 0 l 1
 759 699 l 1
153 556 m 1
 189 661 l 1
 420 705 l 1
 271 274 l 1
 158 274 l 1
 263 580 l 1
 153 556 l 1
611 309 m 1
 649 420 l 1
 998 419 l 1
 662 0 l 1
 527 0 l 1
 780 308 l 1
 611 309 l 1
EndSplineSet
EndChar

StartChar: uni2151
Encoding: 8529 8529 154
Width: 863
VWidth: 0
Flags: HMW
LayerCount: 2
Fore
SplineSet
750 699 m 1
 900 699 l 1
 171 0 l 1
 22 0 l 1
 750 699 l 1
153 556 m 1
 189 661 l 1
 420 705 l 1
 271 274 l 1
 158 274 l 1
 263 580 l 1
 153 556 l 1
769 273 m 0
 777 299 768 328 738 331 c 0
 705 335 660 300 651 270 c 0
 643 244 653 213 683 210 c 0
 716 206 760 243 769 273 c 0
638 6 m 1
 477 6 l 1
 658 144 l 1
 693 158 l 1
 672 146 651 136 626 136 c 0
 551 136 521 207 538 272 c 0
 564 366 660 432 755 432 c 0
 848 432 911 363 883 270 c 0
 868 220 828 179 791 144 c 1
 638 6 l 1
EndSplineSet
EndChar

StartChar: uni2152
Encoding: 8530 8530 155
Width: 1181
VWidth: 0
Flags: HMW
LayerCount: 2
Fore
SplineSet
750 699 m 1
 900 699 l 1
 171 0 l 1
 22 0 l 1
 750 699 l 1
153 556 m 1
 189 661 l 1
 420 705 l 1
 271 274 l 1
 158 274 l 1
 263 580 l 1
 153 556 l 1
578 283 m 1
 615 388 l 1
 845 432 l 1
 696 1 l 1
 582 1 l 1
 688 307 l 1
 578 283 l 1
936 209 m 0
 925 180 899 100 950 94 c 0
 1003 88 1045 171 1060 211 c 0
 1071 240 1097 320 1046 326 c 0
 993 332 951 249 936 209 c 0
824 211 m 0
 856 315 942 429 1061 429 c 0
 1185 429 1199 304 1170 209 c 0
 1137 104 1054 -9 933 -9 c 0
 811 -9 795 116 824 211 c 0
EndSplineSet
EndChar

StartChar: onethird
Encoding: 8531 8531 156
Width: 860
VWidth: 0
Flags: HMW
LayerCount: 2
Fore
SplineSet
750 699 m 1
 899 699 l 1
 171 0 l 1
 21 0 l 1
 750 699 l 1
153 556 m 1
 189 661 l 1
 420 705 l 1
 271 274 l 1
 158 274 l 1
 263 580 l 1
 153 556 l 1
661 203 m 1
 676 251 l 1
 707 257 758 268 768 304 c 0
 772 320 762 334 746 334 c 0
 718 334 699 311 683 292 c 1
 572 294 l 1
 607 370 672 426 760 428 c 0
 828 429 905 388 882 309 c 0
 855 218 740 207 661 203 c 1
625 -11 m 0
 532 -9 491 54 501 141 c 1
 611 141 l 1
 611 115 609 87 643 83 c 0
 668 80 706 106 714 130 c 0
 728 172 678 176 650 181 c 1
 668 236 l 1
 741 232 855 214 827 114 c 0
 804 30 705 -13 625 -11 c 0
EndSplineSet
EndChar

StartChar: twothirds
Encoding: 8532 8532 157
Width: 987
VWidth: 0
Flags: HMW
LayerCount: 2
Fore
SplineSet
894 699 m 1
 1043 699 l 1
 314 0 l 1
 165 0 l 1
 894 699 l 1
61 283 m 1
 299 470 l 2
 331 494 383 524 394 566 c 0
 399 585 393 607 371 609 c 0
 334 613 310 569 294 543 c 1
 177 545 l 1
 214 635 289 711 392 711 c 0
 470 711 538 654 514 572 c 0
 501 525 462 489 424 462 c 2
 322 392 l 1
 466 390 l 1
 428 282 l 1
 61 283 l 1
789 203 m 1
 804 251 l 1
 835 257 886 268 896 304 c 0
 900 320 890 334 874 334 c 0
 846 334 826 311 810 292 c 1
 700 294 l 1
 735 370 799 426 887 428 c 0
 955 429 1032 388 1009 309 c 0
 982 218 868 207 789 203 c 1
752 -11 m 0
 659 -9 618 54 628 141 c 1
 739 141 l 1
 739 115 736 87 770 83 c 0
 795 80 834 106 842 130 c 0
 856 172 806 176 778 181 c 1
 796 236 l 1
 869 232 982 214 954 114 c 0
 931 30 832 -13 752 -11 c 0
EndSplineSet
EndChar

StartChar: uni2155
Encoding: 8533 8533 158
Width: 849
VWidth: 0
Flags: HMW
LayerCount: 2
Fore
SplineSet
750 699 m 1
 900 699 l 1
 171 0 l 1
 22 0 l 1
 750 699 l 1
153 556 m 1
 189 661 l 1
 420 705 l 1
 271 274 l 1
 158 274 l 1
 263 580 l 1
 153 556 l 1
824 130 m 0
 798 42 704 -8 617 -10 c 0
 558 -12 505 9 456 35 c 1
 520 134 l 1
 546 116 573 98 607 98 c 0
 637 98 697 112 704 149 c 0
 710 179 678 189 655 191 c 0
 611 194 568 182 526 172 c 1
 614 223 l 1
 651 245 692 269 738 267 c 0
 812 263 843 197 824 130 c 0
720 314 m 1
 650 215 l 1
 513 162 l 1
 661 417 l 1
 914 418 l 1
 877 315 l 1
 720 314 l 1
EndSplineSet
EndChar

StartChar: uni2156
Encoding: 8534 8534 159
Width: 988
VWidth: 0
Flags: HMW
LayerCount: 2
Fore
SplineSet
894 699 m 1
 1043 699 l 1
 314 0 l 1
 165 0 l 1
 894 699 l 1
61 283 m 1
 299 470 l 2
 331 494 383 524 394 566 c 0
 399 585 393 607 371 609 c 0
 334 613 310 569 294 543 c 1
 177 545 l 1
 214 635 289 711 392 711 c 0
 470 711 538 654 514 572 c 0
 501 525 462 489 424 462 c 2
 322 392 l 1
 466 390 l 1
 428 282 l 1
 61 283 l 1
952 130 m 0
 926 42 831 -8 744 -10 c 0
 685 -12 633 9 584 35 c 1
 648 134 l 1
 674 116 700 98 734 98 c 0
 764 98 825 112 832 149 c 0
 838 179 806 189 783 191 c 0
 739 194 695 182 653 172 c 1
 741 223 l 1
 778 245 819 269 865 267 c 0
 939 263 971 197 952 130 c 0
848 314 m 1
 777 215 l 1
 641 162 l 1
 789 417 l 1
 1040 418 l 1
 1004 315 l 1
 848 314 l 1
EndSplineSet
EndChar

StartChar: uni2157
Encoding: 8535 8535 160
Width: 907
VWidth: 0
Flags: HMW
LayerCount: 2
Fore
SplineSet
816 699 m 1
 966 699 l 1
 238 0 l 1
 88 0 l 1
 816 699 l 1
265 483 m 1
 280 531 l 1
 311 537 361 548 371 584 c 0
 375 600 365 614 349 614 c 0
 321 614 302 591 286 572 c 1
 175 574 l 1
 210 650 276 706 364 708 c 0
 432 709 508 668 485 589 c 0
 458 498 344 487 265 483 c 1
229 269 m 0
 136 271 94 334 104 421 c 1
 215 421 l 1
 215 395 211 367 245 363 c 0
 270 360 310 386 318 410 c 0
 332 452 281 456 253 461 c 1
 272 516 l 1
 345 512 458 494 430 394 c 0
 407 310 309 267 229 269 c 0
867 130 m 0
 841 42 746 -8 659 -10 c 0
 600 -12 548 9 499 35 c 1
 562 134 l 1
 588 116 615 98 649 98 c 0
 679 98 740 112 747 149 c 0
 753 179 720 189 697 191 c 0
 653 194 609 182 567 172 c 1
 656 223 l 1
 693 245 734 269 780 267 c 0
 854 263 886 197 867 130 c 0
763 314 m 1
 692 215 l 1
 555 162 l 1
 704 417 l 1
 955 418 l 1
 919 315 l 1
 763 314 l 1
EndSplineSet
EndChar

StartChar: uni2158
Encoding: 8536 8536 161
Width: 1004
VWidth: 0
Flags: HMW
LayerCount: 2
Fore
SplineSet
881 698 m 1
 1030 698 l 1
 302 0 l 1
 152 0 l 1
 881 698 l 1
74 353 m 1
 193 433 l 1
 369 434 l 1
 386 452 l 1
 506 452 l 1
 470 352 l 1
 74 353 l 1
217 392 m 1
 65 344 l 1
 428 699 l 1
 529 700 l 1
 384 280 l 1
 260 280 l 1
 292 373 l 1
 308 379 l 1
 360 524 l 1
 217 392 l 1
971 129 m 0
 945 41 850 -9 763 -11 c 0
 704 -13 651 8 602 34 c 1
 667 133 l 1
 693 115 719 98 753 98 c 0
 783 98 843 111 850 148 c 0
 856 178 824 189 801 191 c 0
 757 194 714 181 672 171 c 1
 760 222 l 1
 797 244 838 268 884 266 c 0
 958 262 990 196 971 129 c 0
867 313 m 1
 796 215 l 1
 659 160 l 1
 808 416 l 1
 1060 417 l 1
 1023 314 l 1
 867 313 l 1
EndSplineSet
EndChar

StartChar: uni2159
Encoding: 8537 8537 162
Width: 864
VWidth: 0
Flags: HMW
LayerCount: 2
Fore
SplineSet
774 699 m 1
 923 699 l 1
 195 0 l 1
 46 0 l 1
 774 699 l 1
153 556 m 1
 189 661 l 1
 420 705 l 1
 271 274 l 1
 158 274 l 1
 263 580 l 1
 153 556 l 1
605 147 m 0
 597 121 606 92 636 89 c 0
 669 85 713 120 722 150 c 0
 730 176 722 206 692 210 c 0
 659 214 614 177 605 147 c 0
736 414 m 1
 898 414 l 1
 717 276 l 1
 681 262 l 1
 702 273 722 283 747 284 c 0
 822 286 854 212 837 148 c 0
 812 54 714 -12 619 -12 c 0
 526 -12 463 57 491 150 c 0
 506 200 545 241 582 276 c 1
 736 414 l 1
EndSplineSet
EndChar

StartChar: uni215A
Encoding: 8538 8538 163
Width: 900
VWidth: 0
Flags: HMW
LayerCount: 2
Fore
SplineSet
834 699 m 1
 983 699 l 1
 254 0 l 1
 105 0 l 1
 834 699 l 1
448 410 m 0
 422 322 328 272 241 270 c 0
 182 268 129 289 80 315 c 1
 144 414 l 1
 170 396 197 378 231 378 c 0
 261 378 321 392 328 429 c 0
 334 459 302 469 279 471 c 0
 235 474 191 462 149 452 c 1
 238 503 l 1
 275 525 314 549 360 547 c 0
 434 543 467 477 448 410 c 0
343 594 m 1
 272 495 l 1
 136 442 l 1
 284 697 l 1
 536 698 l 1
 500 595 l 1
 343 594 l 1
640 147 m 0
 632 121 642 92 672 89 c 0
 705 85 749 120 758 150 c 0
 766 176 757 206 727 210 c 0
 694 214 649 177 640 147 c 0
772 414 m 1
 932 414 l 1
 753 276 l 1
 717 262 l 1
 738 273 758 283 783 284 c 0
 858 286 889 212 872 148 c 0
 847 54 750 -12 655 -12 c 0
 562 -12 499 57 527 150 c 0
 542 200 581 241 618 276 c 1
 772 414 l 1
EndSplineSet
EndChar

StartChar: oneeighth
Encoding: 8539 8539 164
Width: 880
VWidth: 0
Flags: HMW
LayerCount: 2
Fore
SplineSet
774 699 m 1
 923 699 l 1
 195 0 l 1
 46 0 l 1
 774 699 l 1
153 556 m 1
 189 661 l 1
 420 705 l 1
 271 274 l 1
 158 274 l 1
 263 580 l 1
 153 556 l 1
606 321 m 0
 626 393 710 430 779 430 c 0
 844 430 917 392 896 317 c 0
 876 245 791 204 721 204 c 0
 655 204 586 247 606 321 c 0
711 306 m 0
 706 292 708 268 727 266 c 0
 748 264 778 292 784 310 c 0
 789 325 784 346 766 348 c 0
 745 350 718 324 711 306 c 0
522 116 m 0
 544 195 637 238 714 238 c 0
 786 238 863 194 840 112 c 0
 818 34 725 -10 648 -10 c 0
 577 -10 499 35 522 116 c 0
644 131 m 0
 637 113 642 87 665 85 c 0
 690 83 724 112 731 134 c 0
 737 152 730 176 709 178 c 0
 685 180 652 152 644 131 c 0
EndSplineSet
EndChar

StartChar: threeeighths
Encoding: 8540 8540 165
Width: 930
VWidth: 0
Flags: HMW
LayerCount: 2
Fore
SplineSet
825 699 m 1
 974 699 l 1
 245 0 l 1
 96 0 l 1
 825 699 l 1
265 483 m 1
 280 531 l 1
 311 537 361 548 371 584 c 0
 375 600 365 614 349 614 c 0
 321 614 302 591 286 572 c 1
 176 574 l 1
 211 650 276 706 364 708 c 0
 432 709 508 668 485 589 c 0
 458 498 344 487 265 483 c 1
229 269 m 0
 136 271 94 334 104 421 c 1
 215 421 l 1
 215 395 211 367 245 363 c 0
 270 360 310 386 318 410 c 0
 332 452 281 456 253 461 c 1
 272 516 l 1
 345 512 458 494 430 394 c 0
 407 310 309 267 229 269 c 0
655 321 m 0
 675 393 761 430 830 430 c 0
 895 430 967 392 946 317 c 0
 926 245 841 204 771 204 c 0
 705 204 635 247 655 321 c 0
761 306 m 0
 756 292 758 268 777 266 c 0
 798 264 828 292 834 310 c 0
 839 325 835 346 817 348 c 0
 796 350 768 324 761 306 c 0
571 116 m 0
 593 195 687 238 764 238 c 0
 836 238 913 194 890 112 c 0
 868 34 775 -10 698 -10 c 0
 627 -10 548 35 571 116 c 0
693 131 m 0
 686 113 692 87 715 85 c 0
 740 83 775 112 782 134 c 0
 788 152 779 176 758 178 c 0
 734 180 701 152 693 131 c 0
EndSplineSet
EndChar

StartChar: fiveeighths
Encoding: 8541 8541 166
Width: 939
VWidth: 0
Flags: HMW
LayerCount: 2
Fore
SplineSet
834 699 m 1
 983 699 l 1
 254 0 l 1
 105 0 l 1
 834 699 l 1
440 410 m 0
 414 322 319 272 232 270 c 0
 173 268 121 289 72 315 c 1
 135 414 l 1
 161 396 188 378 222 378 c 0
 252 378 313 392 320 429 c 0
 326 459 293 469 270 471 c 0
 226 474 183 462 141 452 c 1
 229 503 l 1
 266 525 307 549 353 547 c 0
 427 543 459 477 440 410 c 0
336 594 m 1
 265 495 l 1
 129 442 l 1
 276 697 l 1
 529 698 l 1
 492 595 l 1
 336 594 l 1
665 321 m 0
 685 393 769 430 838 430 c 0
 903 430 976 392 955 317 c 0
 935 245 850 204 780 204 c 0
 714 204 645 247 665 321 c 0
769 306 m 0
 764 292 768 268 787 266 c 0
 808 264 837 292 843 310 c 0
 848 325 843 346 825 348 c 0
 804 350 776 324 769 306 c 0
581 116 m 0
 603 195 695 238 772 238 c 0
 844 238 922 194 899 112 c 0
 877 34 784 -10 707 -10 c 0
 636 -10 558 35 581 116 c 0
703 131 m 0
 696 113 701 87 724 85 c 0
 749 83 783 112 790 134 c 0
 796 152 789 176 768 178 c 0
 744 180 711 152 703 131 c 0
EndSplineSet
EndChar

StartChar: seveneighths
Encoding: 8542 8542 167
Width: 836
VWidth: 0
Flags: HMW
LayerCount: 2
Fore
SplineSet
722 699 m 1
 871 699 l 1
 143 0 l 1
 -7 0 l 1
 722 699 l 1
162 589 m 1
 202 700 l 1
 551 699 l 1
 214 281 l 1
 79 281 l 1
 333 588 l 1
 162 589 l 1
562 321 m 0
 582 393 667 430 736 430 c 0
 801 430 872 392 851 317 c 0
 831 245 747 204 677 204 c 0
 611 204 542 247 562 321 c 0
666 306 m 0
 661 292 664 268 683 266 c 0
 704 264 734 292 740 310 c 0
 745 325 740 346 722 348 c 0
 701 350 673 324 666 306 c 0
477 116 m 0
 499 195 593 238 670 238 c 0
 742 238 818 194 795 112 c 0
 773 34 681 -10 604 -10 c 0
 533 -10 454 35 477 116 c 0
599 131 m 0
 592 113 598 87 621 85 c 0
 646 83 680 112 687 134 c 0
 693 152 686 176 665 178 c 0
 641 180 607 152 599 131 c 0
EndSplineSet
EndChar

StartChar: uni2074
Encoding: 8308 8308 168
Width: 414
VWidth: 0
Flags: HMW
LayerCount: 2
Fore
SplineSet
66 353 m 1
 186 433 l 1
 361 434 l 1
 377 452 l 1
 498 452 l 1
 463 352 l 1
 66 353 l 1
210 392 m 1
 57 344 l 1
 420 699 l 1
 520 700 l 1
 376 280 l 1
 252 280 l 1
 284 373 l 1
 300 379 l 1
 353 524 l 1
 210 392 l 1
EndSplineSet
EndChar

StartChar: uni2075
Encoding: 8309 8309 169
Width: 373
VWidth: 0
Flags: HMW
LayerCount: 2
Fore
SplineSet
440 410 m 0
 414 322 319 272 232 270 c 0
 173 268 121 289 72 315 c 1
 135 414 l 1
 161 396 188 378 222 378 c 0
 252 378 313 392 320 429 c 0
 326 459 293 469 270 471 c 0
 226 474 183 462 141 452 c 1
 229 503 l 1
 266 525 307 549 353 547 c 0
 427 543 459 477 440 410 c 0
336 594 m 1
 265 495 l 1
 129 442 l 1
 276 697 l 1
 529 698 l 1
 492 595 l 1
 336 594 l 1
EndSplineSet
EndChar

StartChar: uni2076
Encoding: 8310 8310 170
Width: 372
VWidth: 0
Flags: HMW
LayerCount: 2
Fore
SplineSet
220 427 m 0
 212 401 222 372 252 369 c 0
 285 365 327 400 336 430 c 0
 344 456 337 486 307 490 c 0
 274 494 229 457 220 427 c 0
352 694 m 1
 512 694 l 1
 332 556 l 1
 296 542 l 1
 317 553 337 563 362 564 c 0
 437 566 469 492 452 428 c 0
 427 334 329 268 234 268 c 0
 141 268 78 337 106 430 c 0
 121 480 159 521 196 556 c 1
 352 694 l 1
EndSplineSet
EndChar

StartChar: uni2077
Encoding: 8311 8311 171
Width: 363
VWidth: 0
Flags: HMW
LayerCount: 2
Fore
SplineSet
162 589 m 1
 202 700 l 1
 551 699 l 1
 214 281 l 1
 79 281 l 1
 333 588 l 1
 162 589 l 1
EndSplineSet
EndChar

StartChar: uni2078
Encoding: 8312 8312 172
Width: 353
VWidth: 0
Flags: HMW
LayerCount: 2
Fore
SplineSet
181 601 m 0
 201 673 285 710 354 710 c 0
 419 710 491 672 470 597 c 0
 450 525 366 484 296 484 c 0
 230 484 161 527 181 601 c 0
285 586 m 0
 280 572 283 548 302 546 c 0
 323 544 353 572 359 590 c 0
 364 605 359 626 341 628 c 0
 320 630 292 604 285 586 c 0
97 396 m 0
 119 475 211 518 288 518 c 0
 360 518 437 474 414 392 c 0
 392 314 300 270 223 270 c 0
 152 270 74 315 97 396 c 0
219 411 m 0
 212 393 217 367 240 365 c 0
 265 363 299 392 306 414 c 0
 312 432 305 456 284 458 c 0
 260 460 227 432 219 411 c 0
EndSplineSet
EndChar

StartChar: uni2079
Encoding: 8313 8313 173
Width: 368
VWidth: 0
Flags: HMW
LayerCount: 2
Fore
SplineSet
378 553 m 0
 386 579 377 608 347 611 c 0
 314 615 270 580 261 550 c 0
 253 524 262 493 292 490 c 0
 325 486 369 523 378 553 c 0
248 286 m 1
 86 286 l 1
 266 424 l 1
 303 438 l 1
 282 426 261 416 236 416 c 0
 161 416 130 487 147 552 c 0
 173 646 270 712 365 712 c 0
 458 712 521 643 493 550 c 0
 478 500 438 459 401 424 c 1
 248 286 l 1
EndSplineSet
EndChar

StartChar: uni2070
Encoding: 8304 8304 174
Width: 373
VWidth: 0
Flags: HMW
LayerCount: 2
Fore
SplineSet
238 489 m 0
 227 460 201 380 252 374 c 0
 305 368 347 451 362 491 c 0
 373 520 399 600 348 606 c 0
 295 612 253 529 238 489 c 0
126 491 m 0
 158 595 245 709 364 709 c 0
 488 709 502 584 473 489 c 0
 440 384 357 271 236 271 c 0
 114 271 97 396 126 491 c 0
EndSplineSet
EndChar

StartChar: uni2080
Encoding: 8320 8320 175
Width: 373
VWidth: 0
Flags: HMW
LayerCount: 2
Fore
SplineSet
142 209 m 0
 131 180 105 100 156 94 c 0
 209 88 251 171 266 211 c 0
 277 240 303 320 252 326 c 0
 199 332 157 249 142 209 c 0
31 211 m 0
 63 315 150 429 269 429 c 0
 393 429 407 304 378 209 c 0
 345 104 261 -9 140 -9 c 0
 18 -9 2 116 31 211 c 0
EndSplineSet
EndChar

StartChar: uni2084
Encoding: 8324 8324 176
Width: 419
VWidth: 0
Flags: HMW
LayerCount: 2
Fore
SplineSet
-31 73 m 1
 89 153 l 1
 264 154 l 1
 280 172 l 1
 401 172 l 1
 365 72 l 1
 -31 73 l 1
112 112 m 1
 -40 64 l 1
 323 419 l 1
 423 420 l 1
 279 0 l 1
 155 0 l 1
 187 93 l 1
 203 99 l 1
 256 244 l 1
 112 112 l 1
EndSplineSet
EndChar

StartChar: uni2085
Encoding: 8325 8325 177
Width: 385
VWidth: 0
Flags: HMW
LayerCount: 2
Fore
SplineSet
348 130 m 0
 322 42 227 -8 140 -10 c 0
 81 -12 29 9 -20 35 c 1
 44 134 l 1
 70 116 97 98 131 98 c 0
 161 98 221 112 228 149 c 0
 234 179 202 189 179 191 c 0
 135 194 92 182 50 172 c 1
 137 223 l 1
 174 245 215 269 261 267 c 0
 335 263 367 197 348 130 c 0
244 314 m 1
 173 215 l 1
 37 162 l 1
 185 417 l 1
 437 418 l 1
 400 315 l 1
 244 314 l 1
EndSplineSet
EndChar

StartChar: uni2086
Encoding: 8326 8326 178
Width: 386
VWidth: 0
Flags: HMW
LayerCount: 2
Fore
SplineSet
128 147 m 0
 120 121 131 92 161 89 c 0
 194 85 237 120 246 150 c 0
 254 176 246 206 216 210 c 0
 183 214 137 177 128 147 c 0
261 414 m 1
 421 414 l 1
 241 276 l 1
 205 262 l 1
 226 273 246 283 271 284 c 0
 346 286 378 212 361 148 c 0
 336 54 238 -12 143 -12 c 0
 50 -12 -14 57 14 150 c 0
 29 200 70 241 107 276 c 1
 261 414 l 1
EndSplineSet
EndChar

StartChar: uni2087
Encoding: 8327 8327 179
Width: 370
VWidth: 0
Flags: HMW
LayerCount: 2
Fore
SplineSet
72 309 m 1
 111 420 l 1
 460 419 l 1
 124 0 l 1
 -12 0 l 1
 242 308 l 1
 72 309 l 1
EndSplineSet
EndChar

StartChar: uni2088
Encoding: 8328 8328 180
Width: 360
VWidth: 0
Flags: HMW
LayerCount: 2
Fore
SplineSet
91 321 m 0
 111 393 195 430 264 430 c 0
 329 430 401 392 380 317 c 0
 360 245 275 204 205 204 c 0
 139 204 71 247 91 321 c 0
195 306 m 0
 190 292 193 268 212 266 c 0
 233 264 263 292 269 310 c 0
 274 325 269 346 251 348 c 0
 230 350 202 324 195 306 c 0
7 116 m 0
 29 195 121 238 198 238 c 0
 270 238 347 194 324 112 c 0
 302 34 210 -10 133 -10 c 0
 62 -10 -16 35 7 116 c 0
128 131 m 0
 121 113 127 87 150 85 c 0
 175 83 209 112 216 134 c 0
 222 152 215 176 194 178 c 0
 170 180 136 152 128 131 c 0
EndSplineSet
EndChar

StartChar: uni2089
Encoding: 8329 8329 181
Width: 390
VWidth: 0
Flags: HMW
LayerCount: 2
Fore
SplineSet
291 273 m 0
 299 299 289 328 259 331 c 0
 226 335 182 300 173 270 c 0
 165 244 174 213 204 210 c 0
 237 206 282 243 291 273 c 0
159 6 m 1
 -2 6 l 1
 179 144 l 1
 215 158 l 1
 194 146 174 136 149 136 c 0
 74 136 42 207 59 272 c 0
 85 366 182 432 277 432 c 0
 370 432 433 363 405 270 c 0
 390 220 351 179 314 144 c 1
 159 6 l 1
EndSplineSet
EndChar

StartChar: uni2081
Encoding: 8321 8321 182
Width: 354
VWidth: 0
Flags: HMW
LayerCount: 2
Fore
SplineSet
123 283 m 1
 160 388 l 1
 391 432 l 1
 242 1 l 1
 129 1 l 1
 234 307 l 1
 123 283 l 1
EndSplineSet
EndChar

StartChar: uni2082
Encoding: 8322 8322 183
Width: 407
VWidth: 0
Flags: HMW
LayerCount: 2
Fore
SplineSet
-35 3 m 1
 203 190 l 2
 235 214 287 244 298 286 c 0
 303 305 297 327 275 329 c 0
 238 333 213 289 197 263 c 1
 81 265 l 1
 118 355 192 431 295 431 c 0
 373 431 442 374 418 292 c 0
 405 245 366 209 328 182 c 2
 225 112 l 1
 369 110 l 1
 331 2 l 1
 -35 3 l 1
EndSplineSet
EndChar

StartChar: uni2083
Encoding: 8323 8323 184
Width: 368
VWidth: 0
Flags: HMW
LayerCount: 2
Fore
SplineSet
170 203 m 1
 185 251 l 1
 216 257 267 268 277 304 c 0
 281 320 271 334 255 334 c 0
 227 334 208 311 192 292 c 1
 81 294 l 1
 116 370 181 426 269 428 c 0
 337 429 413 388 390 309 c 0
 363 218 249 207 170 203 c 1
133 -11 m 0
 40 -9 0 54 10 141 c 1
 120 141 l 1
 120 115 117 87 151 83 c 0
 176 80 215 106 223 130 c 0
 237 172 186 176 158 181 c 1
 177 236 l 1
 250 232 364 214 336 114 c 0
 313 30 213 -13 133 -11 c 0
EndSplineSet
EndChar

StartChar: Agrave
Encoding: 192 192 185
Width: 715
VWidth: 0
Flags: HMW
LayerCount: 2
Fore
SplineSet
165 109 m 1
 221 254 l 1
 566 255 l 1
 519 109 l 1
 165 109 l 1
450 407 m 1
 291 200 l 1
 289 154 l 1
 162 0 l 1
 -66 0 l 1
 557 752 l 1
 663 0 l 1
 455 0 l 1
 429 150 l 1
 459 200 l 1
 450 407 l 1
470 963 m 1
 604 1015 l 1
 695 848 l 1
 595 808 l 1
 470 963 l 1
EndSplineSet
EndChar

StartChar: Aacute
Encoding: 193 193 186
Width: 715
VWidth: 0
Flags: HMW
LayerCount: 2
Fore
SplineSet
165 109 m 1
 221 254 l 1
 566 255 l 1
 519 109 l 1
 165 109 l 1
450 407 m 1
 291 200 l 1
 289 154 l 1
 162 0 l 1
 -66 0 l 1
 557 752 l 1
 663 0 l 1
 455 0 l 1
 429 150 l 1
 459 200 l 1
 450 407 l 1
791 951 m 1
 578 809 l 1
 487 861 l 1
 677 1013 l 1
 791 951 l 1
EndSplineSet
EndChar

StartChar: Acircumflex
Encoding: 194 194 187
Width: 715
VWidth: 0
Flags: HMW
LayerCount: 2
Fore
SplineSet
165 109 m 1
 221 254 l 1
 566 255 l 1
 519 109 l 1
 165 109 l 1
450 407 m 1
 291 200 l 1
 289 154 l 1
 162 0 l 1
 -66 0 l 1
 557 752 l 1
 663 0 l 1
 455 0 l 1
 429 150 l 1
 459 200 l 1
 450 407 l 1
614 881 m 1
 506 801 l 1
 407 890 l 1
 644 1023 l 1
 804 877 l 1
 664 800 l 1
 614 881 l 1
EndSplineSet
EndChar

StartChar: Atilde
Encoding: 195 195 188
Width: 715
VWidth: 0
Flags: HMW
LayerCount: 2
Fore
SplineSet
165 109 m 1
 221 254 l 1
 566 255 l 1
 519 109 l 1
 165 109 l 1
450 407 m 1
 291 200 l 1
 289 154 l 1
 162 0 l 1
 -66 0 l 1
 557 752 l 1
 663 0 l 1
 455 0 l 1
 429 150 l 1
 459 200 l 1
 450 407 l 1
407 884 m 1
 440 931 489 981 551 978 c 0
 595 976 621 924 665 927 c 0
 699 929 726 959 750 980 c 1
 807 891 l 1
 769 850 710 801 649 806 c 0
 605 810 575 866 530 859 c 0
 501 854 483 831 466 810 c 1
 407 884 l 1
EndSplineSet
EndChar

StartChar: Adieresis
Encoding: 196 196 189
Width: 715
VWidth: 0
Flags: HMW
LayerCount: 2
Fore
SplineSet
165 109 m 1
 221 254 l 1
 566 255 l 1
 519 109 l 1
 165 109 l 1
450 407 m 1
 291 200 l 1
 289 154 l 1
 162 0 l 1
 -66 0 l 1
 557 752 l 1
 663 0 l 1
 455 0 l 1
 429 150 l 1
 459 200 l 1
 450 407 l 1
634 826 m 0
 648 874 704 913 754 913 c 0
 804 913 840 870 826 820 c 0
 812 772 757 733 707 733 c 0
 657 733 620 776 634 826 c 0
338 834 m 0
 352 882 408 922 458 922 c 0
 508 922 544 879 530 829 c 0
 516 781 460 741 410 741 c 0
 360 741 324 784 338 834 c 0
EndSplineSet
EndChar

StartChar: Aring
Encoding: 197 197 190
Width: 715
VWidth: 0
Flags: HMW
LayerCount: 2
Fore
SplineSet
165 109 m 1
 221 254 l 1
 566 255 l 1
 519 109 l 1
 165 109 l 1
450 407 m 1
 291 200 l 1
 289 154 l 1
 162 0 l 1
 -66 0 l 1
 557 752 l 1
 663 0 l 1
 455 0 l 1
 429 150 l 1
 459 200 l 1
 450 407 l 1
449 804 m 0
 468 870 541 922 609 922 c 0
 677 922 724 867 705 800 c 0
 686 733 613 681 544 681 c 0
 476 681 430 737 449 804 c 0
535 800 m 0
 530 784 536 759 555 757 c 0
 577 755 612 784 619 803 c 0
 624 819 617 844 598 846 c 0
 576 848 542 819 535 800 c 0
EndSplineSet
EndChar

StartChar: AE
Encoding: 198 198 191
Width: 1061
VWidth: 0
Flags: HMW
LayerCount: 2
Fore
SplineSet
257 130 m 1
 329 311 l 1
 617 311 l 1
 554 130 l 1
 257 130 l 1
606 700 m 1
 774 656 l 1
 210 0 l 1
 -46 0 l 1
 606 700 l 1
567 0 m 1
 622 160 l 1
 1000 160 l 1
 944 0 l 1
 567 0 l 1
770 540 m 1
 606 700 l 1
 1184 700 l 1
 1129 540 l 1
 770 540 l 1
664 285 m 1
 719 441 l 1
 1078 441 l 1
 1023 285 l 1
 664 285 l 1
718 700 m 1
 928 700 l 1
 688 0 l 1
 478 0 l 1
 718 700 l 1
EndSplineSet
EndChar

StartChar: Ccedilla
Encoding: 199 199 192
Width: 663
VWidth: 0
Flags: HMW
LayerCount: 2
Fore
SplineSet
302 350 m 0
 268 259 306 173 409 170 c 0
 493 168 569 213 637 256 c 1
 576 50 l 1
 508 10 434 -19 354 -19 c 0
 144 -19 30 153 92 350 c 0
 157 559 362 720 583 719 c 0
 656 719 716 694 773 649 c 1
 710 442 l 1
 672 497 622 530 553 530 c 0
 444 529 340 450 302 350 c 0
283 43 m 1
 417 39 l 1
 276 -87 l 1
 288 -84 302 -82 314 -83 c 0
 370 -87 396 -138 381 -189 c 0
 361 -258 286 -296 219 -300 c 0
 164 -303 115 -284 67 -258 c 1
 134 -184 l 1
 156 -197 179 -210 207 -209 c 0
 225 -208 275 -194 278 -171 c 0
 281 -150 249 -145 236 -144 c 0
 204 -142 170 -151 138 -157 c 1
 283 43 l 1
EndSplineSet
EndChar

StartChar: Egrave
Encoding: 200 200 193
Width: 583
VWidth: 0
Flags: HMW
LayerCount: 2
Fore
SplineSet
137 0 m 1
 193 160 l 1
 532 160 l 1
 475 0 l 1
 137 0 l 1
322 540 m 1
 378 700 l 1
 716 700 l 1
 660 540 l 1
 322 540 l 1
234 285 m 1
 289 441 l 1
 608 441 l 1
 554 285 l 1
 234 285 l 1
249 700 m 1
 435 700 l 1
 194 0 l 1
 10 0 l 1
 249 700 l 1
402 942 m 1
 535 995 l 1
 627 828 l 1
 527 787 l 1
 402 942 l 1
EndSplineSet
EndChar

StartChar: Eacute
Encoding: 201 201 194
Width: 583
VWidth: 0
Flags: HMW
LayerCount: 2
Fore
SplineSet
137 0 m 1
 193 160 l 1
 532 160 l 1
 475 0 l 1
 137 0 l 1
322 540 m 1
 378 700 l 1
 716 700 l 1
 660 540 l 1
 322 540 l 1
234 285 m 1
 289 441 l 1
 608 441 l 1
 554 285 l 1
 234 285 l 1
249 700 m 1
 435 700 l 1
 194 0 l 1
 10 0 l 1
 249 700 l 1
724 930 m 1
 510 788 l 1
 420 840 l 1
 610 992 l 1
 724 930 l 1
EndSplineSet
EndChar

StartChar: Ecircumflex
Encoding: 202 202 195
Width: 583
VWidth: 0
Flags: HMW
LayerCount: 2
Fore
SplineSet
137 0 m 1
 193 160 l 1
 532 160 l 1
 475 0 l 1
 137 0 l 1
322 540 m 1
 378 700 l 1
 716 700 l 1
 660 540 l 1
 322 540 l 1
234 285 m 1
 289 441 l 1
 608 441 l 1
 554 285 l 1
 234 285 l 1
249 700 m 1
 435 700 l 1
 194 0 l 1
 10 0 l 1
 249 700 l 1
558 888 m 1
 419 796 l 1
 377 841 l 1
 569 976 l 1
 682 831 l 1
 628 796 l 1
 558 888 l 1
EndSplineSet
EndChar

StartChar: Edieresis
Encoding: 203 203 196
Width: 583
VWidth: 0
Flags: HMW
LayerCount: 2
Fore
SplineSet
137 0 m 1
 193 160 l 1
 532 160 l 1
 475 0 l 1
 137 0 l 1
322 540 m 1
 378 700 l 1
 716 700 l 1
 660 540 l 1
 322 540 l 1
234 285 m 1
 289 441 l 1
 608 441 l 1
 554 285 l 1
 234 285 l 1
249 700 m 1
 435 700 l 1
 194 0 l 1
 10 0 l 1
 249 700 l 1
568 876 m 0
 582 924 638 963 688 963 c 0
 738 963 774 920 760 870 c 0
 746 822 691 782 641 782 c 0
 591 782 554 826 568 876 c 0
325 876 m 0
 339 924 394 963 444 963 c 0
 494 963 531 920 517 870 c 0
 503 822 447 782 397 782 c 0
 347 782 311 826 325 876 c 0
EndSplineSet
EndChar

StartChar: Igrave
Encoding: 204 204 197
Width: 325
VWidth: 0
Flags: HMW
LayerCount: 2
Fore
SplineSet
249 700 m 1
 447 700 l 1
 206 0 l 1
 10 0 l 1
 249 700 l 1
260 942 m 1
 393 995 l 1
 485 828 l 1
 384 787 l 1
 260 942 l 1
EndSplineSet
EndChar

StartChar: Iacute
Encoding: 205 205 198
Width: 325
VWidth: 0
Flags: HMW
LayerCount: 2
Fore
SplineSet
249 700 m 1
 447 700 l 1
 206 0 l 1
 10 0 l 1
 249 700 l 1
581 930 m 1
 368 788 l 1
 278 840 l 1
 467 992 l 1
 581 930 l 1
EndSplineSet
EndChar

StartChar: Icircumflex
Encoding: 206 206 199
Width: 325
VWidth: 0
Flags: HMW
LayerCount: 2
Fore
SplineSet
249 700 m 1
 447 700 l 1
 206 0 l 1
 10 0 l 1
 249 700 l 1
413 888 m 1
 275 796 l 1
 233 841 l 1
 426 976 l 1
 538 831 l 1
 484 796 l 1
 413 888 l 1
EndSplineSet
EndChar

StartChar: Idieresis
Encoding: 207 207 200
Width: 325
VWidth: 0
Flags: HMW
LayerCount: 2
Fore
SplineSet
249 700 m 1
 447 700 l 1
 206 0 l 1
 10 0 l 1
 249 700 l 1
432 872 m 0
 446 920 503 960 552 960 c 0
 602 960 638 917 624 867 c 0
 610 819 554 780 504 780 c 0
 453 780 418 822 432 872 c 0
188 872 m 0
 202 920 257 960 307 960 c 0
 357 960 395 917 381 867 c 0
 367 819 311 780 261 780 c 0
 210 780 174 822 188 872 c 0
EndSplineSet
EndChar

StartChar: Ntilde
Encoding: 209 209 201
Width: 752
VWidth: 0
Flags: HMW
LayerCount: 2
Fore
SplineSet
689 700 m 1
 874 700 l 1
 624 -31 l 1
 316 352 l 1
 195 0 l 1
 9 0 l 1
 260 731 l 1
 567 348 l 1
 689 700 l 1
380 852 m 1
 413 899 461 949 523 946 c 0
 567 944 592 891 636 894 c 0
 670 896 699 927 723 948 c 1
 779 859 l 1
 741 818 682 768 621 773 c 0
 577 777 547 833 502 826 c 0
 473 821 456 798 439 777 c 1
 380 852 l 1
EndSplineSet
EndChar

StartChar: Eth
Encoding: 208 208 202
Width: 705
VWidth: 0
Flags: HMW
LayerCount: 2
Fore
SplineSet
50 300 m 1
 89 408 l 1
 440 408 l 1
 402 300 l 1
 50 300 l 1
249 700 m 1
 450 700 l 1
 210 0 l 1
 10 0 l 1
 249 700 l 1
273 0 m 0
 136 0 l 1
 198 173 l 1
 303 173 l 0
 415 177 506 245 546 350 c 0
 583 446 551 521 444 526 c 1
 316 527 l 1
 377 700 l 1
 490 700 l 0
 694 695 808 548 746 350 c 0
 681 142 489 5 273 0 c 0
EndSplineSet
EndChar

StartChar: Ograve
Encoding: 210 210 203
Width: 782
VWidth: 0
Flags: HMW
LayerCount: 2
Fore
SplineSet
295 350 m 0
 264 269 276 166 382 163 c 0
 490 160 582 255 619 350 c 0
 650 432 639 535 532 537 c 0
 424 539 331 445 295 350 c 0
92 350 m 0
 156 552 355 719 571 719 c 0
 779 719 881 539 822 350 c 0
 758 146 558 -28 339 -27 c 0
 127 -26 33 161 92 350 c 0
510 942 m 1
 643 995 l 1
 735 828 l 1
 635 787 l 1
 510 942 l 1
EndSplineSet
EndChar

StartChar: Oacute
Encoding: 211 211 204
Width: 782
VWidth: 0
Flags: HMW
LayerCount: 2
Fore
SplineSet
295 350 m 0
 264 269 276 166 382 163 c 0
 490 160 582 255 619 350 c 0
 650 432 639 535 532 537 c 0
 424 539 331 445 295 350 c 0
92 350 m 0
 156 552 355 719 571 719 c 0
 779 719 881 539 822 350 c 0
 758 146 558 -28 339 -27 c 0
 127 -26 33 161 92 350 c 0
828 930 m 1
 614 788 l 1
 524 840 l 1
 713 992 l 1
 828 930 l 1
EndSplineSet
EndChar

StartChar: Ocircumflex
Encoding: 212 212 205
Width: 782
VWidth: 0
Flags: HMW
LayerCount: 2
Fore
SplineSet
295 350 m 0
 264 269 276 166 382 163 c 0
 490 160 582 255 619 350 c 0
 650 432 639 535 532 537 c 0
 424 539 331 445 295 350 c 0
92 350 m 0
 156 552 355 719 571 719 c 0
 779 719 881 539 822 350 c 0
 758 146 558 -28 339 -27 c 0
 127 -26 33 161 92 350 c 0
663 888 m 1
 525 796 l 1
 482 841 l 1
 675 976 l 1
 787 831 l 1
 733 796 l 1
 663 888 l 1
EndSplineSet
EndChar

StartChar: Otilde
Encoding: 213 213 206
Width: 782
VWidth: 0
Flags: HMW
LayerCount: 2
Fore
SplineSet
295 350 m 0
 264 269 276 166 382 163 c 0
 490 160 582 255 619 350 c 0
 650 432 639 535 532 537 c 0
 424 539 331 445 295 350 c 0
92 350 m 0
 156 552 355 719 571 719 c 0
 779 719 881 539 822 350 c 0
 758 146 558 -28 339 -27 c 0
 127 -26 33 161 92 350 c 0
476 858 m 1
 466 897 565 936 593 935 c 0
 632 934 655 888 694 891 c 0
 722 893 746 920 766 937 c 1
 803 889 l 1
 775 858 733 818 687 822 c 0
 649 825 628 869 590 867 c 0
 560 865 538 838 521 817 c 1
 476 858 l 1
EndSplineSet
EndChar

StartChar: Odieresis
Encoding: 214 214 207
Width: 782
VWidth: 0
Flags: HMW
LayerCount: 2
Fore
SplineSet
295 350 m 0
 264 269 276 166 382 163 c 0
 490 160 582 255 619 350 c 0
 650 432 639 535 532 537 c 0
 424 539 331 445 295 350 c 0
92 350 m 0
 156 552 355 719 571 719 c 0
 779 719 881 539 822 350 c 0
 758 146 558 -28 339 -27 c 0
 127 -26 33 161 92 350 c 0
660 872 m 0
 674 920 730 960 780 960 c 0
 830 960 866 917 852 867 c 0
 838 819 783 780 733 780 c 0
 683 780 646 822 660 872 c 0
417 872 m 0
 431 920 486 960 535 960 c 0
 585 960 623 917 609 867 c 0
 595 819 539 780 489 780 c 0
 439 780 403 822 417 872 c 0
EndSplineSet
EndChar

StartChar: Ugrave
Encoding: 217 217 208
Width: 683
VWidth: 0
Flags: HMW
LayerCount: 2
Fore
SplineSet
245 700 m 1
 438 700 l 1
 280 247 l 2
 266 201 266 145 326 142 c 0
 388 139 438 195 460 248 c 1
 617 700 l 1
 810 700 l 1
 650 230 l 2
 594 74 456 -35 287 -35 c 0
 128 -35 40 76 85 230 c 0
 245 700 l 1
444 934 m 1
 578 986 l 1
 669 819 l 1
 569 779 l 1
 444 934 l 1
EndSplineSet
EndChar

StartChar: Uacute
Encoding: 218 218 209
Width: 683
VWidth: 0
Flags: HMW
LayerCount: 2
Fore
SplineSet
245 700 m 1
 438 700 l 1
 280 247 l 2
 266 201 266 145 326 142 c 0
 388 139 438 195 460 248 c 1
 617 700 l 1
 810 700 l 1
 650 230 l 2
 594 74 456 -35 287 -35 c 0
 128 -35 40 76 85 230 c 0
 245 700 l 1
769 922 m 1
 555 780 l 1
 465 832 l 1
 655 984 l 1
 769 922 l 1
EndSplineSet
EndChar

StartChar: Ucircumflex
Encoding: 219 219 210
Width: 683
VWidth: 0
Flags: HMW
LayerCount: 2
Fore
SplineSet
245 700 m 1
 438 700 l 1
 280 247 l 2
 266 201 266 145 326 142 c 0
 388 139 438 195 460 248 c 1
 617 700 l 1
 810 700 l 1
 650 230 l 2
 594 74 456 -35 287 -35 c 0
 128 -35 40 76 85 230 c 0
 245 700 l 1
589 858 m 1
 482 779 l 1
 383 867 l 1
 621 1001 l 1
 779 854 l 1
 641 777 l 1
 589 858 l 1
EndSplineSet
EndChar

StartChar: Udieresis
Encoding: 220 220 211
Width: 683
VWidth: 0
Flags: HMW
LayerCount: 2
Fore
SplineSet
245 700 m 1
 438 700 l 1
 280 247 l 2
 266 201 266 145 326 142 c 0
 388 139 438 195 460 248 c 1
 617 700 l 1
 810 700 l 1
 650 230 l 2
 594 74 456 -35 287 -35 c 0
 128 -35 40 76 85 230 c 0
 245 700 l 1
634 872 m 0
 648 920 704 960 754 960 c 0
 804 960 841 917 827 867 c 0
 813 819 757 780 707 780 c 0
 657 780 620 822 634 872 c 0
343 872 m 0
 357 920 412 960 462 960 c 0
 512 960 549 917 535 867 c 0
 521 819 465 780 415 780 c 0
 365 780 329 822 343 872 c 0
EndSplineSet
EndChar

StartChar: Yacute
Encoding: 221 221 212
Width: 653
VWidth: 0
Flags: HMW
LayerCount: 2
Fore
SplineSet
754 922 m 1
 540 780 l 1
 450 832 l 1
 640 984 l 1
 754 922 l 1
619 699 m 1
 850 699 l 1
 464 270 l 1
 372 0 l 1
 174 0 l 1
 274 289 l 1
 184 700 l 1
 396 700 l 1
 425 465 l 1
 619 699 l 1
EndSplineSet
EndChar

StartChar: agrave
Encoding: 224 224 213
Width: 530
VWidth: 0
Flags: HMW
LayerCount: 2
Fore
SplineSet
180 137 m 0
 174 114 192 102 212 100 c 0
 268 95 307 146 334 188 c 1
 332 128 l 1
 295 47 226 -8 134 -9 c 0
 51 -10 -18 42 7 130 c 0
 35 227 144 275 238 276 c 0
 292 277 339 262 382 230 c 1
 358 153 l 1
 331 174 306 189 270 187 c 0
 241 185 189 169 180 137 c 0
168 306 m 1
 146 425 l 1
 216 451 290 474 366 474 c 0
 458 474 567 432 540 321 c 1
 431 0 l 1
 266 0 l 1
 368 282 l 1
 375 317 361 336 324 341 c 0
 272 347 216 324 168 306 c 1
284 690 m 1
 417 742 l 1
 509 575 l 1
 408 534 l 1
 284 690 l 1
EndSplineSet
Substitution2: "alt a" agrave.alt
EndChar

StartChar: aacute
Encoding: 225 225 214
Width: 530
VWidth: 0
Flags: HMW
LayerCount: 2
Fore
SplineSet
180 137 m 0
 174 114 192 102 212 100 c 0
 268 95 307 146 334 188 c 1
 332 128 l 1
 295 47 226 -8 134 -9 c 0
 51 -10 -18 42 7 130 c 0
 35 227 144 275 238 276 c 0
 292 277 339 262 382 230 c 1
 358 153 l 1
 331 174 306 189 270 187 c 0
 241 185 189 169 180 137 c 0
168 306 m 1
 146 425 l 1
 216 451 290 474 366 474 c 0
 458 474 567 432 540 321 c 1
 431 0 l 1
 266 0 l 1
 368 282 l 1
 375 317 361 336 324 341 c 0
 272 347 216 324 168 306 c 1
617 678 m 1
 403 536 l 1
 314 588 l 1
 504 739 l 1
 617 678 l 1
EndSplineSet
Substitution2: "alt a" aacute.alt
EndChar

StartChar: acircumflex
Encoding: 226 226 215
Width: 530
VWidth: 0
Flags: HMW
LayerCount: 2
Fore
SplineSet
180 137 m 0
 174 114 192 102 212 100 c 0
 268 95 307 146 334 188 c 1
 332 128 l 1
 295 47 226 -8 134 -9 c 0
 51 -10 -18 42 7 130 c 0
 35 227 144 275 238 276 c 0
 292 277 339 262 382 230 c 1
 358 153 l 1
 331 174 306 189 270 187 c 0
 241 185 189 169 180 137 c 0
168 306 m 1
 146 425 l 1
 216 451 290 474 366 474 c 0
 458 474 567 432 540 321 c 1
 431 0 l 1
 266 0 l 1
 368 282 l 1
 375 317 361 336 324 341 c 0
 272 347 216 324 168 306 c 1
433 614 m 1
 326 535 l 1
 227 623 l 1
 464 756 l 1
 624 610 l 1
 484 533 l 1
 433 614 l 1
EndSplineSet
Substitution2: "alt a" acircumflex.alt
EndChar

StartChar: atilde
Encoding: 227 227 216
Width: 530
VWidth: 0
Flags: HMW
LayerCount: 2
Fore
SplineSet
180 137 m 0
 174 114 192 102 212 100 c 0
 268 95 307 146 334 188 c 1
 332 128 l 1
 295 47 226 -8 134 -9 c 0
 51 -10 -18 42 7 130 c 0
 35 227 144 275 238 276 c 0
 292 277 339 262 382 230 c 1
 358 153 l 1
 331 174 306 189 270 187 c 0
 241 185 189 169 180 137 c 0
168 306 m 1
 146 425 l 1
 216 451 290 474 366 474 c 0
 458 474 567 432 540 321 c 1
 431 0 l 1
 266 0 l 1
 368 282 l 1
 375 317 361 336 324 341 c 0
 272 347 216 324 168 306 c 1
226 614 m 1
 259 661 307 711 369 708 c 0
 413 706 440 654 484 657 c 0
 518 659 545 689 569 710 c 1
 625 621 l 1
 587 580 528 531 467 536 c 0
 423 540 393 596 348 589 c 0
 319 584 302 561 285 540 c 1
 226 614 l 1
EndSplineSet
Substitution2: "alt a" atilde.alt
EndChar

StartChar: adieresis
Encoding: 228 228 217
Width: 530
VWidth: 0
Flags: HMW
LayerCount: 2
Fore
SplineSet
180 137 m 0
 174 114 192 102 212 100 c 0
 268 95 307 146 334 188 c 1
 332 128 l 1
 295 47 226 -8 134 -9 c 0
 51 -10 -18 42 7 130 c 0
 35 227 144 275 238 276 c 0
 292 277 339 262 382 230 c 1
 358 153 l 1
 331 174 306 189 270 187 c 0
 241 185 189 169 180 137 c 0
168 306 m 1
 146 425 l 1
 216 451 290 474 366 474 c 0
 458 474 567 432 540 321 c 1
 431 0 l 1
 266 0 l 1
 368 282 l 1
 375 317 361 336 324 341 c 0
 272 347 216 324 168 306 c 1
455 628 m 0
 469 676 523 716 573 716 c 0
 623 716 660 673 646 623 c 0
 632 575 577 535 527 535 c 0
 476 535 441 578 455 628 c 0
211 628 m 0
 225 676 280 716 330 716 c 0
 380 716 416 673 402 623 c 0
 388 575 333 535 283 535 c 0
 233 535 197 578 211 628 c 0
EndSplineSet
Substitution2: "alt a" adieresis.alt
EndChar

StartChar: aring
Encoding: 229 229 218
Width: 530
VWidth: 0
Flags: HMW
LayerCount: 2
Fore
SplineSet
180 137 m 0
 174 114 192 102 212 100 c 0
 268 95 307 146 334 188 c 1
 332 128 l 1
 295 47 226 -8 134 -9 c 0
 51 -10 -18 42 7 130 c 0
 35 227 144 275 238 276 c 0
 292 277 339 262 382 230 c 1
 358 153 l 1
 331 174 306 189 270 187 c 0
 241 185 189 169 180 137 c 0
168 306 m 1
 146 425 l 1
 216 451 290 474 366 474 c 0
 458 474 567 432 540 321 c 1
 431 0 l 1
 266 0 l 1
 368 282 l 1
 375 317 361 336 324 341 c 0
 272 347 216 324 168 306 c 1
310 658 m 0
 329 724 401 775 469 775 c 0
 537 775 585 721 566 654 c 0
 547 587 474 535 405 535 c 0
 337 535 291 591 310 658 c 0
396 654 m 0
 391 638 398 613 417 611 c 0
 439 609 473 638 480 657 c 0
 485 673 478 698 459 700 c 0
 437 702 403 673 396 654 c 0
EndSplineSet
Substitution2: "alt a" aring.alt
EndChar

StartChar: germandbls
Encoding: 223 223 219
Width: 563
VWidth: 0
Flags: HMW
LayerCount: 2
Fore
SplineSet
259 148 m 1
 326 160 390 193 415 262 c 0
 441 334 381 348 323 354 c 1
 361 476 l 1
 502 467 621 379 575 224 c 0
 526 60 369 -1 212 -9 c 1
 259 148 l 1
340 409 m 1
 372 513 l 1
 414 519 477 531 489 581 c 0
 498 615 476 639 442 639 c 0
 400 639 364 618 351 580 c 2
 150 0 l 1
 -15 0 l 1
 191 607 l 2
 232 726 352 798 479 798 c 0
 592 798 695 728 659 605 c 0
 619 464 472 416 340 409 c 1
EndSplineSet
EndChar

StartChar: ae
Encoding: 230 230 220
Width: 865
VWidth: 0
Flags: HMW
LayerCount: 2
Fore
SplineSet
179 137 m 0
 172 114 191 102 211 100 c 0
 267 95 303 146 328 188 c 1
 392 127 l 1
 348 32 264 -10 161 -9 c 0
 78 -9 -21 30 7 130 c 0
 34 227 145 275 238 276 c 0
 292 277 339 262 382 230 c 1
 358 153 l 1
 331 174 304 189 268 187 c 0
 239 185 188 169 179 137 c 0
168 306 m 1
 146 425 l 1
 215 451 290 475 366 474 c 0
 465 472 507 417 481 321 c 1
 418 130 l 1
 310 131 l 1
 368 280 l 1
 376 315 361 336 325 341 c 0
 273 348 216 324 168 306 c 1
412 194 m 1
 439 283 l 1
 864 283 l 1
 849 193 l 1
 412 194 l 1
690 241 m 2
 702 279 724 350 664 356 c 0
 604 362 563 297 540 251 c 2
 529 229 l 1
 512 185 503 120 565 113 c 0
 608 108 648 136 680 161 c 1
 830 128 l 1
 758 46 662 -10 550 -10 c 0
 404 -9 358 100 399 230 c 0
 404 247 412 263 419 279 c 0
 474 390 585 470 711 470 c 0
 847 470 898 359 865 238 c 0
 861 223 856 209 851 194 c 1
 680 215 l 1
 690 241 l 2
EndSplineSet
EndChar

StartChar: ccedilla
Encoding: 231 231 221
Width: 468
VWidth: 0
Flags: HMW
LayerCount: 2
Fore
SplineSet
225 229 m 0
 206 178 227 131 284 128 c 0
 338 124 388 157 430 187 c 1
 383 25 l 1
 338 4 291 -10 241 -10 c 0
 104 -10 8 93 49 231 c 0
 92 374 237 470 383 470 c 0
 431 470 474 458 516 436 c 1
 467 271 l 1
 445 308 420 334 374 333 c 0
 314 332 246 285 225 229 c 0
176 60 m 1
 310 55 l 1
 169 -70 l 1
 181 -67 195 -65 207 -66 c 0
 263 -70 289 -121 274 -172 c 0
 254 -241 177 -279 110 -283 c 0
 55 -286 7 -267 -41 -241 c 1
 27 -168 l 1
 49 -181 71 -193 99 -192 c 0
 117 -191 168 -178 171 -155 c 0
 174 -134 141 -128 128 -127 c 0
 96 -125 62 -134 30 -140 c 1
 176 60 l 1
EndSplineSet
EndChar

StartChar: egrave
Encoding: 232 232 222
Width: 558
VWidth: 0
Flags: HMW
LayerCount: 2
Fore
SplineSet
134 194 m 1
 162 282 l 1
 389 284 l 1
 393 316 396 353 354 357 c 0
 294 363 255 296 232 251 c 2
 221 229 l 1
 204 185 196 120 257 113 c 0
 300 108 340 136 372 161 c 1
 523 128 l 1
 451 45 356 -10 243 -10 c 0
 101 -10 10 88 51 230 c 0
 56 247 62 263 69 279 c 0
 125 398 248 470 378 470 c 0
 519 470 594 375 558 238 c 0
 554 223 549 209 544 194 c 1
 134 194 l 1
300 688 m 1
 434 740 l 1
 525 573 l 1
 425 532 l 1
 300 688 l 1
EndSplineSet
EndChar

StartChar: eacute
Encoding: 233 233 223
Width: 558
VWidth: 0
Flags: HMW
LayerCount: 2
Fore
SplineSet
134 194 m 1
 162 282 l 1
 389 284 l 1
 393 316 396 353 354 357 c 0
 294 363 255 296 232 251 c 2
 221 229 l 1
 204 185 196 120 257 113 c 0
 300 108 340 136 372 161 c 1
 523 128 l 1
 451 45 356 -10 243 -10 c 0
 101 -10 10 88 51 230 c 0
 56 247 62 263 69 279 c 0
 125 398 248 470 378 470 c 0
 519 470 594 375 558 238 c 0
 554 223 549 209 544 194 c 1
 134 194 l 1
631 676 m 1
 417 533 l 1
 327 586 l 1
 516 738 l 1
 631 676 l 1
EndSplineSet
EndChar

StartChar: ecircumflex
Encoding: 234 234 224
Width: 558
VWidth: 0
Flags: HMW
LayerCount: 2
Fore
SplineSet
134 194 m 1
 162 282 l 1
 389 284 l 1
 393 316 396 353 354 357 c 0
 294 363 255 296 232 251 c 2
 221 229 l 1
 204 185 196 120 257 113 c 0
 300 108 340 136 372 161 c 1
 523 128 l 1
 451 45 356 -10 243 -10 c 0
 101 -10 10 88 51 230 c 0
 56 247 62 263 69 279 c 0
 125 398 248 470 378 470 c 0
 519 470 594 375 558 238 c 0
 554 223 549 209 544 194 c 1
 134 194 l 1
446 611 m 1
 339 531 l 1
 240 619 l 1
 477 753 l 1
 636 607 l 1
 497 529 l 1
 446 611 l 1
EndSplineSet
EndChar

StartChar: edieresis
Encoding: 235 235 225
Width: 558
VWidth: 0
Flags: HMW
LayerCount: 2
Fore
SplineSet
134 194 m 1
 162 282 l 1
 389 284 l 1
 393 316 396 353 354 357 c 0
 294 363 255 296 232 251 c 2
 221 229 l 1
 204 185 196 120 257 113 c 0
 300 108 340 136 372 161 c 1
 523 128 l 1
 451 45 356 -10 243 -10 c 0
 101 -10 10 88 51 230 c 0
 56 247 62 263 69 279 c 0
 125 398 248 470 378 470 c 0
 519 470 594 375 558 238 c 0
 554 223 549 209 544 194 c 1
 134 194 l 1
467 625 m 0
 481 673 536 712 586 712 c 0
 636 712 673 669 659 619 c 0
 645 571 589 532 539 532 c 0
 489 532 453 575 467 625 c 0
223 625 m 0
 237 673 293 712 343 712 c 0
 393 712 429 669 415 619 c 0
 401 571 345 532 295 532 c 0
 245 532 209 575 223 625 c 0
EndSplineSet
EndChar

StartChar: igrave
Encoding: 236 236 226
Width: 264
VWidth: 0
Flags: HMW
LayerCount: 2
Fore
SplineSet
152 460 m 1
 319 460 l 1
 161 0 l 1
 -5 0 l 1
 152 460 l 1
137 689 m 1
 270 742 l 1
 362 574 l 1
 261 534 l 1
 137 689 l 1
EndSplineSet
EndChar

StartChar: dotlessi
Encoding: 305 305 227
Width: 264
VWidth: 0
Flags: HMW
LayerCount: 2
Fore
SplineSet
152 460 m 1
 319 460 l 1
 161 0 l 1
 -5 0 l 1
 152 460 l 1
EndSplineSet
EndChar

StartChar: kgreenlandic
Encoding: 312 312 228
Width: 587
VWidth: 0
Flags: HMW
LayerCount: 2
Fore
SplineSet
150 460 m 1
 315 460 l 1
 157 0 l 1
 -7 0 l 1
 150 460 l 1
459 459 m 1
 675 459 l 1
 414 262 l 1
 521 0 l 1
 338 0 l 1
 219 279 l 1
 459 459 l 1
EndSplineSet
EndChar

StartChar: iacute
Encoding: 237 237 229
Width: 264
VWidth: 0
Flags: HMW
LayerCount: 2
Fore
SplineSet
152 460 m 1
 319 460 l 1
 161 0 l 1
 -5 0 l 1
 152 460 l 1
480 677 m 1
 266 535 l 1
 176 587 l 1
 366 739 l 1
 480 677 l 1
EndSplineSet
EndChar

StartChar: icircumflex
Encoding: 238 238 230
Width: 264
VWidth: 0
Flags: HMW
LayerCount: 2
Fore
SplineSet
152 460 m 1
 319 460 l 1
 161 0 l 1
 -5 0 l 1
 152 460 l 1
295 612 m 1
 188 532 l 1
 90 621 l 1
 326 755 l 1
 485 608 l 1
 347 531 l 1
 295 612 l 1
EndSplineSet
EndChar

StartChar: idieresis
Encoding: 239 239 231
Width: 264
VWidth: 0
Flags: HMW
LayerCount: 2
Fore
SplineSet
152 460 m 1
 319 460 l 1
 161 0 l 1
 -5 0 l 1
 152 460 l 1
318 630 m 0
 332 678 388 717 438 717 c 0
 488 717 524 674 510 624 c 0
 496 576 441 536 391 536 c 0
 341 536 304 580 318 630 c 0
74 630 m 0
 88 678 144 717 194 717 c 0
 244 717 281 674 267 624 c 0
 253 576 197 536 147 536 c 0
 96 536 60 580 74 630 c 0
EndSplineSet
EndChar

StartChar: ntilde
Encoding: 241 241 232
Width: 556
VWidth: 0
Flags: HMW
LayerCount: 2
Fore
SplineSet
324 460 m 1
 166 0 l 1
 -7 0 l 1
 151 460 l 1
 324 460 l 1
375 280 m 1
 382 306 391 345 354 352 c 0
 313 359 281 309 262 281 c 1
 230 273 l 1
 266 370 331 469 446 471 c 0
 554 473 582 391 556 299 c 1
 455 0 l 1
 275 0 l 1
 375 280 l 1
235 610 m 1
 268 657 316 708 378 705 c 0
 423 703 447 651 492 654 c 0
 526 656 554 685 578 706 c 1
 634 617 l 1
 595 576 537 527 476 532 c 0
 432 536 402 592 357 585 c 0
 328 580 310 557 293 536 c 1
 235 610 l 1
EndSplineSet
EndChar

StartChar: ograve
Encoding: 242 242 233
Width: 568
VWidth: 0
Flags: HMW
LayerCount: 2
Fore
SplineSet
50 231 m 0
 92 371 235 471 380 471 c 0
 517 471 609 364 568 229 c 0
 526 89 383 -10 238 -10 c 0
 101 -10 9 96 50 231 c 0
225 229 m 0
 210 190 216 136 267 133 c 0
 321 130 375 184 393 231 c 0
 408 270 402 325 351 328 c 0
 297 331 243 276 225 229 c 0
315 689 m 1
 448 742 l 1
 540 574 l 1
 440 534 l 1
 315 689 l 1
EndSplineSet
EndChar

StartChar: oacute
Encoding: 243 243 234
Width: 568
VWidth: 0
Flags: HMW
LayerCount: 2
Fore
SplineSet
50 231 m 0
 92 371 235 471 380 471 c 0
 517 471 609 364 568 229 c 0
 526 89 383 -10 238 -10 c 0
 101 -10 9 96 50 231 c 0
225 229 m 0
 210 190 216 136 267 133 c 0
 321 130 375 184 393 231 c 0
 408 270 402 325 351 328 c 0
 297 331 243 276 225 229 c 0
616 677 m 1
 403 535 l 1
 312 587 l 1
 502 739 l 1
 616 677 l 1
EndSplineSet
EndChar

StartChar: ocircumflex
Encoding: 244 244 235
Width: 568
VWidth: 0
Flags: HMW
LayerCount: 2
Fore
SplineSet
50 231 m 0
 92 371 235 471 380 471 c 0
 517 471 609 364 568 229 c 0
 526 89 383 -10 238 -10 c 0
 101 -10 9 96 50 231 c 0
225 229 m 0
 210 190 216 136 267 133 c 0
 321 130 375 184 393 231 c 0
 408 270 402 325 351 328 c 0
 297 331 243 276 225 229 c 0
448 614 m 1
 342 534 l 1
 243 623 l 1
 479 756 l 1
 639 610 l 1
 500 533 l 1
 448 614 l 1
EndSplineSet
EndChar

StartChar: otilde
Encoding: 245 245 236
Width: 568
VWidth: 0
Flags: HMW
LayerCount: 2
Fore
SplineSet
50 231 m 0
 92 371 235 471 380 471 c 0
 517 471 609 364 568 229 c 0
 526 89 383 -10 238 -10 c 0
 101 -10 9 96 50 231 c 0
225 229 m 0
 210 190 216 136 267 133 c 0
 321 130 375 184 393 231 c 0
 408 270 402 325 351 328 c 0
 297 331 243 276 225 229 c 0
241 610 m 1
 231 661 347 706 384 705 c 0
 429 704 452 651 497 654 c 0
 531 656 560 685 584 706 c 1
 640 617 l 1
 602 576 543 527 482 532 c 0
 438 536 408 592 363 585 c 0
 334 580 316 557 299 536 c 1
 241 610 l 1
EndSplineSet
EndChar

StartChar: odieresis
Encoding: 246 246 237
Width: 568
VWidth: 0
Flags: HMW
LayerCount: 2
Fore
SplineSet
50 231 m 0
 92 371 235 471 380 471 c 0
 517 471 609 364 568 229 c 0
 526 89 383 -10 238 -10 c 0
 101 -10 9 96 50 231 c 0
225 229 m 0
 210 190 216 136 267 133 c 0
 321 130 375 184 393 231 c 0
 408 270 402 325 351 328 c 0
 297 331 243 276 225 229 c 0
470 630 m 0
 484 678 539 717 589 717 c 0
 639 717 676 674 662 624 c 0
 648 576 592 536 542 536 c 0
 492 536 456 580 470 630 c 0
226 630 m 0
 240 678 296 717 346 717 c 0
 396 717 432 674 418 624 c 0
 404 576 348 536 298 536 c 0
 248 536 212 580 226 630 c 0
EndSplineSet
EndChar

StartChar: ugrave
Encoding: 249 249 238
Width: 556
VWidth: 0
Flags: HMW
LayerCount: 2
Fore
SplineSet
282 0 m 1
 441 460 l 1
 613 460 l 1
 455 0 l 1
 282 0 l 1
232 180 m 1
 225 154 215 115 252 108 c 0
 293 101 326 151 345 179 c 1
 377 187 l 1
 341 90 274 -9 159 -11 c 0
 51 -13 24 69 50 161 c 1
 151 460 l 1
 331 460 l 1
 232 180 l 1
314 689 m 1
 448 742 l 1
 539 574 l 1
 439 534 l 1
 314 689 l 1
EndSplineSet
EndChar

StartChar: uacute
Encoding: 250 250 239
Width: 556
VWidth: 0
Flags: HMW
LayerCount: 2
Fore
SplineSet
282 0 m 1
 441 460 l 1
 613 460 l 1
 455 0 l 1
 282 0 l 1
232 180 m 1
 225 154 215 115 252 108 c 0
 293 101 326 151 345 179 c 1
 377 187 l 1
 341 90 274 -9 159 -11 c 0
 51 -13 24 69 50 161 c 1
 151 460 l 1
 331 460 l 1
 232 180 l 1
604 677 m 1
 391 535 l 1
 301 587 l 1
 491 739 l 1
 604 677 l 1
EndSplineSet
EndChar

StartChar: ucircumflex
Encoding: 251 251 240
Width: 556
VWidth: 0
Flags: HMW
LayerCount: 2
Fore
SplineSet
282 0 m 1
 441 460 l 1
 613 460 l 1
 455 0 l 1
 282 0 l 1
232 180 m 1
 225 154 215 115 252 108 c 0
 293 101 326 151 345 179 c 1
 377 187 l 1
 341 90 274 -9 159 -11 c 0
 51 -13 24 69 50 161 c 1
 151 460 l 1
 331 460 l 1
 232 180 l 1
442 614 m 1
 335 534 l 1
 236 623 l 1
 473 756 l 1
 633 610 l 1
 493 533 l 1
 442 614 l 1
EndSplineSet
EndChar

StartChar: udieresis
Encoding: 252 252 241
Width: 556
VWidth: 0
Flags: HMW
LayerCount: 2
Fore
SplineSet
282 0 m 1
 441 460 l 1
 613 460 l 1
 455 0 l 1
 282 0 l 1
232 180 m 1
 225 154 215 115 252 108 c 0
 293 101 326 151 345 179 c 1
 377 187 l 1
 341 90 274 -9 159 -11 c 0
 51 -13 24 69 50 161 c 1
 151 460 l 1
 331 460 l 1
 232 180 l 1
464 628 m 0
 478 676 533 716 583 716 c 0
 633 716 671 672 657 622 c 0
 643 574 587 535 537 535 c 0
 486 535 450 578 464 628 c 0
221 628 m 0
 235 676 289 716 339 716 c 0
 389 716 426 672 412 622 c 0
 398 574 343 535 293 535 c 0
 242 535 207 578 221 628 c 0
EndSplineSet
EndChar

StartChar: yacute
Encoding: 253 253 242
Width: 516
VWidth: 0
Flags: HMW
LayerCount: 2
Fore
SplineSet
640 459 m 1
 124 -219 l 1
 -54 -219 l 1
 140 37 l 1
 93 460 l 1
 271 460 l 1
 283 87 l 1
 189 89 l 1
 458 459 l 1
 640 459 l 1
602 677 m 1
 388 535 l 1
 299 587 l 1
 488 739 l 1
 602 677 l 1
EndSplineSet
EndChar

StartChar: thorn
Encoding: 254 254 243
Width: 594
VWidth: 0
Flags: HMW
LayerCount: 2
Fore
SplineSet
90 -220 m 1
 -83 -220 l 1
 260 780 l 1
 432 780 l 1
 90 -220 l 1
594 229 m 0
 559 111 449 -10 318 -10 c 0
 186 -10 165 129 196 231 c 0
 231 346 330 469 460 469 c 0
 592 469 626 336 594 229 c 0
416 231 m 0
 431 271 422 328 370 331 c 0
 315 334 259 276 241 229 c 0
 226 190 233 132 285 129 c 0
 340 126 398 184 416 231 c 0
EndSplineSet
EndChar

StartChar: ydieresis
Encoding: 255 255 244
Width: 516
VWidth: 0
Flags: HMW
LayerCount: 2
Fore
SplineSet
640 459 m 1
 124 -219 l 1
 -54 -219 l 1
 140 37 l 1
 93 460 l 1
 271 460 l 1
 283 87 l 1
 189 89 l 1
 458 459 l 1
 640 459 l 1
443 625 m 0
 457 673 513 712 563 712 c 0
 613 712 649 669 635 619 c 0
 621 571 565 532 515 532 c 0
 465 532 429 575 443 625 c 0
199 625 m 0
 213 673 268 712 318 712 c 0
 368 712 405 669 391 619 c 0
 377 571 322 532 272 532 c 0
 221 532 185 575 199 625 c 0
EndSplineSet
EndChar

StartChar: Amacron
Encoding: 256 256 245
Width: 715
VWidth: 0
Flags: HMW
LayerCount: 2
Fore
SplineSet
165 109 m 1
 221 254 l 1
 566 255 l 1
 519 109 l 1
 165 109 l 1
450 407 m 1
 291 200 l 1
 289 154 l 1
 162 0 l 1
 -66 0 l 1
 557 752 l 1
 663 0 l 1
 455 0 l 1
 429 150 l 1
 459 200 l 1
 450 407 l 1
398 808 m 1
 450 958 l 1
 813 958 l 1
 760 808 l 1
 398 808 l 1
EndSplineSet
EndChar

StartChar: amacron
Encoding: 257 257 246
Width: 530
VWidth: 0
Flags: HMW
LayerCount: 2
Fore
SplineSet
180 137 m 0
 174 114 192 102 212 100 c 0
 268 95 307 146 334 188 c 1
 332 128 l 1
 295 47 226 -8 134 -9 c 0
 51 -10 -18 42 7 130 c 0
 35 227 144 275 238 276 c 0
 292 277 339 262 382 230 c 1
 358 153 l 1
 331 174 306 189 270 187 c 0
 241 185 189 169 180 137 c 0
168 306 m 1
 146 425 l 1
 216 451 290 474 366 474 c 0
 458 474 567 432 540 321 c 1
 431 0 l 1
 266 0 l 1
 368 282 l 1
 375 317 361 336 324 341 c 0
 272 347 216 324 168 306 c 1
216 538 m 1
 268 688 l 1
 632 688 l 1
 580 537 l 1
 216 538 l 1
EndSplineSet
Substitution2: "alt a" amacron.alt
EndChar

StartChar: breve
Encoding: 728 728 247
Width: 513
VWidth: 0
Flags: HMW
LayerCount: 2
Fore
SplineSet
324 850 m 1
 424 850 l 1
 426 826 428 801 458 797 c 0
 491 793 515 827 531 849 c 1
 641 848 l 1
 608 765 542 703 448 702 c 0
 355 701 315 763 324 850 c 1
EndSplineSet
EndChar

StartChar: Abreve
Encoding: 258 258 248
Width: 715
VWidth: 0
Flags: HMW
LayerCount: 2
Fore
SplineSet
165 109 m 1
 221 254 l 1
 566 255 l 1
 519 109 l 1
 165 109 l 1
450 407 m 1
 291 200 l 1
 289 154 l 1
 162 0 l 1
 -66 0 l 1
 557 752 l 1
 663 0 l 1
 455 0 l 1
 429 150 l 1
 459 200 l 1
 450 407 l 1
470 956 m 1
 571 956 l 1
 572 932 571 907 601 903 c 0
 634 899 658 933 676 955 c 1
 787 953 l 1
 752 870 684 810 590 809 c 0
 496 808 459 870 470 956 c 1
EndSplineSet
EndChar

StartChar: abreve
Encoding: 259 259 249
Width: 530
VWidth: 0
Flags: HMW
LayerCount: 2
Fore
SplineSet
180 137 m 0
 174 114 192 102 212 100 c 0
 268 95 307 146 334 188 c 1
 332 128 l 1
 295 47 226 -8 134 -9 c 0
 51 -10 -18 42 7 130 c 0
 35 227 144 275 238 276 c 0
 292 277 339 262 382 230 c 1
 358 153 l 1
 331 174 306 189 270 187 c 0
 241 185 189 169 180 137 c 0
168 306 m 1
 146 425 l 1
 216 451 290 474 366 474 c 0
 458 474 567 432 540 321 c 1
 431 0 l 1
 266 0 l 1
 368 282 l 1
 375 317 361 336 324 341 c 0
 272 347 216 324 168 306 c 1
287 683 m 1
 388 682 l 1
 389 658 389 634 419 630 c 0
 452 626 476 660 494 682 c 1
 604 680 l 1
 569 597 501 536 407 535 c 0
 313 534 276 597 287 683 c 1
EndSplineSet
Substitution2: "alt a" abreve.alt
EndChar

StartChar: Aogonek
Encoding: 260 260 250
Width: 715
VWidth: 0
Flags: HMW
LayerCount: 2
Fore
SplineSet
165 109 m 1
 221 254 l 1
 566 255 l 1
 519 109 l 1
 165 109 l 1
450 407 m 1
 291 200 l 1
 289 154 l 1
 162 0 l 1
 -66 0 l 1
 557 752 l 1
 663 0 l 1
 455 0 l 1
 429 150 l 1
 459 200 l 1
 450 407 l 1
568 -104 m 1
 577 -183 l 1
 544 -205 511 -221 472 -220 c 0
 415 -218 373 -177 388 -118 c 0
 408 -41 499 -5 563 25 c 1
 604 0 l 1
 570 -25 513 -48 499 -92 c 0
 496 -105 495 -121 511 -124 c 0
 528 -127 553 -111 568 -104 c 1
EndSplineSet
EndChar

StartChar: aogonek
Encoding: 261 261 251
Width: 530
VWidth: 0
Flags: HMW
LayerCount: 2
Fore
SplineSet
180 137 m 0
 175 114 193 102 212 100 c 0
 268 95 307 146 334 188 c 1
 332 128 l 1
 295 47 226 -8 134 -9 c 0
 51 -10 -17 43 8 131 c 0
 36 228 144 275 238 276 c 0
 292 277 339 262 382 230 c 1
 358 153 l 1
 331 174 306 189 270 187 c 0
 241 185 189 169 180 137 c 0
168 306 m 1
 146 425 l 1
 216 451 290 474 366 474 c 0
 458 474 567 432 540 321 c 1
 431 0 l 1
 266 0 l 1
 368 282 l 1
 375 317 361 336 324 341 c 0
 272 347 216 324 168 306 c 1
356 -104 m 1
 365 -183 l 1
 332 -205 298 -221 259 -220 c 0
 202 -218 160 -177 175 -118 c 0
 195 -41 287 -5 351 25 c 1
 391 0 l 1
 357 -25 301 -48 287 -92 c 0
 284 -105 284 -121 300 -124 c 0
 317 -127 341 -111 356 -104 c 1
EndSplineSet
Substitution2: "alt a" aogonek.alt
EndChar

StartChar: Cacute
Encoding: 262 262 252
Width: 663
VWidth: 0
Flags: HMW
LayerCount: 2
Fore
SplineSet
302 350 m 0
 268 259 306 173 409 170 c 0
 493 168 569 213 637 256 c 1
 576 50 l 1
 508 10 434 -19 354 -19 c 0
 144 -19 30 153 92 350 c 0
 157 559 362 720 583 719 c 0
 656 719 716 694 773 649 c 1
 710 442 l 1
 672 497 622 530 553 530 c 0
 444 529 340 450 302 350 c 0
790 922 m 1
 576 780 l 1
 486 832 l 1
 676 984 l 1
 790 922 l 1
EndSplineSet
EndChar

StartChar: cacute
Encoding: 263 263 253
Width: 468
VWidth: 0
Flags: HMW
LayerCount: 2
Fore
SplineSet
225 229 m 0
 206 178 227 131 284 128 c 0
 338 124 388 157 430 187 c 1
 383 25 l 1
 338 4 291 -10 241 -10 c 0
 104 -10 8 93 49 231 c 0
 92 374 237 470 383 470 c 0
 431 470 474 458 516 436 c 1
 467 271 l 1
 445 308 420 334 374 333 c 0
 314 332 246 285 225 229 c 0
591 674 m 1
 377 532 l 1
 287 584 l 1
 477 736 l 1
 591 674 l 1
EndSplineSet
EndChar

StartChar: Ccircumflex
Encoding: 264 264 254
Width: 663
VWidth: 0
Flags: HMW
LayerCount: 2
Fore
SplineSet
302 350 m 0
 268 259 306 173 409 170 c 0
 493 168 569 213 637 256 c 1
 576 50 l 1
 508 10 434 -19 354 -19 c 0
 144 -19 30 153 92 350 c 0
 157 559 362 720 583 719 c 0
 656 719 716 694 773 649 c 1
 710 442 l 1
 672 497 622 530 553 530 c 0
 444 529 340 450 302 350 c 0
650 858 m 1
 542 779 l 1
 444 867 l 1
 681 1001 l 1
 841 854 l 1
 701 777 l 1
 650 858 l 1
EndSplineSet
EndChar

StartChar: ccircumflex
Encoding: 265 265 255
Width: 468
VWidth: 0
Flags: HMW
LayerCount: 2
Fore
SplineSet
225 229 m 0
 206 178 227 131 284 128 c 0
 338 124 388 157 430 187 c 1
 383 25 l 1
 338 4 291 -10 241 -10 c 0
 104 -10 8 93 49 231 c 0
 92 374 237 470 383 470 c 0
 431 470 474 458 516 436 c 1
 467 271 l 1
 445 308 420 334 374 333 c 0
 314 332 246 285 225 229 c 0
411 611 m 1
 304 531 l 1
 205 619 l 1
 442 753 l 1
 602 607 l 1
 462 529 l 1
 411 611 l 1
EndSplineSet
EndChar

StartChar: Cdotaccent
Encoding: 266 266 256
Width: 663
VWidth: 0
Flags: HMW
LayerCount: 2
Fore
SplineSet
302 350 m 0
 268 259 306 173 409 170 c 0
 493 168 569 213 637 256 c 1
 576 50 l 1
 508 10 434 -19 354 -19 c 0
 144 -19 30 153 92 350 c 0
 157 559 362 720 583 719 c 0
 656 719 716 694 773 649 c 1
 710 442 l 1
 672 497 622 530 553 530 c 0
 444 529 340 450 302 350 c 0
518 872 m 0
 532 920 587 960 637 960 c 0
 687 960 723 917 709 867 c 0
 695 819 640 780 590 780 c 0
 540 780 504 822 518 872 c 0
EndSplineSet
EndChar

StartChar: cdotaccent
Encoding: 267 267 257
Width: 468
VWidth: 0
Flags: HMW
LayerCount: 2
Fore
SplineSet
225 229 m 0
 206 178 227 131 284 128 c 0
 338 124 388 157 430 187 c 1
 383 25 l 1
 338 4 291 -10 241 -10 c 0
 104 -10 8 93 49 231 c 0
 92 374 237 470 383 470 c 0
 431 470 474 458 516 436 c 1
 467 271 l 1
 445 308 420 334 374 333 c 0
 314 332 246 285 225 229 c 0
322 633 m 0
 336 681 391 721 441 721 c 0
 491 721 527 678 513 628 c 0
 499 580 444 540 394 540 c 0
 344 540 308 583 322 633 c 0
EndSplineSet
EndChar

StartChar: Ccaron
Encoding: 268 268 258
Width: 663
VWidth: 0
Flags: HMW
LayerCount: 2
Fore
SplineSet
302 350 m 0
 268 259 306 173 409 170 c 0
 493 168 569 213 637 256 c 1
 576 50 l 1
 508 10 434 -19 354 -19 c 0
 144 -19 30 153 92 350 c 0
 157 559 362 720 583 719 c 0
 656 719 716 694 773 649 c 1
 710 442 l 1
 672 497 622 530 553 530 c 0
 444 529 340 450 302 350 c 0
654 921 m 1
 762 1001 l 1
 860 912 l 1
 623 779 l 1
 463 925 l 1
 603 1002 l 1
 654 921 l 1
EndSplineSet
EndChar

StartChar: ccaron
Encoding: 269 269 259
Width: 468
VWidth: 0
Flags: HMW
LayerCount: 2
Fore
SplineSet
225 229 m 0
 206 178 227 131 284 128 c 0
 338 124 388 157 430 187 c 1
 383 25 l 1
 338 4 291 -10 241 -10 c 0
 104 -10 8 93 49 231 c 0
 92 374 237 470 383 470 c 0
 431 470 474 458 516 436 c 1
 467 271 l 1
 445 308 420 334 374 333 c 0
 314 332 246 285 225 229 c 0
416 673 m 1
 522 753 l 1
 621 664 l 1
 384 531 l 1
 224 677 l 1
 364 754 l 1
 416 673 l 1
EndSplineSet
EndChar

StartChar: Dcaron
Encoding: 270 270 260
Width: 705
VWidth: 0
Flags: HMW
LayerCount: 2
Fore
SplineSet
249 700 m 1
 450 700 l 1
 210 0 l 1
 10 0 l 1
 249 700 l 1
273 0 m 0
 136 0 l 1
 198 173 l 1
 303 173 l 0
 415 177 506 245 546 350 c 0
 583 446 551 521 444 526 c 1
 316 527 l 1
 377 700 l 1
 490 700 l 0
 694 695 808 548 746 350 c 0
 681 142 489 5 273 0 c 0
620 921 m 1
 726 1001 l 1
 825 912 l 1
 589 779 l 1
 429 925 l 1
 568 1002 l 1
 620 921 l 1
EndSplineSet
EndChar

StartChar: dcaron
Encoding: 271 271 261
Width: 594
VWidth: 0
Flags: HMW
LayerCount: 2
Fore
SplineSet
589 780 m 1
 762 780 l 1
 494 0 l 1
 322 0 l 1
 589 780 l 1
50 231 m 0
 85 349 196 470 327 470 c 0
 459 470 479 331 448 229 c 0
 413 114 315 -9 185 -9 c 0
 53 -9 18 124 50 231 c 0
229 229 m 0
 214 189 222 132 274 129 c 0
 329 126 385 184 403 231 c 0
 418 270 412 328 360 331 c 0
 305 334 247 276 229 229 c 0
862 778 m 1
 1030 742 l 1
 822 498 l 1
 692 525 l 1
 862 778 l 1
EndSplineSet
EndChar

StartChar: Dcroat
Encoding: 272 272 262
Width: 705
VWidth: 0
Flags: HMW
LayerCount: 2
Fore
SplineSet
47 293 m 1
 86 402 l 1
 429 402 l 1
 391 293 l 1
 47 293 l 1
249 700 m 1
 450 700 l 1
 210 0 l 1
 10 0 l 1
 249 700 l 1
273 0 m 0
 136 0 l 1
 198 173 l 1
 303 173 l 0
 415 177 506 245 546 350 c 0
 583 446 551 521 444 526 c 1
 316 527 l 1
 377 700 l 1
 490 700 l 0
 694 695 808 548 746 350 c 0
 681 142 489 5 273 0 c 0
EndSplineSet
EndChar

StartChar: dcroat
Encoding: 273 273 263
Width: 594
VWidth: 0
Flags: HMW
LayerCount: 2
Fore
SplineSet
410 556 m 1
 448 665 l 1
 808 665 l 1
 770 556 l 1
 410 556 l 1
589 780 m 1
 762 780 l 1
 494 0 l 1
 322 0 l 1
 589 780 l 1
50 231 m 0
 85 349 196 470 327 470 c 0
 459 470 479 331 448 229 c 0
 413 114 315 -9 185 -9 c 0
 53 -9 18 124 50 231 c 0
229 229 m 0
 214 189 222 132 274 129 c 0
 329 126 385 184 403 231 c 0
 418 270 412 328 360 331 c 0
 305 334 247 276 229 229 c 0
EndSplineSet
EndChar

StartChar: Emacron
Encoding: 274 274 264
Width: 583
VWidth: 0
Flags: HMW
LayerCount: 2
Fore
SplineSet
137 0 m 1
 193 160 l 1
 532 160 l 1
 475 0 l 1
 137 0 l 1
322 540 m 1
 378 700 l 1
 716 700 l 1
 660 540 l 1
 322 540 l 1
234 285 m 1
 289 441 l 1
 608 441 l 1
 554 285 l 1
 234 285 l 1
249 700 m 1
 435 700 l 1
 194 0 l 1
 10 0 l 1
 249 700 l 1
326 779 m 1
 379 929 l 1
 743 929 l 1
 690 779 l 1
 326 779 l 1
EndSplineSet
EndChar

StartChar: emacron
Encoding: 275 275 265
Width: 558
VWidth: 0
Flags: HMW
LayerCount: 2
Fore
SplineSet
134 194 m 1
 162 282 l 1
 389 284 l 1
 393 316 396 353 354 357 c 0
 294 363 255 296 232 251 c 2
 221 229 l 1
 204 185 196 120 257 113 c 0
 300 108 340 136 372 161 c 1
 523 128 l 1
 451 45 356 -10 243 -10 c 0
 101 -10 10 88 51 230 c 0
 56 247 62 263 69 279 c 0
 125 398 248 470 378 470 c 0
 519 470 594 375 558 238 c 0
 554 223 549 209 544 194 c 1
 134 194 l 1
228 531 m 1
 280 682 l 1
 645 682 l 1
 591 531 l 1
 228 531 l 1
EndSplineSet
EndChar

StartChar: Ebreve
Encoding: 276 276 266
Width: 583
VWidth: 0
Flags: HMW
LayerCount: 2
Fore
SplineSet
137 0 m 1
 193 160 l 1
 532 160 l 1
 475 0 l 1
 137 0 l 1
322 540 m 1
 378 700 l 1
 716 700 l 1
 660 540 l 1
 322 540 l 1
234 285 m 1
 289 441 l 1
 608 441 l 1
 554 285 l 1
 234 285 l 1
249 700 m 1
 435 700 l 1
 194 0 l 1
 10 0 l 1
 249 700 l 1
398 927 m 1
 499 927 l 1
 500 903 499 878 529 874 c 0
 562 870 587 904 605 926 c 1
 715 924 l 1
 680 841 612 781 518 780 c 0
 424 779 387 841 398 927 c 1
EndSplineSet
EndChar

StartChar: ebreve
Encoding: 277 277 267
Width: 558
VWidth: 0
Flags: HMW
LayerCount: 2
Fore
SplineSet
134 194 m 1
 162 282 l 1
 389 284 l 1
 393 316 396 353 354 357 c 0
 294 363 255 296 232 251 c 2
 221 229 l 1
 204 185 196 120 257 113 c 0
 300 108 340 136 372 161 c 1
 523 128 l 1
 451 45 356 -10 243 -10 c 0
 101 -10 10 88 51 230 c 0
 56 247 62 263 69 279 c 0
 125 398 248 470 378 470 c 0
 519 470 594 375 558 238 c 0
 554 223 549 209 544 194 c 1
 134 194 l 1
300 679 m 1
 401 679 l 1
 402 655 401 630 431 626 c 0
 464 622 489 656 507 678 c 1
 617 677 l 1
 582 594 514 533 420 532 c 0
 326 531 289 593 300 679 c 1
EndSplineSet
EndChar

StartChar: Edotaccent
Encoding: 278 278 268
Width: 583
VWidth: 0
Flags: HMW
LayerCount: 2
Fore
SplineSet
137 0 m 1
 193 160 l 1
 532 160 l 1
 475 0 l 1
 137 0 l 1
322 540 m 1
 378 700 l 1
 716 700 l 1
 660 540 l 1
 322 540 l 1
234 285 m 1
 289 441 l 1
 608 441 l 1
 554 285 l 1
 234 285 l 1
249 700 m 1
 435 700 l 1
 194 0 l 1
 10 0 l 1
 249 700 l 1
443 872 m 0
 457 920 513 960 563 960 c 0
 613 960 649 917 635 867 c 0
 621 819 566 780 516 780 c 0
 466 780 429 822 443 872 c 0
EndSplineSet
EndChar

StartChar: edotaccent
Encoding: 279 279 269
Width: 558
VWidth: 0
Flags: HMW
LayerCount: 2
Fore
SplineSet
134 194 m 1
 162 282 l 1
 389 284 l 1
 393 316 396 353 354 357 c 0
 294 363 255 296 232 251 c 2
 221 229 l 1
 204 185 196 120 257 113 c 0
 300 108 340 136 372 161 c 1
 523 128 l 1
 451 45 356 -10 243 -10 c 0
 101 -10 10 88 51 230 c 0
 56 247 62 263 69 279 c 0
 125 398 248 470 378 470 c 0
 519 470 594 375 558 238 c 0
 554 223 549 209 544 194 c 1
 134 194 l 1
345 625 m 0
 359 673 415 712 465 712 c 0
 515 712 551 669 537 619 c 0
 523 571 467 532 417 532 c 0
 367 532 331 575 345 625 c 0
EndSplineSet
EndChar

StartChar: Eogonek
Encoding: 280 280 270
Width: 583
VWidth: 0
Flags: HMW
LayerCount: 2
Fore
SplineSet
137 0 m 1
 193 160 l 1
 532 160 l 1
 475 0 l 1
 137 0 l 1
322 540 m 1
 378 700 l 1
 716 700 l 1
 660 540 l 1
 322 540 l 1
234 285 m 1
 289 441 l 1
 608 441 l 1
 554 285 l 1
 234 285 l 1
249 700 m 1
 435 700 l 1
 194 0 l 1
 10 0 l 1
 249 700 l 1
295 -104 m 1
 304 -183 l 1
 271 -205 237 -221 198 -220 c 0
 141 -218 99 -177 114 -118 c 0
 134 -41 226 -5 290 25 c 1
 330 0 l 1
 296 -25 240 -48 226 -92 c 0
 223 -105 222 -121 238 -124 c 0
 255 -127 280 -111 295 -104 c 1
EndSplineSet
EndChar

StartChar: eogonek
Encoding: 281 281 271
Width: 558
VWidth: 0
Flags: HMW
LayerCount: 2
Fore
SplineSet
134 194 m 1
 162 282 l 1
 389 284 l 1
 393 316 396 353 354 357 c 0
 294 363 255 296 232 251 c 2
 221 229 l 1
 204 185 196 120 257 113 c 0
 300 108 340 136 372 161 c 1
 523 128 l 1
 451 45 356 -10 243 -10 c 0
 101 -10 10 88 51 230 c 0
 56 247 62 263 69 279 c 0
 125 398 248 470 378 470 c 0
 519 470 594 375 558 238 c 0
 554 223 549 209 544 194 c 1
 134 194 l 1
228 -93 m 1
 237 -172 l 1
 205 -194 171 -209 132 -208 c 0
 75 -206 33 -166 48 -107 c 0
 68 -30 159 6 223 36 c 1
 263 6 l 1
 227 -14 173 -39 159 -81 c 0
 155 -94 155 -109 171 -112 c 0
 188 -115 213 -100 228 -93 c 1
EndSplineSet
EndChar

StartChar: Ecaron
Encoding: 282 282 272
Width: 583
VWidth: 0
Flags: HMW
LayerCount: 2
Fore
SplineSet
137 0 m 1
 193 160 l 1
 532 160 l 1
 475 0 l 1
 137 0 l 1
322 540 m 1
 378 700 l 1
 716 700 l 1
 660 540 l 1
 322 540 l 1
234 285 m 1
 289 441 l 1
 608 441 l 1
 554 285 l 1
 234 285 l 1
249 700 m 1
 435 700 l 1
 194 0 l 1
 10 0 l 1
 249 700 l 1
548 921 m 1
 656 1001 l 1
 754 912 l 1
 517 779 l 1
 358 925 l 1
 496 1002 l 1
 548 921 l 1
EndSplineSet
EndChar

StartChar: ecaron
Encoding: 283 283 273
Width: 558
VWidth: 0
Flags: HMW
LayerCount: 2
Fore
SplineSet
134 194 m 1
 162 282 l 1
 389 284 l 1
 393 316 396 353 354 357 c 0
 294 363 255 296 232 251 c 2
 221 229 l 1
 204 185 196 120 257 113 c 0
 300 108 340 136 372 161 c 1
 523 128 l 1
 451 45 356 -10 243 -10 c 0
 101 -10 10 88 51 230 c 0
 56 247 62 263 69 279 c 0
 125 398 248 470 378 470 c 0
 519 470 594 375 558 238 c 0
 554 223 549 209 544 194 c 1
 134 194 l 1
450 673 m 1
 557 753 l 1
 656 664 l 1
 419 531 l 1
 260 677 l 1
 398 754 l 1
 450 673 l 1
EndSplineSet
EndChar

StartChar: Gcircumflex
Encoding: 284 284 274
Width: 778
VWidth: 0
Flags: HMW
LayerCount: 2
Fore
SplineSet
426 245 m 1
 478 393 l 1
 821 392 l 1
 763 175 587 -26 348 -27 c 0
 135 -27 31 156 92 350 c 0
 158 559 366 721 587 719 c 0
 710 718 795 652 848 544 c 1
 653 461 l 1
 637 512 609 546 551 548 c 0
 435 552 332 452 293 350 c 0
 258 259 274 146 391 143 c 0
 473 141 537 191 591 247 c 1
 426 245 l 1
654 858 m 1
 547 779 l 1
 449 867 l 1
 686 1001 l 1
 845 854 l 1
 706 777 l 1
 654 858 l 1
EndSplineSet
EndChar

StartChar: gcircumflex
Encoding: 285 285 275
Width: 587
VWidth: 0
Flags: HMW
LayerCount: 2
Fore
SplineSet
-33 -34 m 1
 126 -35 l 1
 128 -75 135 -102 182 -103 c 0
 249 -105 301 -45 324 11 c 1
 479 460 l 1
 644 460 l 1
 491 9 l 2
 439 -135 323 -241 165 -242 c 0
 30 -243 -44 -169 -33 -34 c 1
53 239 m 0
 88 357 197 470 327 470 c 0
 457 470 483 342 451 238 c 0
 417 124 319 7 191 7 c 0
 61 7 21 131 53 239 c 0
232 237 m 0
 217 194 230 150 280 146 c 0
 332 142 390 194 406 240 c 0
 421 282 409 327 360 331 c 0
 307 335 249 284 232 237 c 0
482 611 m 1
 374 531 l 1
 276 619 l 1
 513 753 l 1
 672 607 l 1
 533 529 l 1
 482 611 l 1
EndSplineSet
EndChar

StartChar: Gbreve
Encoding: 286 286 276
Width: 778
VWidth: 0
Flags: HMW
LayerCount: 2
Fore
SplineSet
426 245 m 1
 478 393 l 1
 821 392 l 1
 763 175 587 -26 348 -27 c 0
 135 -27 31 156 92 350 c 0
 158 559 366 721 587 719 c 0
 710 718 795 652 848 544 c 1
 653 461 l 1
 637 512 609 546 551 548 c 0
 435 552 332 452 293 350 c 0
 258 259 274 146 391 143 c 0
 473 141 537 191 591 247 c 1
 426 245 l 1
508 927 m 1
 610 927 l 1
 611 903 610 878 640 874 c 0
 673 870 698 904 716 926 c 1
 826 924 l 1
 791 841 723 781 629 780 c 0
 535 779 497 841 508 927 c 1
EndSplineSet
EndChar

StartChar: gbreve
Encoding: 287 287 277
Width: 587
VWidth: 0
Flags: HMW
LayerCount: 2
Fore
SplineSet
-33 -34 m 1
 126 -35 l 1
 128 -75 135 -102 182 -103 c 0
 249 -105 301 -45 324 11 c 1
 479 460 l 1
 644 460 l 1
 491 9 l 2
 439 -135 323 -241 165 -242 c 0
 30 -243 -44 -169 -33 -34 c 1
53 239 m 0
 88 357 197 470 327 470 c 0
 457 470 483 342 451 238 c 0
 417 124 319 7 191 7 c 0
 61 7 21 131 53 239 c 0
232 237 m 0
 217 194 230 150 280 146 c 0
 332 142 390 194 406 240 c 0
 421 282 409 327 360 331 c 0
 307 335 249 284 232 237 c 0
336 679 m 1
 437 679 l 1
 438 655 438 630 468 626 c 0
 501 622 524 656 542 678 c 1
 653 677 l 1
 618 594 550 533 456 532 c 0
 362 531 325 593 336 679 c 1
EndSplineSet
EndChar

StartChar: Gdotaccent
Encoding: 288 288 278
Width: 778
VWidth: 0
Flags: HMW
LayerCount: 2
Fore
SplineSet
426 245 m 1
 478 393 l 1
 821 392 l 1
 763 175 587 -26 348 -27 c 0
 135 -27 31 156 92 350 c 0
 158 559 366 721 587 719 c 0
 710 718 795 652 848 544 c 1
 653 461 l 1
 637 512 609 546 551 548 c 0
 435 552 332 452 293 350 c 0
 258 259 274 146 391 143 c 0
 473 141 537 191 591 247 c 1
 426 245 l 1
555 872 m 0
 569 920 623 960 673 960 c 0
 723 960 759 917 745 867 c 0
 731 819 677 780 627 780 c 0
 577 780 541 822 555 872 c 0
EndSplineSet
EndChar

StartChar: gdotaccent
Encoding: 289 289 279
Width: 587
VWidth: 0
Flags: HMW
LayerCount: 2
Fore
SplineSet
-33 -34 m 1
 126 -35 l 1
 128 -75 135 -102 182 -103 c 0
 249 -105 301 -45 324 11 c 1
 479 460 l 1
 644 460 l 1
 491 9 l 2
 439 -135 323 -241 165 -242 c 0
 30 -243 -44 -169 -33 -34 c 1
53 239 m 0
 88 357 197 470 327 470 c 0
 457 470 483 342 451 238 c 0
 417 124 319 7 191 7 c 0
 61 7 21 131 53 239 c 0
232 237 m 0
 217 194 230 150 280 146 c 0
 332 142 390 194 406 240 c 0
 421 282 409 327 360 331 c 0
 307 335 249 284 232 237 c 0
362 631 m 0
 376 679 432 719 482 719 c 0
 532 719 568 676 554 626 c 0
 540 578 484 538 434 538 c 0
 384 538 348 581 362 631 c 0
EndSplineSet
EndChar

StartChar: uni0122
Encoding: 290 290 280
Width: 778
VWidth: 0
Flags: HMW
LayerCount: 2
Fore
SplineSet
426 245 m 1
 478 393 l 1
 821 392 l 1
 763 175 587 -26 348 -27 c 0
 135 -27 31 156 92 350 c 0
 158 559 366 721 587 719 c 0
 710 718 795 652 848 544 c 1
 653 461 l 1
 637 512 609 546 551 548 c 0
 435 552 332 452 293 350 c 0
 258 259 274 146 391 143 c 0
 473 141 537 191 591 247 c 1
 426 245 l 1
228 -89 m 1
 396 -124 l 1
 188 -368 l 1
 58 -342 l 1
 228 -89 l 1
EndSplineSet
EndChar

StartChar: Hcircumflex
Encoding: 292 292 281
Width: 762
VWidth: 0
Flags: HMW
LayerCount: 2
Fore
SplineSet
148 277 m 1
 210 454 l 1
 731 454 l 1
 670 277 l 1
 148 277 l 1
691 700 m 1
 886 700 l 1
 645 0 l 1
 452 0 l 1
 691 700 l 1
249 700 m 1
 443 700 l 1
 202 0 l 1
 10 0 l 1
 249 700 l 1
629 858 m 1
 522 779 l 1
 423 867 l 1
 660 1001 l 1
 820 854 l 1
 681 777 l 1
 629 858 l 1
EndSplineSet
EndChar

StartChar: hcircumflex
Encoding: 293 293 282
Width: 548
VWidth: 0
Flags: HMW
LayerCount: 2
Fore
SplineSet
434 780 m 1
 166 0 l 1
 -7 0 l 1
 260 780 l 1
 434 780 l 1
375 280 m 1
 382 306 392 345 355 352 c 0
 314 359 281 309 262 281 c 1
 231 282 l 1
 267 379 334 477 449 479 c 0
 558 481 577 397 551 307 c 0
 447 0 l 1
 275 0 l 1
 375 280 l 1
522 920 m 1
 416 840 l 1
 317 928 l 1
 554 1062 l 1
 713 916 l 1
 574 838 l 1
 522 920 l 1
EndSplineSet
EndChar

StartChar: Itilde
Encoding: 296 296 283
Width: 325
VWidth: 0
Flags: HMW
LayerCount: 2
Fore
SplineSet
249 700 m 1
 447 700 l 1
 206 0 l 1
 10 0 l 1
 249 700 l 1
204 858 m 1
 237 905 284 955 346 952 c 0
 391 950 415 898 460 901 c 0
 494 903 522 933 546 954 c 1
 603 865 l 1
 564 824 505 775 444 780 c 0
 400 784 372 840 327 833 c 0
 298 828 279 805 262 784 c 1
 204 858 l 1
EndSplineSet
EndChar

StartChar: itilde
Encoding: 297 297 284
Width: 264
VWidth: 0
Flags: HMW
LayerCount: 2
Fore
SplineSet
152 460 m 1
 319 460 l 1
 161 0 l 1
 -5 0 l 1
 152 460 l 1
88 610 m 1
 121 657 169 708 231 705 c 0
 276 703 300 651 345 654 c 0
 379 656 408 685 432 706 c 1
 488 617 l 1
 449 576 390 527 329 532 c 0
 285 536 256 592 211 585 c 0
 182 580 164 557 147 536 c 1
 88 610 l 1
EndSplineSet
EndChar

StartChar: Imacron
Encoding: 298 298 285
Width: 325
VWidth: 0
Flags: HMW
LayerCount: 2
Fore
SplineSet
249 700 m 1
 447 700 l 1
 206 0 l 1
 10 0 l 1
 249 700 l 1
192 779 m 1
 245 929 l 1
 608 929 l 1
 555 779 l 1
 192 779 l 1
EndSplineSet
EndChar

StartChar: imacron
Encoding: 299 299 286
Width: 264
VWidth: 0
Flags: HMW
LayerCount: 2
Fore
SplineSet
152 460 m 1
 319 460 l 1
 161 0 l 1
 -5 0 l 1
 152 460 l 1
77 531 m 1
 130 682 l 1
 494 682 l 1
 440 531 l 1
 77 531 l 1
EndSplineSet
EndChar

StartChar: Ibreve
Encoding: 300 300 287
Width: 325
VWidth: 0
Flags: HMW
LayerCount: 2
Fore
SplineSet
249 700 m 1
 447 700 l 1
 206 0 l 1
 10 0 l 1
 249 700 l 1
264 927 m 1
 365 927 l 1
 366 903 366 878 396 874 c 0
 429 870 453 904 471 926 c 1
 581 924 l 1
 546 841 478 781 384 780 c 0
 290 779 253 841 264 927 c 1
EndSplineSet
EndChar

StartChar: ibreve
Encoding: 301 301 288
Width: 264
VWidth: 0
Flags: HMW
LayerCount: 2
Fore
SplineSet
152 460 m 1
 319 460 l 1
 161 0 l 1
 -5 0 l 1
 152 460 l 1
149 679 m 1
 249 679 l 1
 250 655 250 630 280 626 c 0
 313 622 338 656 356 678 c 1
 466 677 l 1
 431 594 363 533 269 532 c 0
 175 531 138 593 149 679 c 1
EndSplineSet
EndChar

StartChar: Iogonek
Encoding: 302 302 289
Width: 325
VWidth: 0
Flags: HMW
LayerCount: 2
Fore
SplineSet
249 700 m 1
 447 700 l 1
 206 0 l 1
 10 0 l 1
 249 700 l 1
138 -101 m 1
 148 -180 l 1
 115 -202 82 -218 43 -217 c 0
 -14 -215 -57 -174 -42 -115 c 0
 -23 -38 69 -2 133 28 c 1
 174 -2 l 1
 137 -22 83 -47 69 -90 c 0
 65 -103 66 -118 82 -121 c 0
 99 -124 123 -108 138 -101 c 1
EndSplineSet
EndChar

StartChar: iogonek
Encoding: 303 303 290
Width: 264
VWidth: 0
Flags: HMW
LayerCount: 2
Fore
SplineSet
197 629 m 0
 211 677 265 717 315 717 c 0
 365 717 402 674 388 624 c 0
 374 576 319 536 269 536 c 0
 219 536 183 579 197 629 c 0
152 460 m 1
 319 460 l 1
 161 0 l 1
 -5 0 l 1
 152 460 l 1
93 -104 m 1
 102 -183 l 1
 69 -205 36 -221 -3 -220 c 0
 -60 -218 -102 -177 -87 -118 c 0
 -67 -41 24 -5 88 25 c 1
 128 0 l 1
 94 -25 38 -48 24 -92 c 0
 21 -105 20 -121 36 -124 c 0
 53 -127 78 -111 93 -104 c 1
EndSplineSet
EndChar

StartChar: Idotaccent
Encoding: 304 304 291
Width: 325
VWidth: 0
Flags: HMW
LayerCount: 2
Fore
SplineSet
249 700 m 1
 447 700 l 1
 206 0 l 1
 10 0 l 1
 249 700 l 1
309 872 m 0
 323 920 379 960 429 960 c 0
 479 960 515 917 501 867 c 0
 487 819 432 780 382 780 c 0
 332 780 295 822 309 872 c 0
EndSplineSet
EndChar

StartChar: uni0136
Encoding: 310 310 292
Width: 701
VWidth: 0
Flags: HMW
LayerCount: 2
Fore
SplineSet
249 700 m 1
 451 700 l 1
 211 0 l 1
 10 0 l 1
 249 700 l 1
650 699 m 1
 887 699 l 1
 502 364 l 1
 648 0 l 1
 430 0 l 1
 280 375 l 1
 650 699 l 1
232 -62 m 1
 400 -98 l 1
 192 -342 l 1
 61 -315 l 1
 232 -62 l 1
EndSplineSet
EndChar

StartChar: uni0137
Encoding: 311 311 293
Width: 587
VWidth: 0
Flags: HMW
LayerCount: 2
Fore
SplineSet
259 780 m 1
 424 780 l 1
 157 0 l 1
 -7 0 l 1
 259 780 l 1
459 459 m 1
 675 459 l 1
 414 262 l 1
 521 0 l 1
 338 0 l 1
 219 279 l 1
 459 459 l 1
161 -62 m 1
 328 -98 l 1
 120 -342 l 1
 -10 -315 l 1
 161 -62 l 1
EndSplineSet
EndChar

StartChar: Lacute
Encoding: 313 313 294
Width: 522
VWidth: 0
Flags: HMW
LayerCount: 2
Fore
SplineSet
250 700 m 1
 443 700 l 1
 261 168 l 1
 528 168 l 1
 469 0 l 1
 10 0 l 1
 250 700 l 1
721 922 m 1
 508 780 l 1
 417 832 l 1
 607 984 l 1
 721 922 l 1
EndSplineSet
EndChar

StartChar: lacute
Encoding: 314 314 295
Width: 267
VWidth: 0
Flags: HMW
LayerCount: 2
Fore
SplineSet
260 780 m 1
 434 780 l 1
 165 0 l 1
 -6 0 l 1
 260 780 l 1
582 983 m 1
 369 841 l 1
 278 893 l 1
 468 1045 l 1
 582 983 l 1
EndSplineSet
EndChar

StartChar: uni013B
Encoding: 315 315 296
Width: 522
VWidth: 0
Flags: HMW
LayerCount: 2
Fore
SplineSet
250 700 m 1
 443 700 l 1
 261 168 l 1
 528 168 l 1
 469 0 l 1
 10 0 l 1
 250 700 l 1
172 -62 m 1
 339 -98 l 1
 132 -342 l 1
 1 -315 l 1
 172 -62 l 1
EndSplineSet
EndChar

StartChar: uni013C
Encoding: 316 316 297
Width: 267
VWidth: 0
Flags: HMW
LayerCount: 2
Fore
SplineSet
260 780 m 1
 434 780 l 1
 165 0 l 1
 -6 0 l 1
 260 780 l 1
11 -62 m 1
 178 -98 l 1
 -29 -342 l 1
 -160 -315 l 1
 11 -62 l 1
EndSplineSet
EndChar

StartChar: Lcaron
Encoding: 317 317 298
Width: 522
VWidth: 0
Flags: HMW
LayerCount: 2
Fore
SplineSet
250 700 m 1
 443 700 l 1
 261 168 l 1
 528 168 l 1
 469 0 l 1
 10 0 l 1
 250 700 l 1
601 717 m 1
 767 681 l 1
 561 437 l 1
 430 463 l 1
 601 717 l 1
EndSplineSet
EndChar

StartChar: lcaron
Encoding: 318 318 299
Width: 267
VWidth: 0
Flags: HMW
LayerCount: 2
Fore
SplineSet
260 780 m 1
 434 780 l 1
 165 0 l 1
 -6 0 l 1
 260 780 l 1
553 778 m 1
 720 742 l 1
 513 498 l 1
 382 525 l 1
 553 778 l 1
EndSplineSet
EndChar

StartChar: Ldot
Encoding: 319 319 300
Width: 522
VWidth: 0
Flags: HMW
LayerCount: 2
Fore
SplineSet
250 700 m 1
 443 700 l 1
 261 168 l 1
 528 168 l 1
 469 0 l 1
 10 0 l 1
 250 700 l 1
419 438 m 0
 434 492 494 540 551 540 c 0
 609 540 643 488 628 434 c 0
 613 380 552 331 495 331 c 0
 437 331 404 384 419 438 c 0
EndSplineSet
EndChar

StartChar: ldot
Encoding: 320 320 301
Width: 483
VWidth: 0
Flags: HMW
LayerCount: 2
Fore
SplineSet
260 780 m 1
 434 780 l 1
 165 0 l 1
 -6 0 l 1
 260 780 l 1
332 408 m 0
 347 462 407 511 464 511 c 0
 522 511 555 458 540 404 c 0
 525 350 465 302 408 302 c 0
 350 302 317 354 332 408 c 0
EndSplineSet
EndChar

StartChar: eth
Encoding: 240 240 302
Width: 660
VWidth: 0
Flags: HMW
LayerCount: 2
Fore
SplineSet
459 252 m 0
 477 298 462 352 406 354 c 0
 347 357 285 303 265 250 c 0
 247 203 263 153 318 151 c 0
 376 149 439 199 459 252 c 0
524 696 m 1
 625 463 l 2
 654 395 670 324 648 251 c 0
 601 93 445 -18 281 -18 c 0
 125 -18 27 100 75 252 c 0
 112 369 225 476 352 480 c 0
 400 482 431 461 465 430 c 1
 432 454 l 1
 299 696 l 1
 524 696 l 1
247 521 m 1
 272 602 l 1
 734 602 l 1
 708 521 l 1
 247 521 l 1
EndSplineSet
EndChar

StartChar: racute
Encoding: 341 341 303
Width: 409
VWidth: 0
Flags: HMW
LayerCount: 2
Fore
SplineSet
320 460 m 1
 161 0 l 1
 -7 0 l 1
 151 460 l 1
 320 460 l 1
386 280 m 1
 374 293 362 306 342 307 c 0
 289 309 255 247 233 208 c 1
 219 282 l 1
 253 364 324 477 427 472 c 0
 461 470 480 451 500 427 c 1
 386 280 l 1
571 675 m 1
 357 533 l 1
 267 585 l 1
 457 737 l 1
 571 675 l 1
EndSplineSet
EndChar

StartChar: rcaron
Encoding: 345 345 304
Width: 409
VWidth: 0
Flags: HMW
LayerCount: 2
Fore
SplineSet
320 460 m 1
 161 0 l 1
 -7 0 l 1
 151 460 l 1
 320 460 l 1
386 280 m 1
 374 293 362 306 342 307 c 0
 289 309 255 247 233 208 c 1
 218 282 l 1
 252 364 324 477 427 472 c 0
 461 470 480 451 500 427 c 1
 386 280 l 1
396 674 m 1
 502 754 l 1
 601 665 l 1
 364 532 l 1
 205 678 l 1
 344 755 l 1
 396 674 l 1
EndSplineSet
EndChar

StartChar: Rcaron
Encoding: 344 344 305
Width: 636
VWidth: 0
Flags: HMW
LayerCount: 2
Fore
SplineSet
301 307 m 1
 488 307 l 1
 578 0 l 1
 367 0 l 1
 301 307 l 1
249 700 m 1
 443 700 l 1
 202 0 l 1
 10 0 l 1
 249 700 l 1
313 533 m 1
 369 700 l 1
 503 700 l 0
 642 696 748 613 704 464 c 0
 659 314 514 233 364 229 c 0
 207 229 l 1
 261 380 l 1
 379 380 l 1
 428 383 484 407 502 457 c 0
 518 502 492 527 449 531 c 1
 313 533 l 1
565 921 m 1
 672 1001 l 1
 771 912 l 1
 534 779 l 1
 374 925 l 1
 514 1002 l 1
 565 921 l 1
EndSplineSet
EndChar

StartChar: uni0213
Encoding: 531 531 306
Width: 409
VWidth: 0
Flags: HMW
LayerCount: 2
Fore
SplineSet
320 460 m 1
 161 0 l 1
 -7 0 l 1
 151 460 l 1
 320 460 l 1
386 280 m 1
 374 293 362 306 342 307 c 0
 289 309 255 247 233 208 c 1
 218 282 l 1
 252 364 324 477 427 472 c 0
 461 470 480 451 500 427 c 1
 386 280 l 1
196 530 m 1
 293 532 l 1
 310 554 333 589 366 586 c 0
 400 583 402 559 405 531 c 1
 507 532 l 1
 528 611 510 677 416 679 c 0
 315 681 243 611 196 530 c 1
EndSplineSet
EndChar

StartChar: uni0212
Encoding: 530 530 307
Width: 636
VWidth: 0
Flags: HMW
LayerCount: 2
Fore
SplineSet
301 307 m 1
 488 307 l 1
 578 0 l 1
 367 0 l 1
 301 307 l 1
249 700 m 1
 443 700 l 1
 202 0 l 1
 10 0 l 1
 249 700 l 1
313 533 m 1
 369 700 l 1
 503 700 l 0
 642 696 748 613 704 464 c 0
 659 314 514 233 364 229 c 0
 207 229 l 1
 261 380 l 1
 379 380 l 1
 428 383 484 407 502 457 c 0
 518 502 492 527 449 531 c 1
 313 533 l 1
377 777 m 1
 474 779 l 1
 491 801 513 834 546 831 c 0
 580 828 583 806 586 778 c 1
 687 779 l 1
 708 858 691 924 597 926 c 0
 496 928 424 858 377 777 c 1
EndSplineSet
EndChar

StartChar: OE
Encoding: 338 338 308
Width: 926
VWidth: 0
Flags: HMW
LayerCount: 2
Fore
SplineSet
568 285 m 1
 623 441 l 1
 986 441 l 1
 932 285 l 1
 568 285 l 1
616 670 m 1
 803 670 l 1
 582 30 l 1
 397 30 l 1
 616 670 l 1
904 159 m 1
 853 0 l 1
 324 0 l 0
 130 7 37 171 92 350 c 0
 152 544 336 694 540 700 c 0
 1093 700 l 1
 1037 540 l 1
 676 540 l 1
 655 527 l 1
 544 527 l 0
 429 523 334 459 292 350 c 0
 254 250 291 178 400 173 c 0
 510 173 l 1
 528 160 l 1
 904 159 l 1
EndSplineSet
EndChar

StartChar: oe
Encoding: 339 339 309
Width: 846
VWidth: 0
Flags: HMW
LayerCount: 2
Fore
SplineSet
672 250 m 2
 683 285 700 349 647 356 c 0
 591 363 548 301 527 259 c 2
 513 230 l 1
 496 188 482 114 546 109 c 0
 590 105 629 137 661 162 c 1
 810 128 l 1
 748 55 656 -11 555 -10 c 0
 422 -9 395 124 426 230 c 0
 431 247 437 263 444 279 c 0
 492 380 597 471 714 470 c 0
 843 469 873 338 844 234 c 0
 840 221 834 207 829 194 c 1
 666 232 l 1
 672 250 l 2
466 194 m 1
 494 282 l 1
 839 282 l 1
 828 193 l 1
 466 194 l 1
54 231 m 0
 91 354 208 471 343 470 c 0
 478 469 498 337 466 230 c 0
 430 113 334 -8 201 -9 c 0
 67 -10 20 117 54 231 c 0
222 229 m 0
 207 189 212 136 264 133 c 0
 319 130 368 184 386 231 c 0
 401 271 400 325 347 327 c 0
 292 329 240 276 222 229 c 0
EndSplineSet
EndChar

StartChar: a.alt
Encoding: 65536 -1 310
Width: 594
VWidth: 0
Flags: HMW
LayerCount: 2
Fore
SplineSet
480 460 m 1
 653 460 l 1
 494 0 l 1
 322 0 l 1
 480 460 l 1
50 231 m 0
 85 349 196 470 327 470 c 0
 459 470 477 331 446 229 c 0
 411 114 315 -9 185 -9 c 0
 53 -9 18 124 50 231 c 0
229 229 m 0
 214 189 222 132 274 129 c 0
 329 126 383 184 401 231 c 0
 416 270 412 328 360 331 c 0
 305 334 247 276 229 229 c 0
EndSplineSet
EndChar

StartChar: Jcircumflex
Encoding: 308 308 312
Width: 340
VWidth: 0
Flags: HMW
LayerCount: 2
Fore
SplineSet
-150 -50 m 1
 -131 -65 -110 -83 -85 -82 c 0
 -42 -81 -9 -39 7 -3 c 1
 250 700 l 1
 462 700 l 1
 206 -52 l 2
 159 -180 35 -245 -97 -245 c 0
 -169 -245 -232 -220 -292 -183 c 1
 -150 -50 l 1
417 858 m 1
 310 779 l 1
 212 867 l 1
 448 1001 l 1
 608 854 l 1
 469 777 l 1
 417 858 l 1
EndSplineSet
EndChar

StartChar: jcircumflex
Encoding: 309 309 313
Width: 262
VWidth: 0
Flags: HMW
LayerCount: 2
Fore
SplineSet
-122 -65 m 1
 -114 -76 -104 -89 -88 -90 c 0
 -56 -91 -29 -53 -17 -28 c 1
 152 460 l 1
 317 460 l 1
 135 -78 l 2
 98 -175 13 -245 -94 -244 c 0
 -146 -244 -183 -222 -220 -188 c 1
 -122 -65 l 1
293 611 m 1
 186 531 l 1
 88 619 l 1
 324 753 l 1
 484 607 l 1
 344 529 l 1
 293 611 l 1
EndSplineSet
EndChar

StartChar: Nacute
Encoding: 323 323 314
Width: 752
VWidth: 0
Flags: HMW
LayerCount: 2
Fore
SplineSet
689 700 m 1
 874 700 l 1
 624 -31 l 1
 316 352 l 1
 195 0 l 1
 9 0 l 1
 260 731 l 1
 567 348 l 1
 689 700 l 1
771 907 m 1
 557 765 l 1
 467 817 l 1
 657 968 l 1
 771 907 l 1
EndSplineSet
EndChar

StartChar: nacute
Encoding: 324 324 315
Width: 556
VWidth: 0
Flags: HMW
LayerCount: 2
Fore
SplineSet
324 460 m 1
 166 0 l 1
 -7 0 l 1
 151 460 l 1
 324 460 l 1
375 280 m 1
 382 306 391 345 354 352 c 0
 313 359 281 309 262 281 c 1
 231 273 l 1
 266 370 331 469 446 471 c 0
 554 473 582 391 556 299 c 1
 455 0 l 1
 275 0 l 1
 375 280 l 1
622 674 m 1
 408 532 l 1
 319 584 l 1
 509 736 l 1
 622 674 l 1
EndSplineSet
EndChar

StartChar: uni0145
Encoding: 325 325 316
Width: 752
VWidth: 0
Flags: HMW
LayerCount: 2
Fore
SplineSet
249 -62 m 1
 416 -98 l 1
 209 -342 l 1
 79 -316 l 1
 249 -62 l 1
689 700 m 1
 874 700 l 1
 624 -31 l 1
 316 352 l 1
 195 0 l 1
 9 0 l 1
 260 731 l 1
 567 348 l 1
 689 700 l 1
EndSplineSet
EndChar

StartChar: uni0146
Encoding: 326 326 317
Width: 556
VWidth: 0
Flags: HMW
LayerCount: 2
Fore
SplineSet
324 460 m 1
 166 0 l 1
 -7 0 l 1
 151 460 l 1
 324 460 l 1
375 280 m 1
 382 306 391 345 354 352 c 0
 313 359 281 309 262 281 c 1
 230 273 l 1
 266 370 331 469 446 471 c 0
 554 473 582 391 556 299 c 1
 455 0 l 1
 275 0 l 1
 375 280 l 1
156 -62 m 1
 323 -98 l 1
 116 -342 l 1
 -15 -315 l 1
 156 -62 l 1
EndSplineSet
EndChar

StartChar: Ncaron
Encoding: 327 327 318
Width: 752
VWidth: 0
Flags: HMW
LayerCount: 2
Fore
SplineSet
594 912 m 1
 700 992 l 1
 799 903 l 1
 562 770 l 1
 403 916 l 1
 542 993 l 1
 594 912 l 1
689 700 m 1
 874 700 l 1
 624 -31 l 1
 316 352 l 1
 195 0 l 1
 9 0 l 1
 260 731 l 1
 567 348 l 1
 689 700 l 1
EndSplineSet
EndChar

StartChar: ncaron
Encoding: 328 328 319
Width: 556
VWidth: 0
Flags: HMW
LayerCount: 2
Fore
SplineSet
324 460 m 1
 166 0 l 1
 -7 0 l 1
 151 460 l 1
 324 460 l 1
375 280 m 1
 382 306 391 345 354 352 c 0
 313 359 281 309 262 281 c 1
 230 273 l 1
 266 370 331 469 446 471 c 0
 554 473 582 391 556 299 c 1
 455 0 l 1
 275 0 l 1
 375 280 l 1
445 673 m 1
 553 753 l 1
 652 664 l 1
 414 531 l 1
 255 677 l 1
 393 754 l 1
 445 673 l 1
EndSplineSet
EndChar

StartChar: Omacron
Encoding: 332 332 320
Width: 782
VWidth: 0
Flags: HMW
LayerCount: 2
Fore
SplineSet
295 350 m 0
 264 269 276 166 382 163 c 0
 490 160 582 255 619 350 c 0
 650 432 639 535 532 537 c 0
 424 539 331 445 295 350 c 0
92 350 m 0
 156 552 355 719 571 719 c 0
 779 719 881 539 822 350 c 0
 758 146 558 -28 339 -27 c 0
 127 -26 33 161 92 350 c 0
421 779 m 1
 474 929 l 1
 836 929 l 1
 783 779 l 1
 421 779 l 1
EndSplineSet
EndChar

StartChar: omacron
Encoding: 333 333 321
Width: 568
VWidth: 0
Flags: HMW
LayerCount: 2
Fore
SplineSet
50 231 m 0
 92 371 235 471 380 471 c 0
 517 471 609 364 568 229 c 0
 526 89 383 -10 238 -10 c 0
 101 -10 9 96 50 231 c 0
225 229 m 0
 210 190 216 136 267 133 c 0
 321 130 375 184 393 231 c 0
 408 270 402 325 351 328 c 0
 297 331 243 276 225 229 c 0
230 531 m 1
 283 682 l 1
 645 682 l 1
 592 531 l 1
 230 531 l 1
EndSplineSet
EndChar

StartChar: Obreve
Encoding: 334 334 322
Width: 782
VWidth: 0
Flags: HMW
LayerCount: 2
Fore
SplineSet
295 350 m 0
 264 269 276 166 382 163 c 0
 490 160 582 255 619 350 c 0
 650 432 639 535 532 537 c 0
 424 539 331 445 295 350 c 0
92 350 m 0
 156 552 355 719 571 719 c 0
 779 719 881 539 822 350 c 0
 758 146 558 -28 339 -27 c 0
 127 -26 33 161 92 350 c 0
493 927 m 1
 594 927 l 1
 595 903 595 878 625 874 c 0
 658 870 681 904 699 926 c 1
 810 924 l 1
 775 841 707 781 613 780 c 0
 519 779 482 841 493 927 c 1
EndSplineSet
EndChar

StartChar: obreve
Encoding: 335 335 323
Width: 568
VWidth: 0
Flags: HMW
LayerCount: 2
Fore
SplineSet
50 231 m 0
 92 371 235 471 380 471 c 0
 517 471 609 364 568 229 c 0
 526 89 383 -10 238 -10 c 0
 101 -10 9 96 50 231 c 0
225 229 m 0
 210 190 216 136 267 133 c 0
 321 130 375 184 393 231 c 0
 408 270 402 325 351 328 c 0
 297 331 243 276 225 229 c 0
301 679 m 1
 403 679 l 1
 404 655 403 630 433 626 c 0
 466 622 490 656 508 678 c 1
 619 677 l 1
 584 594 516 533 422 532 c 0
 328 531 290 593 301 679 c 1
EndSplineSet
EndChar

StartChar: Racute
Encoding: 340 340 324
Width: 636
VWidth: 0
Flags: HMW
LayerCount: 2
Fore
SplineSet
301 307 m 1
 488 307 l 1
 578 0 l 1
 367 0 l 1
 301 307 l 1
249 700 m 1
 443 700 l 1
 202 0 l 1
 10 0 l 1
 249 700 l 1
313 533 m 1
 369 700 l 1
 503 700 l 0
 642 696 748 613 704 464 c 0
 659 314 514 233 364 229 c 0
 207 229 l 1
 261 380 l 1
 379 380 l 1
 428 383 484 407 502 457 c 0
 518 502 492 527 449 531 c 1
 313 533 l 1
728 922 m 1
 514 780 l 1
 424 832 l 1
 614 984 l 1
 728 922 l 1
EndSplineSet
EndChar

StartChar: uni0156
Encoding: 342 342 325
Width: 636
VWidth: 0
Flags: HMW
LayerCount: 2
Fore
SplineSet
301 307 m 1
 488 307 l 1
 578 0 l 1
 367 0 l 1
 301 307 l 1
249 700 m 1
 443 700 l 1
 202 0 l 1
 10 0 l 1
 249 700 l 1
313 533 m 1
 369 700 l 1
 503 700 l 0
 642 696 748 613 704 464 c 0
 659 314 514 233 364 229 c 0
 207 229 l 1
 261 380 l 1
 379 380 l 1
 428 383 484 407 502 457 c 0
 518 502 492 527 449 531 c 1
 313 533 l 1
230 -62 m 1
 396 -98 l 1
 189 -342 l 1
 59 -315 l 1
 230 -62 l 1
EndSplineSet
EndChar

StartChar: uni0157
Encoding: 343 343 326
Width: 409
VWidth: 0
Flags: HMW
LayerCount: 2
Fore
SplineSet
320 460 m 1
 161 0 l 1
 -7 0 l 1
 151 460 l 1
 320 460 l 1
386 280 m 1
 374 293 362 306 342 307 c 0
 289 309 255 247 233 208 c 1
 218 282 l 1
 252 364 324 477 427 472 c 0
 461 470 480 451 500 427 c 1
 386 280 l 1
10 -62 m 1
 176 -98 l 1
 -31 -342 l 1
 -160 -315 l 1
 10 -62 l 1
EndSplineSet
EndChar

StartChar: Scedilla
Encoding: 350 350 327
Width: 613
VWidth: 0
Flags: HMW
LayerCount: 2
Fore
SplineSet
184 260 m 1
 203 203 229 144 299 145 c 0
 334 145 379 163 394 198 c 0
 415 250 340 272 306 289 c 0
 216 332 158 412 188 514 c 0
 227 644 366 718 496 718 c 0
 604 718 685 668 711 561 c 1
 550 481 l 1
 533 520 514 552 467 552 c 0
 438 552 394 535 381 506 c 0
 359 456 462 433 492 419 c 0
 584 379 625 295 596 198 c 0
 553 52 403 -28 257 -27 c 0
 136 -26 51 48 28 165 c 1
 184 260 l 1
230 61 m 1
 365 55 l 1
 223 -70 l 1
 235 -67 249 -64 261 -65 c 0
 317 -69 343 -121 328 -172 c 0
 308 -241 232 -279 165 -283 c 0
 110 -286 62 -267 14 -241 c 1
 81 -168 l 1
 103 -181 126 -193 154 -192 c 0
 172 -191 222 -178 225 -155 c 0
 228 -134 196 -128 183 -127 c 0
 151 -125 118 -134 86 -140 c 1
 230 61 l 1
EndSplineSet
EndChar

StartChar: scedilla
Encoding: 351 351 328
Width: 445
VWidth: 0
Flags: HMW
LayerCount: 2
Fore
SplineSet
73 178 m 1
 106 144 149 96 203 103 c 0
 219 105 246 117 251 134 c 0
 261 169 210 180 188 189 c 0
 125 215 86 267 107 337 c 0
 134 425 229 468 315 469 c 0
 385 470 446 442 502 407 c 1
 419 293 l 1
 391 324 359 356 314 354 c 0
 298 354 267 346 260 329 c 0
 246 293 317 280 338 271 c 0
 398 246 437 197 419 129 c 0
 393 32 303 -19 207 -21 c 0
 120 -23 46 13 -20 61 c 1
 73 178 l 1
172 64 m 1
 307 60 l 1
 166 -65 l 1
 178 -62 190 -60 202 -61 c 0
 258 -65 286 -116 271 -168 c 0
 251 -237 174 -276 107 -279 c 0
 52 -282 4 -262 -44 -236 c 1
 22 -163 l 1
 44 -176 68 -189 96 -188 c 0
 114 -187 165 -173 168 -150 c 0
 171 -129 137 -124 124 -123 c 0
 92 -121 59 -130 27 -136 c 1
 172 64 l 1
EndSplineSet
EndChar

StartChar: Zcaron
Encoding: 381 381 329
Width: 607
VWidth: 0
Flags: HMW
LayerCount: 2
Fore
SplineSet
181 523 m 1
 243 700 l 1
 790 699 l 1
 310 169 l 1
 566 168 l 1
 506 0 l 1
 -57 0 l 1
 416 522 l 1
 181 523 l 1
580 921 m 1
 687 1001 l 1
 786 912 l 1
 550 779 l 1
 390 925 l 1
 529 1002 l 1
 580 921 l 1
EndSplineSet
EndChar

StartChar: zcaron
Encoding: 382 382 330
Width: 503
VWidth: 0
Flags: HMW
LayerCount: 2
Fore
SplineSet
445 673 m 1
 552 752 l 1
 650 663 l 1
 414 530 l 1
 255 676 l 1
 393 754 l 1
 445 673 l 1
268 300 m 1
 103 302 l 1
 158 460 l 1
 610 459 l 1
 307 160 l 1
 467 159 l 1
 412 0 l 1
 -49 0 l 1
 268 300 l 1
EndSplineSet
EndChar

StartChar: Ydieresis
Encoding: 376 376 331
Width: 653
VWidth: 0
Flags: HMW
LayerCount: 2
Fore
SplineSet
333 887 m 0
 347 935 403 974 453 974 c 0
 503 974 539 931 525 881 c 0
 511 833 456 794 406 794 c 0
 355 794 319 837 333 887 c 0
624 887 m 0
 638 935 693 974 743 974 c 0
 793 974 830 931 816 881 c 0
 802 833 746 794 696 794 c 0
 645 794 610 837 624 887 c 0
619 699 m 1
 850 699 l 1
 464 270 l 1
 372 0 l 1
 174 0 l 1
 274 289 l 1
 184 700 l 1
 396 700 l 1
 425 465 l 1
 619 699 l 1
EndSplineSet
EndChar

StartChar: Scaron
Encoding: 352 352 332
Width: 613
VWidth: 0
Flags: HMW
LayerCount: 2
Fore
SplineSet
184 260 m 1
 203 203 229 144 299 145 c 0
 334 145 379 163 394 198 c 0
 415 250 340 272 306 289 c 0
 216 333 158 414 188 515 c 0
 227 645 366 718 496 718 c 0
 603 718 686 668 711 561 c 1
 550 481 l 1
 534 519 516 552 469 552 c 0
 439 552 394 535 381 506 c 0
 359 456 462 433 492 419 c 0
 584 379 624 295 595 198 c 0
 552 52 403 -28 257 -27 c 0
 136 -26 51 48 28 165 c 1
 184 260 l 1
568 921 m 1
 675 1001 l 1
 774 912 l 1
 536 779 l 1
 378 925 l 1
 516 1002 l 1
 568 921 l 1
EndSplineSet
EndChar

StartChar: scaron
Encoding: 353 353 333
Width: 445
VWidth: 0
Flags: HMW
LayerCount: 2
Fore
SplineSet
74 178 m 1
 109 145 151 107 204 109 c 0
 218 109 246 117 251 133 c 0
 260 163 176 180 157 190 c 0
 102 218 74 275 91 334 c 0
 119 428 225 468 315 469 c 0
 385 469 447 443 502 407 c 1
 420 293 l 1
 387 324 351 348 304 348 c 0
 289 348 256 342 251 325 c 0
 242 295 320 278 338 270 c 0
 398 245 437 196 419 129 c 0
 393 32 301 -20 205 -22 c 0
 118 -24 44 12 -20 61 c 1
 74 178 l 1
380 656 m 1
 488 736 l 1
 586 648 l 1
 349 514 l 1
 190 660 l 1
 328 738 l 1
 380 656 l 1
EndSplineSet
EndChar

StartChar: Lslash
Encoding: 321 321 334
Width: 529
VWidth: 0
Flags: HMW
LayerCount: 2
Fore
SplineSet
59 298 m 1
 39 386 l 1
 500 652 l 1
 521 566 l 1
 59 298 l 1
250 700 m 1
 443 700 l 1
 261 168 l 1
 528 168 l 1
 469 0 l 1
 10 0 l 1
 250 700 l 1
EndSplineSet
EndChar

StartChar: lslash
Encoding: 322 322 335
Width: 267
VWidth: 0
Flags: HMW
LayerCount: 2
Fore
SplineSet
44 298 m 1
 23 386 l 1
 440 623 l 1
 460 538 l 1
 44 298 l 1
260 780 m 1
 434 780 l 1
 165 0 l 1
 -6 0 l 1
 260 780 l 1
EndSplineSet
EndChar

StartChar: uni0218
Encoding: 536 536 336
Width: 613
VWidth: 0
Flags: HMW
LayerCount: 2
Fore
SplineSet
184 260 m 1
 203 203 229 144 299 145 c 0
 334 145 379 163 394 198 c 0
 415 250 340 272 306 289 c 0
 216 333 158 414 188 515 c 0
 227 645 366 718 496 718 c 0
 603 718 686 668 711 561 c 1
 550 481 l 1
 534 519 516 552 469 552 c 0
 439 552 394 535 381 506 c 0
 359 456 462 433 492 419 c 0
 584 379 625 295 596 198 c 0
 553 52 403 -28 257 -27 c 0
 136 -26 51 48 28 165 c 1
 184 260 l 1
151 -72 m 1
 319 -108 l 1
 111 -352 l 1
 -20 -325 l 1
 151 -72 l 1
EndSplineSet
EndChar

StartChar: uni0219
Encoding: 537 537 337
Width: 445
VWidth: 0
Flags: HMW
LayerCount: 2
Fore
SplineSet
74 178 m 1
 109 145 151 107 204 109 c 0
 218 109 246 117 251 133 c 0
 260 163 176 180 157 190 c 0
 102 218 74 275 91 334 c 0
 119 428 225 468 315 469 c 0
 385 469 447 443 502 407 c 1
 420 293 l 1
 387 324 351 348 304 348 c 0
 289 348 256 342 251 325 c 0
 242 295 320 278 338 270 c 0
 398 245 437 196 419 129 c 0
 393 32 301 -20 205 -22 c 0
 118 -24 44 12 -20 61 c 1
 74 178 l 1
101 -68 m 1
 267 -103 l 1
 60 -347 l 1
 -70 -321 l 1
 101 -68 l 1
EndSplineSet
EndChar

StartChar: pi
Encoding: 960 960 338
Width: 586
VWidth: 0
Flags: HMW
LayerCount: 2
Fore
SplineSet
175 430 m 1
 336 430 l 1
 187 0 l 1
 27 0 l 1
 175 430 l 1
128 460 m 1
 657 460 l 1
 606 318 l 1
 78 318 l 1
 128 460 l 1
410 430 m 1
 571 430 l 1
 486 191 l 1
 474 151 476 137 514 122 c 1
 473 -8 l 1
 380 -8 274 0 306 121 c 1
 410 430 l 1
EndSplineSet
EndChar

StartChar: trademark
Encoding: 8482 8482 339
Width: 728
VWidth: 0
Flags: HMW
LayerCount: 2
Fore
SplineSet
178 611 m 1
 209 700 l 1
 494 700 l 1
 463 611 l 1
 371 611 l 1
 280 350 l 1
 181 350 l 1
 271 611 l 1
 178 611 l 1
727 598 m 1
 845 731 l 1
 772 350 l 1
 671 350 l 1
 727 598 l 1
549 720 m 1
 579 579 l 1
 471 351 l 1
 363 351 l 1
 549 720 l 1
851 733 m 1
 797 584 l 1
 586 379 l 1
 509 603 l 1
 549 716 l 1
 621 522 l 1
 851 733 l 1
EndSplineSet
EndChar

StartChar: uni2219
Encoding: 8729 8729 340
Width: 310
VWidth: 0
Flags: HMW
LayerCount: 2
Fore
SplineSet
152 455 m 0
 167 509 227 557 284 557 c 0
 342 557 375 505 360 451 c 0
 345 397 285 348 228 348 c 0
 170 348 137 401 152 455 c 0
EndSplineSet
EndChar

StartChar: agrave.alt
Encoding: 65537 -1 341
Width: 594
VWidth: 0
Flags: HMW
LayerCount: 2
Fore
SplineSet
480 460 m 1
 653 460 l 1
 494 0 l 1
 322 0 l 1
 480 460 l 1
50 231 m 0
 85 349 196 470 327 470 c 0
 459 470 477 331 446 229 c 0
 411 114 315 -9 185 -9 c 0
 53 -9 18 124 50 231 c 0
229 229 m 0
 214 189 222 132 274 129 c 0
 329 126 383 184 401 231 c 0
 416 270 412 328 360 331 c 0
 305 334 247 276 229 229 c 0
310 686 m 1
 444 738 l 1
 535 571 l 1
 435 531 l 1
 310 686 l 1
EndSplineSet
EndChar

StartChar: aacute.alt
Encoding: 65538 -1 342
Width: 594
VWidth: 0
Flags: HMW
LayerCount: 2
Fore
SplineSet
480 460 m 1
 653 460 l 1
 494 0 l 1
 322 0 l 1
 480 460 l 1
50 231 m 0
 85 349 196 470 327 470 c 0
 459 470 477 331 446 229 c 0
 411 114 315 -9 185 -9 c 0
 53 -9 18 124 50 231 c 0
229 229 m 0
 214 189 222 132 274 129 c 0
 329 126 383 184 401 231 c 0
 416 270 412 328 360 331 c 0
 305 334 247 276 229 229 c 0
622 674 m 1
 408 532 l 1
 318 584 l 1
 508 736 l 1
 622 674 l 1
EndSplineSet
EndChar

StartChar: acircumflex.alt
Encoding: 65539 -1 343
Width: 594
VWidth: 0
Flags: HMW
LayerCount: 2
Fore
SplineSet
480 460 m 1
 653 460 l 1
 494 0 l 1
 322 0 l 1
 480 460 l 1
50 231 m 0
 85 349 196 470 327 470 c 0
 459 470 477 331 446 229 c 0
 411 114 315 -9 185 -9 c 0
 53 -9 18 124 50 231 c 0
229 229 m 0
 214 189 222 132 274 129 c 0
 329 126 383 184 401 231 c 0
 416 270 412 328 360 331 c 0
 305 334 247 276 229 229 c 0
469 611 m 1
 361 531 l 1
 263 619 l 1
 500 753 l 1
 659 607 l 1
 520 529 l 1
 469 611 l 1
EndSplineSet
EndChar

StartChar: atilde.alt
Encoding: 65540 -1 344
Width: 594
VWidth: 0
Flags: HMW
LayerCount: 2
Fore
SplineSet
480 460 m 1
 653 460 l 1
 494 0 l 1
 322 0 l 1
 480 460 l 1
50 231 m 0
 85 349 196 470 327 470 c 0
 459 470 477 331 446 229 c 0
 411 114 315 -9 185 -9 c 0
 53 -9 18 124 50 231 c 0
229 229 m 0
 214 189 222 132 274 129 c 0
 329 126 383 184 401 231 c 0
 416 270 412 328 360 331 c 0
 305 334 247 276 229 229 c 0
270 610 m 1
 300 661 347 706 413 705 c 0
 458 704 482 651 527 654 c 0
 561 656 589 685 613 706 c 1
 669 617 l 1
 631 576 573 527 512 532 c 0
 468 536 438 592 393 585 c 0
 364 580 346 557 329 536 c 1
 270 610 l 1
EndSplineSet
EndChar

StartChar: adieresis.alt
Encoding: 65541 -1 345
Width: 594
VWidth: 0
Flags: HMW
LayerCount: 2
Fore
SplineSet
480 460 m 1
 653 460 l 1
 494 0 l 1
 322 0 l 1
 480 460 l 1
50 231 m 0
 85 349 196 470 327 470 c 0
 459 470 477 331 446 229 c 0
 411 114 315 -9 185 -9 c 0
 53 -9 18 124 50 231 c 0
229 229 m 0
 214 189 222 132 274 129 c 0
 329 126 383 184 401 231 c 0
 416 270 412 328 360 331 c 0
 305 334 247 276 229 229 c 0
482 625 m 0
 496 673 551 712 601 712 c 0
 651 712 688 669 674 619 c 0
 660 571 605 532 555 532 c 0
 505 532 468 575 482 625 c 0
238 625 m 0
 252 673 308 712 358 712 c 0
 408 712 444 669 430 619 c 0
 416 571 360 532 310 532 c 0
 260 532 224 575 238 625 c 0
EndSplineSet
EndChar

StartChar: aring.alt
Encoding: 65542 -1 346
Width: 594
VWidth: 0
Flags: HMW
LayerCount: 2
Fore
SplineSet
480 460 m 1
 653 460 l 1
 494 0 l 1
 322 0 l 1
 480 460 l 1
50 231 m 0
 85 349 196 470 327 470 c 0
 459 470 477 331 446 229 c 0
 411 114 315 -9 185 -9 c 0
 53 -9 18 124 50 231 c 0
229 229 m 0
 214 189 222 132 274 129 c 0
 329 126 383 184 401 231 c 0
 416 270 412 328 360 331 c 0
 305 334 247 276 229 229 c 0
330 654 m 0
 349 720 421 772 489 772 c 0
 557 772 605 717 586 650 c 0
 567 583 494 532 425 532 c 0
 357 532 311 587 330 654 c 0
415 650 m 0
 410 634 417 609 436 607 c 0
 458 605 493 635 500 654 c 0
 505 670 498 695 479 697 c 0
 457 699 422 669 415 650 c 0
EndSplineSet
EndChar

StartChar: amacron.alt
Encoding: 65543 -1 347
Width: 594
VWidth: 0
Flags: HMW
LayerCount: 2
Fore
SplineSet
480 460 m 1
 653 460 l 1
 494 0 l 1
 322 0 l 1
 480 460 l 1
50 231 m 0
 85 349 196 470 327 470 c 0
 459 470 477 331 446 229 c 0
 411 114 315 -9 185 -9 c 0
 53 -9 18 124 50 231 c 0
229 229 m 0
 214 189 222 132 274 129 c 0
 329 126 383 184 401 231 c 0
 416 270 412 328 360 331 c 0
 305 334 247 276 229 229 c 0
250 534 m 1
 302 685 l 1
 665 685 l 1
 613 534 l 1
 250 534 l 1
EndSplineSet
EndChar

StartChar: abreve.alt
Encoding: 65544 -1 348
Width: 594
VWidth: 0
Flags: HMW
LayerCount: 2
Fore
SplineSet
480 460 m 1
 653 460 l 1
 494 0 l 1
 322 0 l 1
 480 460 l 1
50 231 m 0
 85 349 196 470 327 470 c 0
 459 470 477 331 446 229 c 0
 411 114 315 -9 185 -9 c 0
 53 -9 18 124 50 231 c 0
229 229 m 0
 214 189 222 132 274 129 c 0
 329 126 383 184 401 231 c 0
 416 270 412 328 360 331 c 0
 305 334 247 276 229 229 c 0
305 679 m 1
 407 679 l 1
 409 655 407 630 437 626 c 0
 470 622 496 656 513 678 c 1
 623 676 l 1
 588 593 520 533 426 532 c 0
 332 531 294 593 305 679 c 1
EndSplineSet
EndChar

StartChar: aogonek.alt
Encoding: 65545 -1 349
Width: 594
VWidth: 0
Flags: HMW
LayerCount: 2
Fore
SplineSet
480 460 m 1
 653 460 l 1
 494 0 l 1
 322 0 l 1
 480 460 l 1
50 231 m 0
 85 349 196 470 327 470 c 0
 459 470 477 331 446 229 c 0
 411 114 315 -9 185 -9 c 0
 53 -9 18 124 50 231 c 0
229 229 m 0
 214 189 222 132 274 129 c 0
 329 126 383 184 401 231 c 0
 416 270 412 328 360 331 c 0
 305 334 247 276 229 229 c 0
418 -104 m 1
 428 -183 l 1
 395 -205 361 -221 322 -220 c 0
 265 -218 223 -177 238 -118 c 0
 258 -41 350 -5 414 25 c 1
 453 0 l 1
 419 -25 364 -48 350 -92 c 0
 347 -105 346 -121 362 -124 c 0
 379 -127 403 -111 418 -104 c 1
EndSplineSet
EndChar

StartChar: dagger
Encoding: 8224 8224 350
Width: 614
VWidth: 0
Flags: HMW
LayerCount: 2
Fore
SplineSet
214 540 m 1
 667 540 l 1
 621 398 l 1
 169 398 l 1
 214 540 l 1
409 700 m 1
 570 700 l 1
 307 -150 l 1
 147 -150 l 1
 409 700 l 1
EndSplineSet
EndChar

StartChar: daggerdbl
Encoding: 8225 8225 351
Width: 614
VWidth: 0
Flags: HMW
LayerCount: 2
Fore
SplineSet
100 171 m 1
 553 171 l 1
 508 28 l 1
 55 28 l 1
 100 171 l 1
214 540 m 1
 667 540 l 1
 621 398 l 1
 169 398 l 1
 214 540 l 1
409 700 m 1
 570 700 l 1
 307 -150 l 1
 147 -150 l 1
 409 700 l 1
EndSplineSet
EndChar

StartChar: ellipsis
Encoding: 8230 8230 352
Width: 877
VWidth: 0
Flags: HMW
LayerCount: 2
Fore
SplineSet
24 80 m 0
 39 134 99 182 156 182 c 0
 214 182 247 130 232 76 c 0
 217 22 157 -27 100 -27 c 0
 42 -27 9 26 24 80 c 0
306 80 m 0
 321 134 381 182 438 182 c 0
 496 182 530 130 515 76 c 0
 500 22 439 -27 382 -27 c 0
 324 -27 291 26 306 80 c 0
588 80 m 0
 603 134 663 182 720 182 c 0
 778 182 812 130 797 76 c 0
 782 22 721 -27 664 -27 c 0
 606 -27 573 26 588 80 c 0
EndSplineSet
EndChar

StartChar: uniFF10
Encoding: 65296 65296 353
Width: 607
VWidth: 0
Flags: HMW
LayerCount: 2
Fore
SplineSet
266 350 m 0
 248 301 203 160 292 155 c 0
 385 150 446 279 472 350 c 0
 490 399 535 540 446 545 c 0
 353 550 292 421 266 350 c 0
82 350 m 0
 138 526 280 714 482 714 c 0
 689 714 706 506 656 350 c 0
 600 172 459 -15 256 -14 c 0
 52 -13 32 195 82 350 c 0
EndSplineSet
EndChar

StartChar: uniFF11
Encoding: 65297 65297 354
Width: 607
VWidth: 0
Flags: HMW
LayerCount: 2
Fore
SplineSet
203 473 m 1
 264 645 l 1
 643 717 l 1
 397 0 l 1
 212 0 l 1
 388 513 l 1
 203 473 l 1
EndSplineSet
EndChar

StartChar: uniFF12
Encoding: 65298 65298 355
Width: 607
VWidth: 0
Flags: HMW
LayerCount: 2
Fore
SplineSet
-56 0 m 1
 339 313 l 2
 393 355 471 403 493 472 c 0
 505 508 493 543 451 546 c 0
 388 550 347 483 322 435 c 1
 133 436 l 1
 188 591 323 716 495 715 c 0
 625 715 732 619 692 483 c 0
 669 404 605 344 539 298 c 2
 366 182 l 1
 611 180 l 1
 548 0 l 1
 -56 0 l 1
EndSplineSet
EndChar

StartChar: uniFF13
Encoding: 65299 65299 356
Width: 607
VWidth: 0
Flags: HMW
LayerCount: 2
Fore
SplineSet
320 337 m 1
 344 419 l 1
 394 427 480 446 495 505 c 0
 502 535 486 556 456 558 c 0
 408 561 373 520 350 484 c 1
 173 486 l 1
 224 619 344 713 489 714 c 0
 603 715 724 646 685 516 c 0
 640 363 454 340 320 337 c 1
253 -18 m 0
 103 -16 28 94 54 236 c 1
 239 235 l 1
 233 187 234 142 293 138 c 0
 341 135 394 167 411 213 c 0
 438 285 356 295 305 300 c 1
 333 395 l 1
 455 391 641 358 593 193 c 0
 552 51 391 -20 253 -18 c 0
EndSplineSet
EndChar

StartChar: uniFF14
Encoding: 65300 65300 357
Width: 607
VWidth: 0
Flags: HMW
LayerCount: 2
Fore
SplineSet
-15 120 m 1
 186 256 l 1
 438 258 l 1
 464 286 l 1
 641 286 l 1
 582 119 l 1
 -15 120 l 1
197 186 m 1
 -24 111 l 1
 535 699 l 1
 694 700 l 1
 454 0 l 1
 252 0 l 1
 305 154 l 1
 332 165 l 1
 421 416 l 1
 197 186 l 1
EndSplineSet
EndChar

StartChar: uniFF15
Encoding: 65301 65301 358
Width: 607
VWidth: 0
Flags: HMW
LayerCount: 2
Fore
SplineSet
600 221 m 0
 554 73 397 -12 249 -14 c 0
 153 -15 67 14 -12 59 c 1
 97 227 l 1
 139 194 186 168 243 167 c 0
 299 166 380 186 399 248 c 0
 417 305 359 321 315 322 c 0
 242 324 171 307 102 288 c 1
 255 376 l 1
 319 415 384 450 461 448 c 0
 585 444 633 329 600 221 c 0
421 527 m 1
 307 364 l 1
 89 278 l 1
 331 699 l 1
 746 700 l 1
 686 528 l 1
 421 527 l 1
EndSplineSet
EndChar

StartChar: uniFF16
Encoding: 65302 65302 359
Width: 607
VWidth: 0
Flags: HMW
LayerCount: 2
Fore
SplineSet
238 250 m 0
 220 203 237 153 292 151 c 0
 350 149 412 199 432 252 c 0
 450 298 435 352 379 354 c 0
 320 357 258 303 238 250 c 0
463 695 m 1
 718 695 l 1
 419 458 l 1
 362 438 l 1
 398 461 435 478 479 478 c 0
 603 478 653 357 622 250 c 0
 576 91 418 -18 255 -18 c 0
 99 -18 2 99 49 251 c 0
 75 336 141 404 205 463 c 2
 463 695 l 1
EndSplineSet
EndChar

StartChar: uniFF17
Encoding: 65303 65303 360
Width: 607
VWidth: 0
Flags: HMW
LayerCount: 2
Fore
SplineSet
148 515 m 1
 212 700 l 1
 787 699 l 1
 227 0 l 1
 10 0 l 1
 435 514 l 1
 148 515 l 1
EndSplineSet
EndChar

StartChar: uniFF18
Encoding: 65304 65304 361
Width: 607
VWidth: 0
Flags: HMW
LayerCount: 2
Fore
SplineSet
208 532 m 0
 244 655 380 718 500 718 c 0
 609 718 724 654 688 530 c 0
 653 407 513 338 393 338 c 0
 283 338 173 410 208 532 c 0
379 511 m 0
 370 483 377 449 411 445 c 0
 447 440 492 482 503 514 c 0
 513 542 505 575 471 579 c 0
 435 583 390 543 379 511 c 0
68 191 m 0
 107 326 259 398 391 398 c 0
 510 398 634 324 595 189 c 0
 556 55 402 -18 271 -18 c 0
 152 -18 29 57 68 191 c 0
268 219 m 0
 255 185 266 145 308 142 c 0
 352 139 401 183 415 223 c 0
 426 256 414 293 375 296 c 0
 333 299 283 256 268 219 c 0
EndSplineSet
EndChar

StartChar: uniFF19
Encoding: 65305 65305 362
Width: 607
VWidth: 0
Flags: HMW
LayerCount: 2
Fore
SplineSet
500 450 m 0
 518 497 501 547 446 549 c 0
 388 551 326 501 306 448 c 0
 288 402 303 348 359 346 c 0
 418 343 480 397 500 450 c 0
276 5 m 1
 20 5 l 1
 319 242 l 1
 376 262 l 1
 340 239 303 222 259 222 c 0
 135 222 86 343 117 450 c 0
 163 609 321 718 484 718 c 0
 640 718 736 601 689 449 c 0
 663 364 598 296 534 237 c 2
 276 5 l 1
EndSplineSet
EndChar

StartChar: caron
Encoding: 711 711 363
Width: 451
VWidth: 0
Flags: HMW
LayerCount: 2
Fore
SplineSet
398 686 m 1
 504 766 l 1
 603 677 l 1
 366 544 l 1
 207 690 l 1
 346 767 l 1
 398 686 l 1
EndSplineSet
EndChar

StartChar: napostrophe
Encoding: 329 329 364
Width: 739
VWidth: 0
Flags: HMW
LayerCount: 2
Fore
SplineSet
507 460 m 1
 349 0 l 1
 175 0 l 1
 334 460 l 1
 507 460 l 1
557 280 m 1
 564 306 574 345 537 352 c 0
 496 359 464 309 445 281 c 1
 413 273 l 1
 449 370 514 469 629 471 c 0
 737 473 764 391 738 299 c 1
 637 0 l 1
 457 0 l 1
 557 280 l 1
278 700 m 1
 460 699 l 1
 270 437 l 1
 139 437 l 1
 278 700 l 1
EndSplineSet
EndChar

StartChar: IJ
Encoding: 306 306 365
Width: 630
VWidth: 0
Flags: HMW
LayerCount: 2
Fore
SplineSet
140 -50 m 1
 159 -65 180 -83 205 -82 c 0
 248 -81 282 -39 298 -3 c 1
 540 700 l 1
 753 700 l 1
 497 -52 l 2
 450 -180 326 -245 194 -245 c 0
 122 -245 59 -220 -1 -183 c 1
 140 -50 l 1
249 700 m 1
 447 700 l 1
 206 0 l 1
 10 0 l 1
 249 700 l 1
EndSplineSet
EndChar

StartChar: ij
Encoding: 307 307 366
Width: 523
VWidth: 0
Flags: HMW
LayerCount: 2
Fore
SplineSet
455 629 m 0
 469 677 525 717 575 717 c 0
 625 717 661 674 647 624 c 0
 633 576 577 536 527 536 c 0
 477 536 441 579 455 629 c 0
140 -65 m 1
 148 -64 163 -89 173 -90 c 0
 204 -94 231 -51 242 -28 c 1
 413 460 l 1
 577 460 l 1
 394 -78 l 2
 357 -175 273 -245 166 -244 c 0
 114 -244 77 -222 40 -188 c 1
 140 -65 l 1
197 629 m 0
 211 677 265 717 315 717 c 0
 365 717 402 674 388 624 c 0
 374 576 319 536 269 536 c 0
 219 536 183 579 197 629 c 0
152 460 m 1
 319 460 l 1
 161 0 l 1
 -5 0 l 1
 152 460 l 1
EndSplineSet
EndChar

StartChar: uni0237
Encoding: 567 567 367
Width: 262
VWidth: 0
Flags: HMW
LayerCount: 2
Fore
SplineSet
-122 -65 m 1
 -114 -76 -104 -89 -88 -90 c 0
 -56 -91 -29 -53 -17 -28 c 1
 152 460 l 1
 317 460 l 1
 135 -78 l 2
 98 -175 13 -245 -94 -244 c 0
 -146 -244 -183 -222 -220 -188 c 1
 -122 -65 l 1
EndSplineSet
EndChar

StartChar: Sacute
Encoding: 346 346 368
Width: 613
VWidth: 0
Flags: HMW
LayerCount: 2
Fore
SplineSet
184 260 m 1
 203 203 229 144 299 145 c 0
 334 145 379 163 394 198 c 0
 415 250 340 272 306 289 c 0
 216 333 158 414 188 515 c 0
 227 645 366 718 496 718 c 0
 603 718 686 668 711 561 c 1
 550 481 l 1
 534 519 516 552 469 552 c 0
 439 552 394 535 381 506 c 0
 359 456 462 433 492 419 c 0
 584 379 625 295 596 198 c 0
 553 52 403 -28 257 -27 c 0
 136 -26 51 48 28 165 c 1
 184 260 l 1
751 922 m 1
 537 780 l 1
 447 832 l 1
 637 984 l 1
 751 922 l 1
EndSplineSet
EndChar

StartChar: sacute
Encoding: 347 347 369
Width: 445
VWidth: 0
Flags: HMW
LayerCount: 2
Fore
SplineSet
74 178 m 1
 109 145 151 107 204 109 c 0
 218 109 246 117 251 133 c 0
 260 163 176 180 157 190 c 0
 102 218 74 275 91 334 c 0
 119 428 225 468 315 469 c 0
 385 469 447 443 502 407 c 1
 420 293 l 1
 387 324 351 348 304 348 c 0
 289 348 256 342 251 325 c 0
 242 295 320 278 338 270 c 0
 398 245 437 196 419 129 c 0
 393 32 301 -20 205 -22 c 0
 118 -24 44 12 -20 61 c 1
 74 178 l 1
569 674 m 1
 355 532 l 1
 265 584 l 1
 454 736 l 1
 569 674 l 1
EndSplineSet
EndChar

StartChar: Scircumflex
Encoding: 348 348 370
Width: 613
VWidth: 0
Flags: HMW
LayerCount: 2
Fore
SplineSet
184 260 m 1
 203 203 229 144 299 145 c 0
 334 145 379 163 394 198 c 0
 415 250 340 272 306 289 c 0
 216 333 158 414 188 515 c 0
 227 645 366 718 496 718 c 0
 603 718 686 668 711 561 c 1
 550 481 l 1
 534 519 516 552 469 552 c 0
 439 552 394 535 381 506 c 0
 359 456 462 433 492 419 c 0
 584 379 624 295 595 198 c 0
 552 52 403 -28 257 -27 c 0
 136 -26 51 48 28 165 c 1
 184 260 l 1
564 858 m 1
 456 779 l 1
 358 867 l 1
 594 1001 l 1
 754 854 l 1
 615 777 l 1
 564 858 l 1
EndSplineSet
EndChar

StartChar: scircumflex
Encoding: 349 349 371
Width: 445
VWidth: 0
Flags: HMW
LayerCount: 2
Fore
SplineSet
74 178 m 1
 109 145 151 107 204 109 c 0
 218 109 246 117 251 133 c 0
 260 163 176 180 157 190 c 0
 102 218 74 275 91 334 c 0
 119 428 225 468 315 469 c 0
 385 469 447 443 502 407 c 1
 420 293 l 1
 387 324 351 348 304 348 c 0
 289 348 256 342 251 325 c 0
 242 295 320 278 338 270 c 0
 398 245 437 196 419 129 c 0
 393 32 301 -20 205 -22 c 0
 118 -24 44 12 -20 61 c 1
 74 178 l 1
397 611 m 1
 290 531 l 1
 192 619 l 1
 428 753 l 1
 588 607 l 1
 449 529 l 1
 397 611 l 1
EndSplineSet
EndChar

StartChar: uni1E9E
Encoding: 7838 7838 372
Width: 895
VWidth: 0
Flags: HMW
LayerCount: 2
Fore
SplineSet
511 -18 m 0
 359 -16 300 98 328 236 c 1
 490 235 l 1
 484 188 486 143 544 138 c 0
 592 134 645 167 661 213 c 0
 687 286 608 295 556 300 c 1
 579 379 l 1
 696 376 887 345 841 184 c 0
 802 49 641 -20 511 -18 c 0
573 346 m 1
 595 420 l 1
 646 426 715 439 733 496 c 0
 752 555 673 561 633 560 c 0
 487 558 372 451 321 319 c 1
 211 0 l 1
 17 0 l 1
 138 352 l 2
 214 569 426 708 654 710 c 0
 767 711 983 678 936 516 c 0
 893 368 701 349 573 346 c 1
EndSplineSet
EndChar

StartChar: Zacute
Encoding: 377 377 373
Width: 607
VWidth: 0
Flags: HW
LayerCount: 2
Fore
SplineSet
181 523 m 1
 243 700 l 1
 790 699 l 1
 310 169 l 1
 566 168 l 1
 506 0 l 1
 -57 0 l 1
 416 522 l 1
 181 523 l 1
760 922 m 1
 546 780 l 1
 456 832 l 1
 646 984 l 1
 760 922 l 1
EndSplineSet
EndChar

StartChar: zacute
Encoding: 378 378 374
Width: 510
VWidth: 0
Flags: HW
LayerCount: 2
Fore
SplineSet
267 300 m 1
 103 302 l 1
 158 460 l 1
 610 459 l 1
 309 160 l 1
 467 158 l 1
 412 0 l 1
 -49 0 l 1
 267 300 l 1
626 677 m 1
 412 535 l 1
 322 587 l 1
 512 739 l 1
 626 677 l 1
EndSplineSet
EndChar

StartChar: Zdotaccent
Encoding: 379 379 375
Width: 607
VWidth: 0
Flags: HW
LayerCount: 2
Fore
SplineSet
181 523 m 1
 243 700 l 1
 790 699 l 1
 310 169 l 1
 566 168 l 1
 506 0 l 1
 -57 0 l 1
 416 522 l 1
 181 523 l 1
475 872 m 0
 489 920 545 960 595 960 c 0
 645 960 681 917 667 867 c 0
 653 819 598 780 548 780 c 0
 498 780 461 822 475 872 c 0
EndSplineSet
EndChar

StartChar: zdotaccent
Encoding: 380 380 376
Width: 510
VWidth: 0
Flags: HW
LayerCount: 2
Fore
SplineSet
267 300 m 1
 103 302 l 1
 158 460 l 1
 610 459 l 1
 309 160 l 1
 467 158 l 1
 412 0 l 1
 -49 0 l 1
 267 300 l 1
342 630 m 0
 356 678 411 717 461 717 c 0
 511 717 547 674 533 624 c 0
 519 576 465 536 415 536 c 0
 365 536 328 580 342 630 c 0
EndSplineSet
EndChar

StartChar: Tcaron
Encoding: 356 356 377
Width: 559
VWidth: 0
Flags: HW
LayerCount: 2
Fore
SplineSet
122 523 m 1
 184 700 l 1
 747 700 l 1
 686 523 l 1
 501 523 l 1
 322 0 l 1
 129 0 l 1
 308 523 l 1
 122 523 l 1
532 921 m 1
 639 1001 l 1
 737 912 l 1
 501 779 l 1
 341 925 l 1
 480 1002 l 1
 532 921 l 1
EndSplineSet
EndChar

StartChar: tcaron
Encoding: 357 357 378
Width: 498
VWidth: 0
Flags: HW
LayerCount: 2
Fore
SplineSet
105 460 m 1
 427 460 l 1
 377 318 l 1
 54 318 l 1
 105 460 l 1
238 620 m 1
 403 620 l 1
 189 0 l 1
 26 0 l 1
 238 620 l 1
591 776 m 1
 758 741 l 1
 551 497 l 1
 420 523 l 1
 591 776 l 1
EndSplineSet
EndChar

StartChar: Uring
Encoding: 366 366 379
Width: 683
VWidth: 0
Flags: HW
LayerCount: 2
Fore
SplineSet
245 700 m 1
 438 700 l 1
 280 247 l 2
 266 201 266 145 326 142 c 0
 388 139 438 195 460 248 c 1
 617 700 l 1
 810 700 l 1
 650 230 l 2
 594 74 456 -35 287 -35 c 0
 128 -35 40 76 85 230 c 0
 245 700 l 1
467 902 m 0
 486 968 558 1020 626 1020 c 0
 694 1020 742 965 723 898 c 0
 704 831 631 780 562 780 c 0
 494 780 448 835 467 902 c 0
552 898 m 0
 547 882 554 857 573 855 c 0
 595 853 630 882 637 901 c 0
 642 917 635 943 616 945 c 0
 594 947 559 917 552 898 c 0
EndSplineSet
EndChar

StartChar: uring
Encoding: 367 367 380
Width: 556
VWidth: 0
Flags: HW
LayerCount: 2
Fore
SplineSet
282 0 m 1
 441 460 l 1
 613 460 l 1
 455 0 l 1
 282 0 l 1
232 180 m 1
 225 154 215 115 252 108 c 0
 293 101 326 151 345 179 c 1
 375 187 l 1
 340 90 274 -9 159 -11 c 0
 51 -13 24 69 50 161 c 1
 151 460 l 1
 331 460 l 1
 232 180 l 1
319 654 m 0
 338 720 410 772 478 772 c 0
 546 772 594 717 575 650 c 0
 556 583 483 532 414 532 c 0
 346 532 300 587 319 654 c 0
404 650 m 0
 399 634 406 610 425 608 c 0
 447 606 482 635 489 654 c 0
 494 670 487 695 468 697 c 0
 446 699 411 669 404 650 c 0
EndSplineSet
EndChar

StartChar: Utilde
Encoding: 360 360 381
Width: 683
VWidth: 0
Flags: HW
LayerCount: 2
Fore
SplineSet
245 700 m 1
 438 700 l 1
 280 247 l 2
 266 201 266 145 326 142 c 0
 391 139 439 195 460 248 c 1
 617 700 l 1
 810 700 l 1
 650 230 l 2
 594 73 461 -35 287 -35 c 0
 128 -35 39 76 85 230 c 1
 245 700 l 1
383.311523438 856.360351562 m 1
 415.311523438 903.360351562 462.311523438 954.360351562 524.311523438 951.360351562 c 0
 569.311523438 949.360351562 596.311523438 897.360351562 641.311523438 900.360351562 c 0
 675.311523438 902.360351562 701.311523438 932.360351562 724.311523438 953.360351562 c 1
 782.311523438 864.360351562 l 1
 744.311523438 822.360351562 688.311523438 774.360351562 627.311523438 779.360351562 c 0
 582.311523438 783.360351562 552.311523438 838.360351562 506.311523438 831.360351562 c 0
 477.311523438 826.360351562 461.311523438 803.360351562 445.311523438 782.360351562 c 1
 383.311523438 856.360351562 l 1
EndSplineSet
EndChar

StartChar: utilde
Encoding: 361 361 382
Width: 556
VWidth: 0
Flags: HW
LayerCount: 2
Fore
SplineSet
282 0 m 1
 441 460 l 1
 613 460 l 1
 455 0 l 1
 282 0 l 1
232 180 m 1
 225 154 215 115 252 108 c 0
 293 101 326 151 345 179 c 1
 375 187 l 1
 340 90 274 -9 159 -11 c 0
 51 -13 24 69 50 161 c 1
 151 460 l 1
 331 460 l 1
 232 180 l 1
235.080078125 608.360351562 m 1
 267.080078125 655.360351562 314.080078125 706.360351562 376.080078125 703.360351562 c 0
 421.080078125 701.360351562 448.080078125 649.360351562 493.080078125 652.360351562 c 0
 527.080078125 654.360351562 553.080078125 684.360351562 576.080078125 705.360351562 c 1
 634.080078125 616.360351562 l 1
 596.080078125 574.360351562 540.080078125 526.360351562 479.080078125 531.360351562 c 0
 434.080078125 535.360351562 404.080078125 590.360351562 358.080078125 583.360351562 c 0
 329.080078125 578.360351562 313.080078125 555.360351562 297.080078125 534.360351562 c 1
 235.080078125 608.360351562 l 1
EndSplineSet
EndChar

StartChar: Umacron
Encoding: 362 362 383
Width: 683
VWidth: 0
Flags: HW
LayerCount: 2
Fore
SplineSet
245 700 m 1
 438 700 l 1
 280 247 l 2
 266 201 266 145 326 142 c 0
 391 139 439 195 460 248 c 1
 617 700 l 1
 810 700 l 1
 650 230 l 2
 594 73 461 -35 287 -35 c 0
 128 -35 39 76 85 230 c 1
 245 700 l 1
375.591796875 779 m 1
 422.591796875 930 l 1
 785.591796875 930 l 1
 738.591796875 779 l 1
 375.591796875 779 l 1
EndSplineSet
EndChar

StartChar: umacron
Encoding: 363 363 384
Width: 556
VWidth: 0
Flags: HW
LayerCount: 2
Fore
SplineSet
282 0 m 1
 441 460 l 1
 613 460 l 1
 455 0 l 1
 282 0 l 1
232 180 m 1
 225 154 215 115 252 108 c 0
 293 101 326 151 345 179 c 1
 375 187 l 1
 340 90 274 -9 159 -11 c 0
 51 -13 24 69 50 161 c 1
 151 460 l 1
 331 460 l 1
 232 180 l 1
227.360351562 531 m 1
 274.360351562 682 l 1
 637.360351562 682 l 1
 590.360351562 531 l 1
 227.360351562 531 l 1
EndSplineSet
EndChar

StartChar: Ubreve
Encoding: 364 364 385
Width: 683
VWidth: 0
Flags: HW
LayerCount: 2
Fore
SplineSet
245 700 m 1
 438 700 l 1
 280 247 l 2
 266 201 266 145 326 142 c 0
 391 139 439 195 460 248 c 1
 617 700 l 1
 810 700 l 1
 650 230 l 2
 594 73 461 -35 287 -35 c 0
 128 -35 39 76 85 230 c 1
 245 700 l 1
446.845703125 927.01171875 m 1
 546.845703125 927.01171875 l 1
 548.845703125 903.01171875 550.845703125 878.01171875 580.845703125 874.01171875 c 0
 613.845703125 870.01171875 637.845703125 904.01171875 653.845703125 926.01171875 c 1
 763.845703125 925.01171875 l 1
 730.845703125 842.01171875 664.845703125 780.01171875 570.845703125 779.01171875 c 0
 477.845703125 778.01171875 437.845703125 840.01171875 446.845703125 927.01171875 c 1
EndSplineSet
EndChar

StartChar: ubreve
Encoding: 365 365 386
Width: 556
VWidth: 0
Flags: HW
LayerCount: 2
Fore
SplineSet
282 0 m 1
 441 460 l 1
 613 460 l 1
 455 0 l 1
 282 0 l 1
232 180 m 1
 225 154 215 115 252 108 c 0
 293 101 326 151 345 179 c 1
 375 187 l 1
 340 90 274 -9 159 -11 c 0
 51 -13 24 69 50 161 c 1
 151 460 l 1
 331 460 l 1
 232 180 l 1
298.614257812 679.01171875 m 1
 398.614257812 679.01171875 l 1
 400.614257812 655.01171875 402.614257812 630.01171875 432.614257812 626.01171875 c 0
 465.614257812 622.01171875 489.614257812 656.01171875 505.614257812 678.01171875 c 1
 615.614257812 677.01171875 l 1
 582.614257812 594.01171875 516.614257812 532.01171875 422.614257812 531.01171875 c 0
 329.614257812 530.01171875 289.614257812 592.01171875 298.614257812 679.01171875 c 1
EndSplineSet
EndChar

StartChar: Wcircumflex
Encoding: 372 372 387
Width: 1026
VWidth: 0
Flags: HW
LayerCount: 2
Fore
SplineSet
755 329 m 1
 978 700 l 1
 1214 699 l 1
 683 -47 l 1
 587 331 l 1
 246 -50 l 1
 185 700 l 1
 408 700 l 1
 392 334 l 1
 704 741 l 1
 755 329 l 1
762 881 m 1
 655 802 l 1
 556 891 l 1
 792 1024 l 1
 952 877 l 1
 813 800 l 1
 762 881 l 1
EndSplineSet
EndChar

StartChar: wcircumflex
Encoding: 373 373 388
Width: 742
VWidth: 0
Flags: HW
LayerCount: 2
Fore
SplineSet
95 460 m 1
 263 460 l 1
 271 255 l 1
 483 500 l 1
 523 252 l 1
 679 459 l 1
 866 459 l 1
 459 -31 l 1
 399 220 l 1
 163 -32 l 1
 95 460 l 1
541 640 m 1
 434 561 l 1
 335 650 l 1
 571 783 l 1
 731 637 l 1
 592 559 l 1
 541 640 l 1
EndSplineSet
EndChar

StartChar: Ycircumflex
Encoding: 374 374 389
Width: 653
VWidth: 0
Flags: HW
LayerCount: 2
Fore
SplineSet
619 699 m 1
 851 699 l 1
 464 270 l 1
 372 0 l 1
 174 0 l 1
 274 289 l 1
 184 700 l 1
 396 700 l 1
 425 465 l 1
 619 699 l 1
565 859 m 1
 458 780 l 1
 359 869 l 1
 595 1002 l 1
 755 856 l 1
 616 779 l 1
 565 859 l 1
EndSplineSet
EndChar

StartChar: ycircumflex
Encoding: 375 375 390
Width: 516
VWidth: 0
Flags: HW
LayerCount: 2
Fore
SplineSet
640 459 m 1
 124 -219 l 1
 -55 -219 l 1
 140 38 l 1
 93 460 l 1
 271 460 l 1
 283 87 l 1
 189 89 l 1
 457 459 l 1
 640 459 l 1
412 612 m 1
 305 533 l 1
 206 621 l 1
 442 755 l 1
 602 608 l 1
 463 531 l 1
 412 612 l 1
EndSplineSet
EndChar

StartChar: uni0123
Encoding: 291 291 391
Width: 536
VWidth: 0
Flags: HW
LayerCount: 2
Fore
SplineSet
-162 -33 m 1
 -3 -35 l 1
 -2 -75 4 -102 50 -104 c 0
 117 -106 171 -46 195 11 c 1
 351 460 l 1
 520 460 l 1
 367 10 l 2
 317 -134 202 -241 44 -242 c 0
 -92 -243 -169 -169 -162 -33 c 1
-75 239 m 0
 -42 357 66 470 195 470 c 0
 325 470 356 344 326 238 c 0
 293 124 198 8 70 7 c 0
 -60 6 -106 128 -75 239 c 0
106 236 m 0
 91 195 101 150 150 146 c 0
 202 142 257 195 274 241 c 0
 289 281 285 327 236 331 c 0
 183 335 124 283 106 236 c 0
317 542 m 1
 159 609 l 1
 387 825 l 1
 513 774 l 1
 317 542 l 1
EndSplineSet
EndChar

StartChar: Hbar
Encoding: 294 294 392
Width: 762
VWidth: 0
Flags: HW
LayerCount: 2
Fore
SplineSet
20 277 m 1
 81 454 l 1
 607 454 l 1
 545 277 l 1
 20 277 l 1
563 700 m 1
 761 700 l 1
 520 0 l 1
 324 0 l 1
 563 700 l 1
120 700 m 1
 319 700 l 1
 78 0 l 1
 -119 0 l 1
 120 700 l 1
2 536 m 1
 42 653 l 1
 807 653 l 1
 767 536 l 1
 2 536 l 1
EndSplineSet
EndChar

StartChar: hbar
Encoding: 295 295 393
Width: 548
VWidth: 0
Flags: HW
LayerCount: 2
Fore
SplineSet
309 780 m 1
 41 0 l 1
 -136 0 l 1
 132 780 l 1
 309 780 l 1
248 280 m 1
 255 305 267 344 231 351 c 0
 190 359 157 310 139 282 c 1
 106 283 l 1
 139 380 203 477 317 479 c 0
 426 481 450 399 425 307 c 1
 322 0 l 1
 146 0 l 1
 248 280 l 1
19 587 m 1
 72 738 l 1
 400 738 l 1
 348 587 l 1
 19 587 l 1
EndSplineSet
EndChar

StartChar: uni0400
Encoding: 1024 1024 394
Width: 517
VWidth: 0
Flags: HW
LayerCount: 2
Fore
SplineSet
135 0 m 1
 191 160 l 1
 534 160 l 1
 478 0 l 1
 135 0 l 1
319 540 m 1
 376 700 l 1
 718 700 l 1
 662 540 l 1
 319 540 l 1
233 285 m 1
 287 441 l 1
 611 441 l 1
 557 285 l 1
 233 285 l 1
246 700 m 1
 437 700 l 1
 196 0 l 1
 8 0 l 1
 246 700 l 1
396 936 m 1
 525 987 l 1
 619 816 l 1
 523 778 l 1
 396 936 l 1
EndSplineSet
EndChar

StartChar: uni0401
Encoding: 1025 1025 395
Width: 517
VWidth: 0
Flags: HW
LayerCount: 2
Fore
SplineSet
135 0 m 1
 191 160 l 1
 534 160 l 1
 478 0 l 1
 135 0 l 1
319 540 m 1
 376 700 l 1
 718 700 l 1
 662 540 l 1
 319 540 l 1
233 285 m 1
 287 441 l 1
 611 441 l 1
 557 285 l 1
 233 285 l 1
246 700 m 1
 437 700 l 1
 196 0 l 1
 8 0 l 1
 246 700 l 1
569 873 m 0
 581 921 635 960 685 960 c 0
 737 960 775 918 762 866 c 0
 750 818 696 779 646 779 c 0
 594 779 556 821 569 873 c 0
325 873 m 0
 337 921 391 960 441 960 c 0
 493 960 531 918 518 866 c 0
 506 818 452 779 402 779 c 0
 350 779 312 821 325 873 c 0
EndSplineSet
EndChar

StartChar: uni0403
Encoding: 1027 1027 396
Width: 499
VWidth: 0
Flags: HW
LayerCount: 2
Fore
SplineSet
255 700 m 1
 681 700 l 1
 620 523 l 1
 392 523 l 1
 212 0 l 1
 16 0 l 1
 255 700 l 1
714 919 m 1
 504 779 l 1
 408 835 l 1
 594 984 l 1
 714 919 l 1
EndSplineSet
EndChar

StartChar: uni040C
Encoding: 1036 1036 397
Width: 531
VWidth: 0
Flags: HW
LayerCount: 2
Fore
SplineSet
246 700 m 1
 453 700 l 1
 212 0 l 1
 8 0 l 1
 246 700 l 1
644 699 m 1
 891 699 l 1
 501 359 l 1
 645 0 l 1
 432 0 l 1
 280 380 l 1
 644 699 l 1
742 902 m 1
 533 762 l 1
 437 818 l 1
 623 968 l 1
 742 902 l 1
EndSplineSet
EndChar

StartChar: uni040D
Encoding: 1037 1037 398
Width: 752
VWidth: 0
Flags: HW
LayerCount: 2
Fore
SplineSet
798 487 m 1
 -13 -55 l 1
 86 213 l 1
 897 756 l 1
 798 487 l 1
437 700 m 1
 246 140 l 1
 -13 -55 l 1
 247 700 l 1
 437 700 l 1
897 756 m 1
 636 0 l 1
 446 0 l 1
 635 551 l 1
 897 756 l 1
482 920 m 1
 611 971 l 1
 705 800 l 1
 610 761 l 1
 482 920 l 1
EndSplineSet
EndChar

StartChar: uni040E
Encoding: 1038 1038 399
Width: 582
VWidth: 0
Flags: HW
LayerCount: 2
Fore
SplineSet
791 699 m 1
 242 0 l 1
 39 0 l 1
 217 230 l 1
 175 700 l 1
 370 700 l 1
 367 302 l 1
 282 303 l 1
 585 699 l 1
 791 699 l 1
389 927 m 1
 490 926 l 1
 492 904 490 879 519 875 c 0
 552 870 578 904 595 926 c 1
 708 924 l 1
 677 840 610 780 517 779 c 0
 423 778 381 839 389 927 c 1
EndSplineSet
EndChar

StartChar: uni0410
Encoding: 1040 1040 400
Width: 715
VWidth: 0
Flags: HW
LayerCount: 2
Fore
SplineSet
164 109 m 1
 218 254 l 1
 568 255 l 1
 521 109 l 1
 164 109 l 1
453 409 m 1
 294 199 l 1
 292 153 l 1
 166 0 l 1
 -70 0 l 1
 556 756 l 1
 662 0 l 1
 455 0 l 1
 429 151 l 1
 459 200 l 1
 453 409 l 1
EndSplineSet
EndChar

StartChar: uni0411
Encoding: 1041 1041 401
Width: 673
VWidth: 0
Flags: HW
LayerCount: 2
Fore
SplineSet
165 286 m 1
 212 441 l 1
 492 441 l 1
 614 440 695 345 662 222 c 0
 628 95 504 1 375 0 c 1
 59 0 l 1
 116 160 l 1
 359 160 l 2
 403 160 447 179 466 224 c 0
 483 264 454 283 418 284 c 1
 165 286 l 1
255 700 m 1
 777 700 l 1
 721 540 l 1
 402 540 l 1
 216 0 l 1
 16 0 l 1
 255 700 l 1
EndSplineSet
EndChar

StartChar: uni0412
Encoding: 1042 1042 402
Width: 660
VWidth: 0
Flags: HW
LayerCount: 2
Fore
SplineSet
264 341 m 1
 295 423 l 1
 391 424 l 1
 434 425 485 447 501 490 c 0
 515 528 495 548 459 549 c 1
 400 550 l 1
 254 149 l 1
 316 150 l 1
 367 152 431 171 450 226 c 0
 466 274 430 287 390 289 c 1
 246 291 l 1
 286 398 l 1
 421 399 l 1
 540 396 676 334 639 193 c 0
 602 48 452 2 319 0 c 1
 9 0 l 1
 249 700 l 1
 506 700 l 1
 611 697 747 651 713 520 c 0
 680 392 535 344 417 341 c 2
 264 341 l 1
EndSplineSet
EndChar

StartChar: uni0413
Encoding: 1043 1043 403
Width: 499
VWidth: 0
Flags: HW
LayerCount: 2
Fore
SplineSet
255 700 m 1
 681 700 l 1
 620 523 l 1
 392 523 l 1
 212 0 l 1
 16 0 l 1
 255 700 l 1
EndSplineSet
EndChar

StartChar: uni0414
Encoding: 1044 1044 404
Width: 857
VWidth: 0
Flags: HW
LayerCount: 2
Fore
SplineSet
508 377 m 1
 273 31 l 1
 31 31 l 1
 621 744 l 1
 720 30 l 1
 504 30 l 1
 508 377 l 1
570 0 m 1
 180 0 l 1
 140 -110 l 1
 -60 -110 l 1
 37 168 l 1
 826 168 l 1
 729 -110 l 1
 530 -110 l 1
 570 0 l 1
EndSplineSet
EndChar

StartChar: uni0415
Encoding: 1045 1045 405
Width: 588
VWidth: 0
Flags: HW
LayerCount: 2
Fore
SplineSet
138 0 m 1
 193 160 l 1
 536 160 l 1
 481 0 l 1
 138 0 l 1
322 540 m 1
 378 700 l 1
 720 700 l 1
 665 540 l 1
 322 540 l 1
235 285 m 1
 290 441 l 1
 614 441 l 1
 559 285 l 1
 235 285 l 1
249 700 m 1
 439 700 l 1
 199 0 l 1
 10 0 l 1
 249 700 l 1
EndSplineSet
EndChar

StartChar: uni0416
Encoding: 1046 1046 406
Width: 1083
VWidth: 0
Flags: HW
LayerCount: 2
Fore
SplineSet
406 700 m 1
 567 356 l 1
 174 0 l 1
 -71 0 l 1
 354 385 l 1
 203 700 l 1
 406 700 l 1
625 700 m 1
 831 700 l 1
 591 0 l 1
 386 0 l 1
 625 700 l 1
1018 699 m 1
 1272 699 l 1
 874 359 l 1
 1026 0 l 1
 814 0 l 1
 662 384 l 1
 1018 699 l 1
EndSplineSet
EndChar

StartChar: uni0417
Encoding: 1047 1047 407
Width: 648
VWidth: 0
Flags: HW
LayerCount: 2
Fore
SplineSet
351 336 m 1
 372 419 l 1
 427 424 519 435 539 498 c 0
 551 537 524 556 488 558 c 0
 433 561 393 528 364 484 c 1
 181 486 l 1
 229 631 361 713 512 714 c 0
 627 715 773 657 735 516 c 0
 692 357 486 339 351 336 c 1
303 -18 m 0
 145 -17 33 72 58 236 c 1
 244 234 l 1
 239 176 253 141 316 138 c 0
 370 135 435 160 458 213 c 0
 491 290 391 297 341 300 c 1
 366 395 l 1
 488 393 687 361 643 193 c 0
 605 45 442 -18 303 -18 c 0
EndSplineSet
EndChar

StartChar: uni0418
Encoding: 1048 1048 408
Width: 752
VWidth: 0
Flags: HW
LayerCount: 2
Fore
SplineSet
798 487 m 1
 -13 -55 l 1
 86 213 l 1
 897 756 l 1
 798 487 l 1
437 700 m 1
 246 140 l 1
 -13 -55 l 1
 247 700 l 1
 437 700 l 1
897 756 m 1
 636 0 l 1
 446 0 l 1
 635 551 l 1
 897 756 l 1
EndSplineSet
EndChar

StartChar: uni0419
Encoding: 1049 1049 409
Width: 752
VWidth: 0
Flags: HW
LayerCount: 2
Fore
SplineSet
798 487 m 1
 -13 -55 l 1
 86 213 l 1
 897 756 l 1
 798 487 l 1
437 700 m 1
 246 140 l 1
 -13 -55 l 1
 247 700 l 1
 437 700 l 1
897 756 m 1
 636 0 l 1
 446 0 l 1
 635 551 l 1
 897 756 l 1
473 932 m 1
 574 932 l 1
 576 908 577 882 607 878 c 0
 640 874 664 909 680 931 c 1
 790 930 l 1
 757 847 691 785 597 784 c 0
 504 783 464 845 473 932 c 1
EndSplineSet
EndChar

StartChar: uni041A
Encoding: 1050 1050 410
Width: 705
VWidth: 0
Flags: HW
LayerCount: 2
Fore
SplineSet
246 700 m 1
 453 700 l 1
 212 0 l 1
 8 0 l 1
 246 700 l 1
644 699 m 1
 891 699 l 1
 501 359 l 1
 645 0 l 1
 432 0 l 1
 280 380 l 1
 644 699 l 1
EndSplineSet
EndChar

StartChar: uni041B
Encoding: 1051 1051 411
Width: 761
VWidth: 0
Flags: HW
LayerCount: 2
Fore
SplineSet
877 700 m 1
 637 0 l 1
 436 0 l 1
 615 523 l 1
 433 523 l 1
 363 316 l 2
 295 119 169 12 -41 1 c 1
 3 166 l 1
 76 181 124 227 152 296 c 1
 292 700 l 1
 877 700 l 1
EndSplineSet
EndChar

StartChar: uni041C
Encoding: 1052 1052 412
Width: 865
VWidth: 0
Flags: HW
LayerCount: 2
Fore
SplineSet
326 313 m 1
 181 0 l 1
 -33 0 l 1
 336 736 l 1
 484 342 l 1
 924 752 l 1
 783 0 l 1
 578 0 l 1
 647 294 l 1
 408 60 l 1
 326 313 l 1
EndSplineSet
EndChar

StartChar: uni041D
Encoding: 1053 1053 413
Width: 764
VWidth: 0
Flags: HW
LayerCount: 2
Fore
SplineSet
147 277 m 1
 208 454 l 1
 733 454 l 1
 672 277 l 1
 147 277 l 1
689 700 m 1
 887 700 l 1
 647 0 l 1
 451 0 l 1
 689 700 l 1
246 700 m 1
 445 700 l 1
 205 0 l 1
 8 0 l 1
 246 700 l 1
EndSplineSet
EndChar

StartChar: uni041E
Encoding: 1054 1054 414
Width: 781
VWidth: 0
Flags: HW
LayerCount: 2
Fore
SplineSet
297 350 m 0
 265 272 271 166 377 163 c 0
 485 160 579 256 617 350 c 0
 649 429 643 534 536 537 c 0
 428 540 335 444 297 350 c 0
90 350 m 0
 151 552 350 719 565 719 c 0
 772 719 880 541 823 350 c 0
 762 145 563 -27 345 -27 c 0
 134 -27 32 159 90 350 c 0
EndSplineSet
EndChar

StartChar: uni041F
Encoding: 1055 1055 415
Width: 743
VWidth: 0
Flags: HW
LayerCount: 2
Fore
SplineSet
599 523 m 1
 396 523 l 1
 217 0 l 1
 15 0 l 1
 255 700 l 1
 859 700 l 1
 619 0 l 1
 419 0 l 1
 599 523 l 1
EndSplineSet
EndChar

StartChar: uni0420
Encoding: 1056 1056 416
Width: 618
VWidth: 0
Flags: HW
LayerCount: 2
Fore
SplineSet
249 700 m 1
 448 700 l 1
 207 0 l 1
 10 0 l 1
 249 700 l 1
318 541 m 1
 369 700 l 1
 484 700 l 1
 626 696 736 616 693 464 c 0
 650 311 509 233 357 229 c 1
 208 229 l 1
 265 389 l 1
 380 390 l 2
 430 390 486 416 506 466 c 0
 523 510 501 538 458 539 c 1
 318 541 l 1
EndSplineSet
EndChar

StartChar: uni0421
Encoding: 1057 1057 417
Width: 660
VWidth: 0
Flags: HW
LayerCount: 2
Fore
SplineSet
304 350 m 0
 268 262 299 174 403 171 c 0
 487 169 566 215 635 257 c 1
 579 50 l 1
 512 9 438 -19 359 -19 c 0
 149 -20 31 151 90 350 c 0
 153 560 356 720 577 719 c 0
 651 719 713 694 772 649 c 1
 714 441 l 1
 676 497 627 530 558 530 c 0
 449 529 345 450 304 350 c 0
EndSplineSet
EndChar

StartChar: uni0422
Encoding: 1058 1058 418
Width: 563
VWidth: 0
Flags: HW
LayerCount: 2
Fore
SplineSet
122 523 m 1
 183 700 l 1
 752 700 l 1
 689 523 l 1
 505 523 l 1
 326 0 l 1
 129 0 l 1
 308 523 l 1
 122 523 l 1
EndSplineSet
EndChar

StartChar: uni0423
Encoding: 1059 1059 419
Width: 597
VWidth: 0
Flags: HW
LayerCount: 2
Fore
SplineSet
807 699 m 1
 258 0 l 1
 46 0 l 1
 224 230 l 1
 175 700 l 1
 377 700 l 1
 375 302 l 1
 290 303 l 1
 592 699 l 1
 807 699 l 1
EndSplineSet
EndChar

StartChar: uni0424
Encoding: 1060 1060 420
Width: 926
VWidth: 0
Flags: HW
LayerCount: 2
Fore
SplineSet
548 700 m 1
 750 700 l 1
 509 0 l 1
 309 0 l 1
 548 700 l 1
762 351 m 0
 797 432 721 449 656 450 c 1
 502 451 l 2
 422 450 331 431 296 349 c 0
 261 268 337 251 402 250 c 1
 555 249 l 2
 635 250 727 269 762 351 c 0
959 349 m 0
 911 180 737 81 570 80 c 1
 337 80 l 1
 184 80 52 186 98 351 c 0
 146 520 320 619 487 620 c 1
 721 620 l 1
 874 620 1005 514 959 349 c 0
EndSplineSet
EndChar

StartChar: uni0425
Encoding: 1061 1061 421
Width: 767
VWidth: 0
Flags: HW
LayerCount: 2
Fore
SplineSet
636 699 m 1
 893 699 l 1
 550 342 l 1
 650 0 l 1
 425 0 l 1
 392 202 l 1
 213 0 l 1
 -44 0 l 1
 323 370 l 1
 236 700 l 1
 462 700 l 1
 486 527 l 1
 636 699 l 1
EndSplineSet
EndChar

StartChar: uni0426
Encoding: 1062 1062 422
Width: 841
VWidth: 0
Flags: HW
LayerCount: 2
Fore
SplineSet
268 177 m 1
 510 177 l 1
 690 700 l 1
 891 700 l 1
 712 177 l 1
 824 177 l 1
 714 -144 l 1
 522 -144 l 1
 572 0 l 1
 7 0 l 1
 247 700 l 1
 449 700 l 1
 268 177 l 1
EndSplineSet
EndChar

StartChar: uni0427
Encoding: 1063 1063 423
Width: 708
VWidth: 0
Flags: HW
LayerCount: 2
Fore
SplineSet
324 202 m 1
 436 373 l 1
 582 376 l 1
 519 200 l 1
 324 202 l 1
619 700 m 1
 825 700 l 1
 584 0 l 1
 380 0 l 1
 619 700 l 1
449 699 m 1
 367 479 l 1
 347 412 371 373 436 373 c 1
 324 202 l 1
 184 202 127 320 164 451 c 1
 247 700 l 1
 449 699 l 1
EndSplineSet
EndChar

StartChar: uni0428
Encoding: 1064 1064 424
Width: 1048
VWidth: 0
Flags: HW
LayerCount: 2
Fore
SplineSet
787 177 m 1
 967 700 l 1
 1165 700 l 1
 925 0 l 1
 15 0 l 1
 255 700 l 1
 453 700 l 1
 273 177 l 1
 435 177 l 1
 615 700 l 1
 805 700 l 1
 625 177 l 1
 787 177 l 1
EndSplineSet
EndChar

StartChar: uni0429
Encoding: 1065 1065 425
Width: 1123
VWidth: 0
Flags: HW
LayerCount: 2
Fore
SplineSet
787 177 m 1
 967 700 l 1
 1165 700 l 1
 985 177 l 1
 1098 177 l 1
 988 -144 l 1
 796 -144 l 1
 846 0 l 1
 15 0 l 1
 255 700 l 1
 453 700 l 1
 273 177 l 1
 435 177 l 1
 615 700 l 1
 805 700 l 1
 625 177 l 1
 787 177 l 1
EndSplineSet
EndChar

StartChar: uni042A
Encoding: 1066 1066 426
Width: 717
VWidth: 0
Flags: HW
LayerCount: 2
Fore
SplineSet
345 311 m 1
 397 471 l 1
 510 471 l 2
 652 467 762 386 719 234 c 0
 676 81 536 4 384 0 c 2
 234 0 l 1
 291 159 l 1
 406 160 l 2
 456 160 514 187 534 237 c 0
 551 281 528 308 485 309 c 2
 345 311 l 1
299 524 m 1
 128 524 l 1
 189 700 l 1
 557 700 l 1
 316 0 l 1
 119 0 l 1
 299 524 l 1
EndSplineSet
EndChar

StartChar: uni042B
Encoding: 1067 1067 427
Width: 901
VWidth: 0
Flags: HW
LayerCount: 2
Fore
SplineSet
823 700 m 1
 1025 700 l 1
 785 0 l 1
 584 0 l 1
 823 700 l 1
246 700 m 1
 445 700 l 1
 205 0 l 1
 8 0 l 1
 246 700 l 1
238 311 m 1
 289 471 l 1
 403 471 l 2
 545 467 655 386 612 234 c 0
 569 81 428 4 276 0 c 2
 126 0 l 1
 183 159 l 1
 299 160 l 2
 349 160 406 187 426 237 c 0
 443 281 420 308 377 309 c 2
 238 311 l 1
EndSplineSet
EndChar

StartChar: uni042C
Encoding: 1068 1068 428
Width: 610
VWidth: 0
Flags: HW
LayerCount: 2
Fore
SplineSet
246 700 m 1
 445 700 l 1
 205 0 l 1
 8 0 l 1
 246 700 l 1
238 311 m 1
 289 471 l 1
 403 471 l 2
 545 467 655 386 612 234 c 0
 569 81 428 4 276 0 c 2
 126 0 l 1
 183 159 l 1
 299 160 l 2
 349 160 406 187 426 237 c 0
 443 281 420 308 377 309 c 2
 238 311 l 1
EndSplineSet
EndChar

StartChar: uni042D
Encoding: 1069 1069 429
Width: 663
VWidth: 0
Flags: HW
LayerCount: 2
Fore
SplineSet
164 272 m 1
 218 428 l 1
 563 428 l 1
 508 272 l 1
 164 272 l 1
515 350 m 0
 555 446 499 534 394 537 c 0
 314 539 238 502 168 468 c 1
 216 650 l 1
 282 691 357 719 436 719 c 0
 646 720 764 549 705 350 c 0
 642 140 439 -20 218 -19 c 0
 144 -19 81 7 22 52 c 1
 72 233 l 1
 117 189 168 161 233 162 c 0
 347 163 472 244 515 350 c 0
EndSplineSet
EndChar

StartChar: uni042E
Encoding: 1070 1070 430
Width: 1111
VWidth: 0
Flags: HW
LayerCount: 2
Fore
SplineSet
147 277 m 1
 208 454 l 1
 576 454 l 1
 514 277 l 1
 147 277 l 1
246 700 m 1
 445 700 l 1
 205 0 l 1
 8 0 l 1
 246 700 l 1
626 350 m 0
 594 272 600 166 706 163 c 0
 814 160 907 256 945 350 c 0
 977 429 973 534 866 537 c 0
 758 540 664 444 626 350 c 0
419 350 m 0
 480 552 679 719 894 719 c 0
 1101 719 1210 541 1153 350 c 0
 1092 145 892 -27 674 -27 c 0
 463 -27 361 159 419 350 c 0
EndSplineSet
EndChar

StartChar: uni042F
Encoding: 1071 1071 431
Width: 636
VWidth: 0
Flags: HW
LayerCount: 2
Fore
SplineSet
453 306 m 1
 176 0 l 1
 -66 0 l 1
 236 306 l 1
 453 306 l 1
762 700 m 1
 521 0 l 1
 323 0 l 1
 564 700 l 1
 762 700 l 1
582 533 m 1
 467 532 l 2
 417 532 359 505 339 455 c 0
 321 411 344 384 387 382 c 1
 534 380 l 1
 480 230 l 1
 349 229 l 0
 210 233 99 316 141 466 c 0
 183 617 328 696 477 700 c 1
 642 700 l 1
 582 533 l 1
EndSplineSet
EndChar

StartChar: uni0430
Encoding: 1072 1072 432
Width: 530
VWidth: 0
Flags: HW
LayerCount: 2
Fore
SplineSet
180 136 m 0
 174 116 191 101 209 100 c 0
 266 95 305 146 332 188 c 1
 332 127 l 1
 296 46 229 -9 138 -10 c 0
 55 -11 -16 43 7 132 c 0
 33 230 141 274 234 276 c 0
 290 277 338 262 382 230 c 1
 361 152 l 1
 334 174 309 190 273 188 c 0
 243 187 189 169 180 136 c 0
171 305 m 1
 145 425 l 1
 214 451 287 474 361 474 c 0
 453 474 576 430 540 321 c 2
 434 0 l 1
 263 0 l 1
 368 282 l 2
 380 315 365 336 329 341 c 0
 276 348 219 323 171 305 c 1
EndSplineSet
Substitution2: "alt a" a.alt
EndChar

StartChar: uni0431
Encoding: 1073 1073 433
Width: 591
VWidth: 0
Flags: HW
LayerCount: 2
Fore
SplineSet
368 329 m 1
 430 468 l 1
 562 468 635 363 601 229 c 0
 565 87 427 -9 283 -10 c 0
 108 -11 77 131 77 205 c 1
 250 192 l 1
 250 166 255 133 298 133 c 0
 352 133 405 184 422 232 c 0
 442 287 418 329 368 329 c 1
182 232 m 1
 222 360 292 468 430 468 c 1
 368 329 l 1
 313 329 250 286 250 192 c 1
 182 232 l 1
77 205 m 1
 77 400 213 594 370 665 c 0
 437 696 501 719 549 779 c 1
 721 778 l 1
 675 671 584 612 481 566 c 0
 386 524 261 440 247 326 c 1
 250 192 l 1
 77 205 l 1
EndSplineSet
EndChar

StartChar: uni0432
Encoding: 1074 1074 434
Width: 516
VWidth: 0
Flags: HW
LayerCount: 2
Fore
SplineSet
187 239 m 1
 344 240 l 2
 417 238 501 214 481 123 c 0
 463 45 387 0 312 0 c 2
 106 0 l 1
 144 103 l 1
 259 103 l 2
 283 103 317 120 327 145 c 0
 335 166 322 181 304 181 c 2
 172 182 l 1
 187 239 l 1
187 221 m 1
 204 282 l 1
 314 283 l 2
 336 283 362 300 371 322 c 0
 378 338 370 356 355 356 c 2
 226 357 l 1
 265 460 l 1
 409 460 l 2
 483 457 557 418 535 333 c 0
 515 255 431 224 358 221 c 2
 187 221 l 1
168 460 m 1
 338 460 l 1
 179 0 l 1
 11 0 l 1
 168 460 l 1
EndSplineSet
EndChar

StartChar: uni0433
Encoding: 1075 1075 435
Width: 345
VWidth: 0
Flags: HW
LayerCount: 2
Fore
SplineSet
149 460 m 1
 454 460 l 1
 404 318 l 1
 274 318 l 1
 163 0 l 1
 -8 0 l 1
 149 460 l 1
EndSplineSet
EndChar

StartChar: uni0434
Encoding: 1076 1076 436
Width: 678
VWidth: 0
Flags: HW
LayerCount: 2
Fore
SplineSet
377 252 m 1
 209 32 l 1
 49 79 l 1
 446 501 l 1
 555 67 l 1
 390 26 l 1
 377 252 l 1
426 0 m 1
 149 0 l 1
 116 -90 l 1
 -54 -90 l 1
 25 134 l 1
 635 134 l 1
 556 -90 l 1
 392 -90 l 1
 426 0 l 1
EndSplineSet
EndChar

StartChar: uni0435
Encoding: 1077 1077 437
Width: 560
VWidth: 0
Flags: HW
LayerCount: 2
Fore
SplineSet
137 194 m 1
 164 282 l 1
 389 284 l 1
 395 315 399 353 358 357 c 0
 298 363 258 296 235 251 c 2
 224 229 l 1
 208 187 197 120 257 113 c 0
 299 108 339 137 370 162 c 1
 526 128 l 1
 457 44 361 -10 251 -10 c 0
 110 -10 13 87 51 231 c 0
 55 248 61 263 68 279 c 0
 122 398 245 470 374 470 c 0
 515 470 594 377 562 238 c 0
 558 223 554 209 549 194 c 1
 137 194 l 1
EndSplineSet
EndChar

StartChar: uni0436
Encoding: 1078 1078 438
Width: 895
VWidth: 0
Flags: HW
LayerCount: 2
Fore
SplineSet
777 459 m 1
 996 459 l 1
 732 257 l 1
 836 0 l 1
 660 0 l 1
 540 283 l 1
 777 459 l 1
636 460 m 1
 478 0 l 1
 310 0 l 1
 468 460 l 1
 636 460 l 1
301 460 m 1
 434 257 l 1
 148 0 l 1
 -69 0 l 1
 239 281 l 1
 130 460 l 1
 301 460 l 1
EndSplineSet
EndChar

StartChar: uni0437
Encoding: 1079 1079 439
Width: 525
VWidth: 0
Flags: HW
LayerCount: 2
Fore
SplineSet
290 228 m 1
 308 288 l 1
 327 292 361 299 369 321 c 0
 373 332 365 346 345 346 c 0
 318 346 302 323 293 301 c 1
 133 304 l 1
 171 404 253 468 362 469 c 0
 440 470 553 429 529 332 c 0
 505 233 371 230 290 228 c 1
232 -10 m 0
 120 -10 48 49 51 163 c 1
 204 161 l 1
 210 137 214 111 251 111 c 0
 290 111 318 133 325 159 c 0
 334 191 303 197 281 201 c 1
 300 260 l 1
 375 257 505 241 480 133 c 0
 456 30 325 -10 232 -10 c 0
EndSplineSet
EndChar

StartChar: uni0438
Encoding: 1080 1080 440
Width: 571
VWidth: 0
Flags: HW
LayerCount: 2
Fore
SplineSet
571 305 m 1
 -29 -53 l 1
 50 155 l 1
 649 513 l 1
 571 305 l 1
319 460 m 1
 198 108 l 1
 -29 -53 l 1
 150 460 l 1
 319 460 l 1
649 513 m 1
 471 0 l 1
 302 0 l 1
 423 352 l 1
 649 513 l 1
EndSplineSet
EndChar

StartChar: uni0439
Encoding: 1081 1081 441
Width: 571
VWidth: 0
Flags: HW
LayerCount: 2
Fore
SplineSet
571 305 m 1
 -29 -53 l 1
 50 155 l 1
 649 513 l 1
 571 305 l 1
319 460 m 1
 198 108 l 1
 -29 -53 l 1
 150 460 l 1
 319 460 l 1
649 513 m 1
 471 0 l 1
 302 0 l 1
 423 352 l 1
 649 513 l 1
286 699 m 1
 386 699 l 1
 388 675 389 650 419 646 c 0
 452 642 477 676 493 698 c 1
 602 697 l 1
 569 614 503 552 409 551 c 0
 316 550 277 612 286 699 c 1
EndSplineSet
EndChar

StartChar: uni043A
Encoding: 1082 1082 442
Width: 592
VWidth: 0
Flags: HW
LayerCount: 2
Fore
SplineSet
148 460 m 1
 317 460 l 1
 158 0 l 1
 -10 0 l 1
 148 460 l 1
453 459 m 1
 680 459 l 1
 414 258 l 1
 519 0 l 1
 340 0 l 1
 220 283 l 1
 453 459 l 1
EndSplineSet
EndChar

StartChar: uni043B
Encoding: 1083 1083 443
Width: 607
VWidth: 0
Flags: HW
LayerCount: 2
Fore
SplineSet
642 460 m 1
 483 0 l 1
 314 0 l 1
 419 301 l 1
 291 300 l 1
 244 159 l 1
 197 29 83 6 -42 1 c 1
 0 155 l 1
 40 160 68 173 88 212 c 1
 176 460 l 1
 642 460 l 1
EndSplineSet
EndChar

StartChar: uni043C
Encoding: 1084 1084 444
Width: 633
VWidth: 0
Flags: HW
LayerCount: 2
Fore
SplineSet
409 0 m 1
 458 313 l 1
 611 511 l 1
 575 0 l 1
 409 0 l 1
286 167 m 1
 611 511 l 1
 543 263 l 1
 255 -34 l 1
 286 167 l 1
255 -34 m 1
 172 292 l 1
 252 497 l 1
 343 137 l 1
 255 -34 l 1
-60 0 m 1
 252 497 l 1
 270 280 l 1
 121 0 l 1
 -60 0 l 1
EndSplineSet
EndChar

StartChar: uni043D
Encoding: 1085 1085 445
Width: 593
VWidth: 0
Flags: HW
LayerCount: 2
Fore
SplineSet
97 180 m 1
 141 306 l 1
 510 306 l 1
 467 180 l 1
 97 180 l 1
484 460 m 1
 653 460 l 1
 495 0 l 1
 326 0 l 1
 484 460 l 1
149 460 m 1
 318 460 l 1
 159 0 l 1
 -9 0 l 1
 149 460 l 1
EndSplineSet
EndChar

StartChar: uni043E
Encoding: 1086 1086 446
Width: 568
VWidth: 0
Flags: HW
LayerCount: 2
Fore
SplineSet
49 231 m 0
 88 372 229 471 374 471 c 0
 511 471 608 366 569 229 c 0
 530 89 389 -10 244 -10 c 0
 107 -10 10 94 49 231 c 0
226 228 m 0
 211 191 212 136 263 133 c 0
 317 130 373 185 392 232 c 0
 407 269 406 325 355 328 c 0
 301 331 245 275 226 228 c 0
EndSplineSet
EndChar

StartChar: uni043F
Encoding: 1087 1087 447
Width: 556
VWidth: 0
Flags: HW
LayerCount: 2
Fore
SplineSet
615 460 m 1
 457 0 l 1
 287 0 l 1
 395 309 l 1
 267 309 l 1
 159 0 l 1
 -10 0 l 1
 149 460 l 1
 615 460 l 1
EndSplineSet
EndChar

StartChar: uni0440
Encoding: 1088 1088 448
Width: 595
VWidth: 0
Flags: HW
LayerCount: 2
Fore
SplineSet
92 -220 m 1
 -86 -220 l 1
 149 460 l 1
 325 460 l 1
 92 -220 l 1
596 229 m 0
 562 109 455 -19 320 -19 c 0
 181 -19 176 127 206 231 c 0
 239 347 323 476 457 478 c 0
 594 480 627 338 596 229 c 0
415 233 m 0
 430 274 421 318 371 322 c 0
 319 326 263 273 246 227 c 0
 231 187 236 142 285 138 c 0
 338 134 397 186 415 233 c 0
EndSplineSet
EndChar

StartChar: uni0441
Encoding: 1089 1089 449
Width: 462
VWidth: 0
Flags: HW
LayerCount: 2
Fore
SplineSet
226 228 m 0
 206 178 224 133 280 129 c 0
 334 125 385 158 428 188 c 1
 386 25 l 1
 342 3 297 -10 247 -10 c 0
 110 -10 9 92 48 231 c 0
 88 375 233 469 378 470 c 0
 428 470 471 458 515 436 c 1
 471 271 l 1
 450 308 424 333 378 333 c 0
 317 332 249 284 226 228 c 0
EndSplineSet
EndChar

StartChar: uni0442
Encoding: 1090 1090 450
Width: 329
VWidth: 0
Flags: HW
LayerCount: 2
Fore
SplineSet
103 460 m 1
 435 460 l 1
 384 318 l 1
 52 318 l 1
 103 460 l 1
177 440 m 1
 347 440 l 1
 194 0 l 1
 27 0 l 1
 177 440 l 1
EndSplineSet
EndChar

StartChar: uni0443
Encoding: 1091 1091 451
Width: 516
VWidth: 0
Flags: HW
LayerCount: 2
Fore
SplineSet
640 459 m 1
 124 -219 l 1
 -55 -219 l 1
 140 38 l 1
 93 460 l 1
 271 460 l 1
 283 87 l 1
 189 89 l 1
 457 459 l 1
 640 459 l 1
EndSplineSet
EndChar

StartChar: uni0444
Encoding: 1092 1092 452
Width: 653
VWidth: 0
Flags: HW
LayerCount: 2
Fore
SplineSet
382 560 m 1
 548 560 l 1
 320 -100 l 1
 156 -100 l 1
 382 560 l 1
49 231 m 0
 93 391 262 471 417 471 c 0
 559 471 698 389 654 229 c 0
 610 69 442 -10 287 -10 c 0
 145 -10 5 71 49 231 c 0
203 229 m 0
 171 154 243 133 303 133 c 0
 377 132 468 155 500 231 c 0
 532 306 460 328 400 328 c 0
 326 329 235 305 203 229 c 0
EndSplineSet
EndChar

StartChar: uni0445
Encoding: 1093 1093 453
Width: 537
VWidth: 0
Flags: HW
LayerCount: 2
Fore
SplineSet
443 460 m 1
 645 460 l 1
 391 228 l 1
 496 0 l 1
 321 0 l 1
 270 124 l 1
 162 0 l 1
 -47 0 l 1
 215 253 l 1
 120 460 l 1
 304 460 l 1
 340 357 l 1
 443 460 l 1
EndSplineSet
EndChar

StartChar: uni0446
Encoding: 1094 1094 454
Width: 602
VWidth: 0
Flags: HW
LayerCount: 2
Fore
SplineSet
514 142 m 1
 590 142 l 1
 504 -107 l 1
 336 -107 l 1
 374 0 l 1
 -9 0 l 1
 149 460 l 1
 326 460 l 1
 216 142 l 1
 336 142 l 1
 447 460 l 1
 623 460 l 1
 514 142 l 1
EndSplineSet
EndChar

StartChar: uni0447
Encoding: 1095 1095 455
Width: 534
VWidth: 0
Flags: HW
LayerCount: 2
Fore
SplineSet
211 108 m 1
 293 248 l 1
 401 249 l 1
 351 108 l 1
 211 108 l 1
408 460 m 1
 586 460 l 1
 427 0 l 1
 251 0 l 1
 408 460 l 1
322 459 m 1
 266 310 l 2
 251 268 265 248 293 248 c 1
 211 108 l 1
 81 108 68 216 101 328 c 2
 145 460 l 1
 322 459 l 1
EndSplineSet
EndChar

StartChar: uni0448
Encoding: 1096 1096 456
Width: 805
VWidth: 0
Flags: HW
LayerCount: 2
Fore
SplineSet
480 142 m 1
 585 142 l 1
 695 460 l 1
 864 460 l 1
 705 0 l 1
 -9 0 l 1
 149 460 l 1
 318 460 l 1
 207 142 l 1
 312 142 l 1
 423 460 l 1
 590 460 l 1
 480 142 l 1
EndSplineSet
EndChar

StartChar: uni0449
Encoding: 1097 1097 457
Width: 842
VWidth: 0
Flags: HW
LayerCount: 2
Fore
SplineSet
480 142 m 1
 584 142 l 1
 694 460 l 1
 863 460 l 1
 754 142 l 1
 829 142 l 1
 744 -107 l 1
 576 -107 l 1
 614 0 l 1
 -9 0 l 1
 149 460 l 1
 318 460 l 1
 207 142 l 1
 312 142 l 1
 423 460 l 1
 590 460 l 1
 480 142 l 1
EndSplineSet
EndChar

StartChar: uni044A
Encoding: 1098 1098 458
Width: 586
VWidth: 0
Flags: HW
LayerCount: 2
Fore
SplineSet
267 204 m 1
 301 310 l 1
 423 312 l 2
 508 313 574 260 551 168 c 0
 528 76 442 2 349 1 c 2
 191 0 l 1
 241 132 l 1
 331 132 l 2
 353 132 383 146 392 170 c 0
 399 187 389 203 373 203 c 2
 267 204 l 1
178 318 m 1
 52 318 l 1
 103 460 l 1
 387 460 l 1
 229 0 l 1
 69 0 l 1
 178 318 l 1
EndSplineSet
EndChar

